{
.appVersion = "1161";
classes = (
{
code = "acutecomb gravecomb tildecomb uni0302 uni0304\012uni0305 uni0306 uni0307 uni0308 uni030A uni030C\012uni035B";
name = CombDiacritics;
},
{
code = "a b c d e g h i j k l m n o p q r s t u v w x y z\012agrave aacute acircumflex atilde adieresis aring ae\012ccedilla egrave eacute ecircumflex edieresis igrave\012iacute icircumflex idieresis eth ntilde ograve\012oacute ocircumflex otilde odieresis oslash ugrave\012uacute ucircumflex udieresis yacute thorn ydieresis\012germandbls amacron emacron imacron omacron umacron\012abreve cdotaccent dcaron ebreve eogonek gdotaccent\012ibreve dotlessi lslash obreve oe tcaron ubreve\012longs uni0195 uni01BF uni01E3 uni01EB uni021D\012uni0233 uni0237 uni1D79 uni1E8F uni1E9C uniA741\012uniA751 uniA753 uniA757 uniA75D uniA76B uniA76F\012uniA77A uniA77A.alt uniA77C uniA783 uniA785 uniA787\012# uniFB00 uniFB01 uniFB02 uniFB03 uniFB04\012uniFB05 uniFB06\012# f_f_udieresis f_thorn f_thorn.nordic f_eth.nordic\012# f_j f_udieresis f_odieresis";
name = AllLowerCaseexclf;
},
{
code = "agrave acircumflex atilde adieresis aring egrave\012ecircumflex edieresis igrave iacute icircumflex\012idieresis ograve ocircumflex otilde odieresis\012ugrave ucircumflex udieresis ydieresis amacron\012abreve emacron ebreve imacron ibreve omacron\012obreve umacron ubreve uni01E3";
name = HighDiacritics;
},
{
code = "f uniFB00 f.alt uniFB00.alt";
name = LowerCase_f;
}
);
copyright = "Copyright (c) 1998-2018 by Peter S. Baker";
customParameters = (
{
name = licenseURL;
value = "http://scripts.sil.org/OFL";
},
{
name = license;
value = "Licensed under the SIL Open Font License, version 1.1";
},
{
name = panose;
value = (
0,
0,
5,
0,
0,
0,
0,
0,
0,
0
);
},
{
name = unicodeRanges;
value = (
0,
1,
2,
3,
4,
5,
6,
29,
31,
36,
42,
79,
86
);
},
{
name = codePageRanges;
value = (
1252,
1250,
1254,
1257,
1258
);
},
{
name = glyphOrder;
value = (
.notdef,
uni0000,
uni000D,
A,
A.swash,
AE,
AE.swash,
AEacute,
Aacute,
Abreve,

glyphs = (
{
glyphname = .notdef;
lastChange = "2018-08-15 18:57:35 +0000";
layers = (
{
layerId = "98F9B6AB-A1D0-4874-9186-59FDE6DAF116";
paths = (
{
closed = 1;
nodes = (
"932 -132 LINE",
"932 1508 LINE",
"68 1508 LINE",
"68 -132 LINE"
);
},
{
closed = 1;
nodes = (
"380 -31 OFFCURVE",
"326 2 OFFCURVE",
"296 56 OFFCURVE",
"296 86 QCURVE SMOOTH",
"296 141 OFFCURVE",
"362 213 OFFCURVE",
"414 213 QCURVE SMOOTH",
"450 213 OFFCURVE",
"505 177 OFFCURVE",
"534 119 OFFCURVE",
"534 86 QCURVE SMOOTH",
"534 31 OFFCURVE",
"464 -31 OFFCURVE",
"414 -31 QCURVE SMOOTH"
);
},
{
closed = 1;
nodes = (
"310 562 OFFCURVE",
"310 637 QCURVE SMOOTH",
"310 727 OFFCURVE",
"424 788 QCURVE SMOOTH",
"530 844 LINE SMOOTH",
"646 906 OFFCURVE",
"646 995 QCURVE SMOOTH",
"646 1194 OFFCURVE",
"354 1194 QCURVE SMOOTH",
"286 1194 OFFCURVE",
"286 1280 QCURVE SMOOTH",
"286 1362 OFFCURVE",
"370 1362 QCURVE SMOOTH",
"500 1362 OFFCURVE",
"614 1231 QCURVE SMOOTH",
"732 1097 OFFCURVE",
"732 930 QCURVE SMOOTH",
"732 784 OFFCURVE",
"650 741 QCURVE SMOOTH",
"484 653 LINE SMOOTH",
"410 612 OFFCURVE",
"410 563 QCURVE SMOOTH",
"410 509 OFFCURVE",
"430 438 QCURVE",
"386 426 LINE"
);
}
);
userData = {
assembly = "MPPEM[ ]\011/* MeasurePixelPerEm */
PUSHB[ ]\011/* 1 value pushed */
42 
LT[ ]\011/* LessThan */
IF[ ]\011/* If */
NPUSHB[ ]\011/* 35 values pushed */
6 1 0 1 2 1 0 2 128 0 2 3 1 2 3 126 0 3 7 1 5 3 5 99 0 1 1 4 95 0 4 4 94 1 78 
ELSE[ ]\011/* Else */
NPUSHB[ ]\011/* 41 values pushed */
6 1 0 1 2 1 0 2 128 0 2 3 1 2 3 126 0 4 0 1 0 4 1 105 0 3 5 5 3 89 0 3 3 5 95 7 1 5 3 5 79 
EIF[ ]\011/* EndIf */
NPUSHB[ ]\011/* 23 values pushed */
44 44 1 0 44 47 44 47 46 45 41 39 33 31 25 23 0 27 1 27 8 12 22 
CALL[ ]\011/* CallFunction */";
};
width = 1024;
},
{
layerId = "2899D53B-47B8-4BF9-853D-5BC6961E25E7";
paths = (
{
closed = 1;
nodes = (
"932 -132 LINE",
"932 1508 LINE",
"68 1508 LINE",
"68 -132 LINE"
);
},
{
closed = 1;
nodes = (
"380 -31 OFFCURVE",
"326 2 OFFCURVE",
"296 56 OFFCURVE",
"296 86 QCURVE SMOOTH",
"296 141 OFFCURVE",
"362 213 OFFCURVE",
"414 213 QCURVE SMOOTH",
"450 213 OFFCURVE",
"505 177 OFFCURVE",
"534 119 OFFCURVE",
"534 86 QCURVE SMOOTH",
"534 31 OFFCURVE",
"464 -31 OFFCURVE",
"414 -31 QCURVE SMOOTH"
);
},
{
closed = 1;
nodes = (
"310 562 OFFCURVE",
"310 637 QCURVE SMOOTH",
"310 727 OFFCURVE",
"424 788 QCURVE SMOOTH",
"530 844 LINE SMOOTH",
"646 906 OFFCURVE",
"646 995 QCURVE SMOOTH",
"646 1194 OFFCURVE",
"354 1194 QCURVE SMOOTH",
"286 1194 OFFCURVE",
"286 1280 QCURVE SMOOTH",
"286 1362 OFFCURVE",
"370 1362 QCURVE SMOOTH",
"500 1362 OFFCURVE",
"614 1231 QCURVE SMOOTH",
"732 1097 OFFCURVE",
"732 930 QCURVE SMOOTH",
"732 784 OFFCURVE",
"650 741 QCURVE SMOOTH",
"484 653 LINE SMOOTH",
"410 612 OFFCURVE",
"410 563 QCURVE SMOOTH",
"410 509 OFFCURVE",
"430 438 QCURVE",
"386 426 LINE"
);
}
);
userData = {
assembly = "MPPEM[ ]\011/* MeasurePixelPerEm */
PUSHB[ ]\011/* 1 value pushed */
49 
LT[ ]\011/* LessThan */
IF[ ]\011/* If */
NPUSHB[ ]\011/* 28 values pushed */
6 1 0 0 2 3 0 2 105 0 3 7 1 5 3 5 99 0 1 1 4 95 0 4 4 33 1 78 
ELSE[ ]\011/* Else */
NPUSHB[ ]\011/* 34 values pushed */
0 4 0 1 0 4 1 105 6 1 0 0 2 3 0 2 105 0 3 5 5 3 89 0 3 3 5 95 7 1 5 3 5 79 
EIF[ ]\011/* EndIf */
NPUSHB[ ]\011/* 23 values pushed */
44 44 1 0 44 47 44 47 46 45 41 39 33 31 25 23 0 27 1 27 8 8 22 
CALL[ ]\011/* CallFunction */";
};
width = 1024;
}
);
note = .notdef;
},
{
glyphname = uni0000;
lastChange = "2018-08-15 18:57:56 +0000";
layers = (
{
layerId = "98F9B6AB-A1D0-4874-9186-59FDE6DAF116";
paths = (
{
closed = 1;
nodes = (
"286 1194 OFFCURVE",
"286 1280 QCURVE SMOOTH",
"286 1362 OFFCURVE",
"370 1362 QCURVE SMOOTH",
"500 1362 OFFCURVE",
"614 1231 QCURVE SMOOTH",
"732 1097 OFFCURVE",
"732 930 QCURVE SMOOTH",
"732 784 OFFCURVE",
"650 741 QCURVE SMOOTH",
"484 653 LINE SMOOTH",
"410 612 OFFCURVE",
"410 563 QCURVE SMOOTH",
"410 509 OFFCURVE",
"430 438 QCURVE",
"386 426 LINE",
"310 562 OFFCURVE",
"310 637 QCURVE SMOOTH",
"310 727 OFFCURVE",
"424 788 QCURVE SMOOTH",
"530 844 LINE SMOOTH",
"646 906 OFFCURVE",
"646 995 QCURVE SMOOTH",
"646 1194 OFFCURVE",
"354 1194 QCURVE SMOOTH"
);
},
{
closed = 1;
nodes = (
"534 31 OFFCURVE",
"464 -31 OFFCURVE",
"414 -31 QCURVE SMOOTH",
"380 -31 OFFCURVE",
"326 2 OFFCURVE",
"296 56 OFFCURVE",
"296 86 QCURVE SMOOTH",
"296 141 OFFCURVE",
"362 213 OFFCURVE",
"414 213 QCURVE SMOOTH",
"450 213 OFFCURVE",
"505 177 OFFCURVE",
"534 119 OFFCURVE",
"534 86 QCURVE SMOOTH"
);
},
{
closed = 1;
nodes = (
"932 -132 LINE",
"932 1508 LINE",
"68 1508 LINE",
"68 -132 LINE"
);
}
);
userData = {
assembly = "MPPEM[ ]\011/* MeasurePixelPerEm */
PUSHB[ ]\011/* 1 value pushed */
42 
LT[ ]\011/* LessThan */
IF[ ]\011/* If */
NPUSHB[ ]\011/* 35 values pushed */
6 1 0 1 2 1 0 2 128 0 2 3 1 2 3 126 0 3 7 1 5 3 5 99 0 1 1 4 95 0 4 4 94 1 78 
ELSE[ ]\011/* Else */
NPUSHB[ ]\011/* 41 values pushed */
6 1 0 1 2 1 0 2 128 0 2 3 1 2 3 126 0 4 0 1 0 4 1 105 0 3 5 5 3 89 0 3 3 5 95 7 1 5 3 5 79 
EIF[ ]\011/* EndIf */
NPUSHB[ ]\011/* 23 values pushed */
44 44 1 0 44 47 44 47 46 45 41 39 33 31 25 23 0 27 1 27 8 12 22 
CALL[ ]\011/* CallFunction */";
};
width = 1024;
},
{
layerId = "2899D53B-47B8-4BF9-853D-5BC6961E25E7";
paths = (
{
closed = 1;
nodes = (
"286 1194 OFFCURVE",
"286 1280 QCURVE SMOOTH",
"286 1362 OFFCURVE",
"370 1362 QCURVE SMOOTH",
"500 1362 OFFCURVE",
"614 1231 QCURVE SMOOTH",
"732 1097 OFFCURVE",
"732 930 QCURVE SMOOTH",
"732 784 OFFCURVE",
"650 741 QCURVE SMOOTH",
"484 653 LINE SMOOTH",
"410 612 OFFCURVE",
"410 563 QCURVE SMOOTH",
"410 509 OFFCURVE",
"430 438 QCURVE",
"386 426 LINE",
"310 562 OFFCURVE",
"310 637 QCURVE SMOOTH",
"310 727 OFFCURVE",
"424 788 QCURVE SMOOTH",
"530 844 LINE SMOOTH",
"646 906 OFFCURVE",
"646 995 QCURVE SMOOTH",
"646 1194 OFFCURVE",
"354 1194 QCURVE SMOOTH"
);
},
{
closed = 1;
nodes = (
"534 31 OFFCURVE",
"464 -31 OFFCURVE",
"414 -31 QCURVE SMOOTH",
"380 -31 OFFCURVE",
"326 2 OFFCURVE",
"296 56 OFFCURVE",
"296 86 QCURVE SMOOTH",
"296 141 OFFCURVE",
"362 213 OFFCURVE",
"414 213 QCURVE SMOOTH",
"450 213 OFFCURVE",
"505 177 OFFCURVE",
"534 119 OFFCURVE",
"534 86 QCURVE SMOOTH"
);
},
{
closed = 1;
nodes = (
"932 -132 LINE",
"932 1508 LINE",
"68 1508 LINE",
"68 -132 LINE"
);
}
);
userData = {
assembly = "MPPEM[ ]\011/* MeasurePixelPerEm */
PUSHB[ ]\011/* 1 value pushed */
49 
LT[ ]\011/* LessThan */
IF[ ]\011/* If */
NPUSHB[ ]\011/* 28 values pushed */
6 1 0 0 2 3 0 2 105 0 3 7 1 5 3 5 99 0 1 1 4 95 0 4 4 33 1 78 
ELSE[ ]\011/* Else */
NPUSHB[ ]\011/* 34 values pushed */
0 4 0 1 0 4 1 105 6 1 0 0 2 3 0 2 105 0 3 5 5 3 89 0 3 3 5 95 7 1 5 3 5 79 
EIF[ ]\011/* EndIf */
NPUSHB[ ]\011/* 23 values pushed */
44 44 1 0 44 47 44 47 46 45 41 39 33 31 25 23 0 27 1 27 8 8 22 
CALL[ ]\011/* CallFunction */";
};
width = 1024;
}
);
note = uni0000;
},
{
glyphname = A;
lastChange = "2018-08-17 18:04:06 +0000";
layers = (
{
anchors = (
{
name = bottom;
position = "{555, 0}";
},
{
name = ogonek;
position = "{1060, 10}";
},
{
name = top;
position = "{795, 1363}";
}
);
background = {
paths = (
{
closed = 1;
nodes = (
"951 1179 LINE SMOOTH",
"953 1249 OFFCURVE",
"956 1297 OFFCURVE",
"959 1322 CURVE SMOOTH",
"963 1347 OFFCURVE",
"964 1362 OFFCURVE",
"964 1367 CURVE SMOOTH",
"963 1379 OFFCURVE",
"957 1385 OFFCURVE",
"947 1385 CURVE SMOOTH",
"936 1385 OFFCURVE",
"916 1376 OFFCURVE",
"886 1359 CURVE SMOOTH",
"856 1341 OFFCURVE",
"809 1319 OFFCURVE",
"746 1293 CURVE SMOOTH",
"730 1286 OFFCURVE",
"722 1280 OFFCURVE",
"723 1273 CURVE SMOOTH",
"723 1268 OFFCURVE",
"727 1262 OFFCURVE",
"732 1255 CURVE SMOOTH",
"738 1248 OFFCURVE",
"742 1242 OFFCURVE",
"742 1237 CURVE SMOOTH",
"743 1227 OFFCURVE",
"739 1214 OFFCURVE",
"729 1199 CURVE SMOOTH",
"143 201 LINE SMOOTH",
"73 84 OFFCURVE",
"20 69 OFFCURVE",
"-82 69 CURVE SMOOTH",
"-100 69 OFFCURVE",
"-116 -7 OFFCURVE",
"-95 -7 CURVE",
"-38 -2 OFFCURVE",
"33 0 OFFCURVE",
"117 0 CURVE SMOOTH",
"202 0 OFFCURVE",
"273 -2 OFFCURVE",
"331 -7 CURVE",
"349 -7 OFFCURVE",
"365 69 OFFCURVE",
"345 69 CURVE SMOOTH",
"257 69 OFFCURVE",
"212 87 OFFCURVE",
"208 124 CURVE SMOOTH",
"207 139 OFFCURVE",
"213 159 OFFCURVE",
"226 182 CURVE SMOOTH",
"408 506 LINE SMOOTH",
"418 523 OFFCURVE",
"433 531 OFFCURVE",
"454 531 CURVE SMOOTH",
"764 531 LINE SMOOTH",
"785 531 OFFCURVE",
"796 519 OFFCURVE",
"795 496 CURVE SMOOTH",
"785 186 LINE SMOOTH",
"782 111 OFFCURVE",
"759 69 OFFCURVE",
"651 69 CURVE SMOOTH",
"632 69 OFFCURVE",
"616 -7 OFFCURVE",
"636 -7 CURVE",
"693 -2 OFFCURVE",
"764 0 OFFCURVE",
"847 0 CURVE SMOOTH",
"931 0 OFFCURVE",
"1002 -2 OFFCURVE",
"1061 -7 CURVE",
"1079 -7 OFFCURVE",
"1096 69 OFFCURVE",
"1074 69 CURVE SMOOTH",
"978 69 OFFCURVE",
"927 101 OFFCURVE",
"922 165 CURVE SMOOTH",
"921 174 OFFCURVE",
"921 181 OFFCURVE",
"921 186 CURVE SMOOTH"
);
},
{
closed = 1;
nodes = (
"797 610 OFFCURVE",
"786 600 OFFCURVE",
"765 600 CURVE SMOOTH",
"490 600 LINE SMOOTH",
"477 600 OFFCURVE",
"471 603 OFFCURVE",
"470 610 CURVE SMOOTH",
"469 616 OFFCURVE",
"471 622 OFFCURVE",
"476 629 CURVE",
"783 1159 LINE SMOOTH",
"786 1165 OFFCURVE",
"792 1168 OFFCURVE",
"800 1168 CURVE SMOOTH",
"808 1168 OFFCURVE",
"812 1165 OFFCURVE",
"813 1159 CURVE",
"797 629 LINE SMOOTH"
);
}
);
};
layerId = "98F9B6AB-A1D0-4874-9186-59FDE6DAF116";
paths = (
{
closed = 1;
nodes = (
"848 531 LINE",
"833 600 LINE",
"418 600 LINE",
"408 531 LINE"
);
},
{
closed = 1;
nodes = (
"747 1168 LINE",
"772 1168 LINE",
"829 186 LINE SMOOTH",
"833 111 OFFCURVE",
"814 69 OFFCURVE",
"706 69 CURVE",
"706 0 LINE",
"1129 0 LINE",
"1129 69 LINE",
"1032 69 OFFCURVE",
"970 98 OFFCURVE",
"965 186 CURVE SMOOTH",
"908 1179 LINE SMOOTH",
"905 1224 OFFCURVE",
"905 1316 OFFCURVE",
"905 1367 CURVE",
"878 1385 LINE",
"804 1342 OFFCURVE",
"754 1314 OFFCURVE",
"672 1284 CURVE",
"674 1263 LINE",
"686 1256 OFFCURVE",
"696 1245 OFFCURVE",
"700 1229 CURVE",
"186 201 LINE SMOOTH",
"127 83 OFFCURVE",
"75 69 OFFCURVE",
"-27 69 CURVE",
"-27 -1 LINE",
"400 -1 LINE",
"400 69 LINE",
"294 69 OFFCURVE",
"228 93 OFFCURVE",
"271 182 CURVE SMOOTH"
);
}
);
userData = {
assembly = "NPUSHB[ ]\011/* 15 values pushed */
63 1 8 7 0 1 0 3 2 76 36 11 2 1 73 
MPPEM[ ]\011/* MeasurePixelPerEm */
PUSHB[ ]\011/* 1 value pushed */
37 
LT[ ]\011/* LessThan */
IF[ ]\011/* If */
NPUSHB[ ]\011/* 28 values pushed */
0 8 0 3 0 8 3 103 0 7 7 98 77 6 4 2 3 0 0 1 97 5 1 1 1 93 1 78 
ELSE[ ]\011/* Else */
MPPEM[ ]\011/* MeasurePixelPerEm */
PUSHB[ ]\011/* 1 value pushed */
57 
LT[ ]\011/* LessThan */
IF[ ]\011/* If */
NPUSHB[ ]\011/* 25 values pushed */
0 8 0 3 0 8 3 103 6 4 2 3 0 5 1 1 0 1 101 0 7 7 98 7 78 
ELSE[ ]\011/* Else */
NPUSHB[ ]\011/* 36 values pushed */
0 7 8 7 133 0 8 0 3 0 8 3 103 6 4 2 3 0 1 1 0 89 6 4 2 3 0 0 1 97 5 1 1 0 1 81 
EIF[ ]\011/* EndIf */
EIF[ ]\011/* EndIf */
NPUSHB[ ]\011/* 12 values pushed */
61 44 36 21 21 52 36 21 19 9 12 31 
CALL[ ]\011/* CallFunction */";
};
width = 1230;
},
{
anchors = (
{
name = bottom;
position = "{475, 0}";
},
{
name = ogonek;
position = "{941, 10}";
},
{
name = top;
position = "{715, 1363}";
}
);
background = {
paths = (
{
closed = 1;
nodes = (
"961 1151 LINE SMOOTH",
"959 1198 OFFCURVE",
"966 1312 OFFCURVE",
"962 1335 QCURVE SMOOTH",
"953 1386 OFFCURVE",
"911 1386 QCURVE SMOOTH",
"885 1386 OFFCURVE",
"784 1328 OFFCURVE",
"718 1303 QCURVE SMOOTH",
"656 1279 OFFCURVE",
"659 1260 QCURVE SMOOTH",
"661 1249 OFFCURVE",
"683 1225 OFFCURVE",
"687 1204 OFFCURVE",
"681 1192 QCURVE SMOOTH",
"196 217 LINE SMOOTH",
"166 157 OFFCURVE",
"83 86 OFFCURVE",
"-26 86 QCURVE SMOOTH",
"-42 86 OFFCURVE",
"-45 18 OFFCURVE",
"-41 -8 OFFCURVE",
"-33 -8 QCURVE",
"43 0 OFFCURVE",
"350 0 OFFCURVE",
"428 -8 QCURVE",
"441 -8 OFFCURVE",
"447 49 OFFCURVE",
"441 86 OFFCURVE",
"433 86 QCURVE SMOOTH",
"312 86 OFFCURVE",
"302 141 QCURVE",
"298 162 OFFCURVE",
"316 201 QCURVE SMOOTH",
"453 496 LINE SMOOTH",
"465 522 OFFCURVE",
"496 522 QCURVE SMOOTH",
"744 522 LINE",
"785 524 OFFCURVE",
"787 485 QCURVE SMOOTH",
"800 203 LINE SMOOTH",
"803 129 OFFCURVE",
"754 86 OFFCURVE",
"693 86 QCURVE SMOOTH",
"683 86 OFFCURVE",
"674 27 OFFCURVE",
"680 -8 OFFCURVE",
"688 -8 QCURVE",
"762 0 OFFCURVE",
"1071 0 OFFCURVE",
"1149 -8 QCURVE",
"1161 -8 OFFCURVE",
"1170 47 OFFCURVE",
"1164 86 OFFCURVE",
"1156 86 QCURVE SMOOTH",
"1028 86 OFFCURVE",
"1013 172 QCURVE SMOOTH",
"1012 189 OFFCURVE",
"1011 203 QCURVE SMOOTH"
);
},
{
closed = 1;
nodes = (
"780 606 OFFCURVE",
"742 606 QCURVE SMOOTH",
"539 606 LINE SMOOTH",
"521 606 OFFCURVE",
"515 629 OFFCURVE",
"521 637 QCURVE",
"730 1065 LINE SMOOTH",
"736 1077 OFFCURVE",
"744 1077 QCURVE SMOOTH",
"751 1077 OFFCURVE",
"752 1063 QCURVE SMOOTH",
"777 649 LINE SMOOTH"
);
}
);
};
layerId = "2899D53B-47B8-4BF9-853D-5BC6961E25E7";
paths = (
{
closed = 1;
nodes = (
"848 531 LINE",
"833 600 LINE",
"418 600 LINE",
"408 531 LINE"
);
},
{
closed = 1;
nodes = (
"780 1168 LINE",
"746 1168 LINE",
"803 186 LINE SMOOTH",
"807 111 OFFCURVE",
"788 69 OFFCURVE",
"680 69 CURVE",
"680 0 LINE",
"1177 0 LINE",
"1177 69 LINE",
"1080 69 OFFCURVE",
"1018 98 OFFCURVE",
"1013 186 CURVE SMOOTH",
"956 1179 LINE SMOOTH",
"953 1224 OFFCURVE",
"953 1316 OFFCURVE",
"953 1367 CURVE",
"926 1385 LINE",
"852 1345 OFFCURVE",
"754 1307 OFFCURVE",
"672 1284 CURVE",
"674 1243 LINE",
"684 1237 OFFCURVE",
"690 1222 OFFCURVE",
"690 1209 CURVE",
"186 201 LINE SMOOTH",
"127 83 OFFCURVE",
"75 69 OFFCURVE",
"-27 69 CURVE",
"-27 -1 LINE",
"433 -1 LINE",
"433 69 LINE",
"327 69 OFFCURVE",
"261 93 OFFCURVE",
"304 182 CURVE SMOOTH"
);
}
);
userData = {
assembly = "NPUSHB[ ]\011/* 15 values pushed */
62 1 8 7 0 1 0 3 2 76 36 11 2 1 73 
MPPEM[ ]\011/* MeasurePixelPerEm */
PUSHB[ ]\011/* 1 value pushed */
37 
LT[ ]\011/* LessThan */
IF[ ]\011/* If */
NPUSHB[ ]\011/* 28 values pushed */
0 8 0 3 0 8 3 103 0 7 7 37 77 6 4 2 3 0 0 1 97 5 1 1 1 32 1 78 
ELSE[ ]\011/* Else */
MPPEM[ ]\011/* MeasurePixelPerEm */
PUSHB[ ]\011/* 1 value pushed */
59 
LT[ ]\011/* LessThan */
IF[ ]\011/* If */
NPUSHB[ ]\011/* 25 values pushed */
0 8 0 3 0 8 3 103 6 4 2 3 0 5 1 1 0 1 101 0 7 7 37 7 78 
ELSE[ ]\011/* Else */
NPUSHB[ ]\011/* 36 values pushed */
0 7 8 7 133 0 8 0 3 0 8 3 103 6 4 2 3 0 1 1 0 89 6 4 2 3 0 0 1 97 5 1 1 0 1 81 
EIF[ ]\011/* EndIf */
EIF[ ]\011/* EndIf */
NPUSHB[ ]\011/* 12 values pushed */
61 43 36 21 21 52 36 21 19 9 8 31 
CALL[ ]\011/* CallFunction */";
};
width = 1278;
}
);
leftKerningGroup = A;
note = A;
rightKerningGroup = A;
unicode = 0041;
},
{
glyphname = AE;
lastChange = "2018-08-17 18:04:21 +0000";
layers = (
{
anchors = (
{
name = bottom;
position = "{798, 0}";
},
{
name = top;
position = "{1398, 1363}";
}
);
background = {
paths = (
{
closed = 1;
nodes = (
"1941 344 LINE SMOOTH",
"1945 361 OFFCURVE",
"1864 363 OFFCURVE",
"1859 344 CURVE",
"1823 166 OFFCURVE",
"1721 74 OFFCURVE",
"1554 69 CURVE SMOOTH",
"1326 62 LINE",
"1314 62 LINE SMOOTH",
"1238 62 OFFCURVE",
"1198 95 OFFCURVE",
"1192 161 CURVE SMOOTH",
"1189 191 OFFCURVE",
"1194 237 OFFCURVE",
"1207 300 CURVE SMOOTH",
"1263 583 LINE SMOOTH",
"1266 599 OFFCURVE",
"1277 607 OFFCURVE",
"1295 607 CURVE SMOOTH",
"1515 607 LINE SMOOTH",
"1576 607 OFFCURVE",
"1607 596 OFFCURVE",
"1609 575 CURVE SMOOTH",
"1609 570 OFFCURVE",
"1607 554 OFFCURVE",
"1602 527 CURVE SMOOTH",
"1584 433 LINE SMOOTH",
"1583 425 OFFCURVE",
"1594 421 OFFCURVE",
"1616 421 CURVE SMOOTH",
"1639 421 OFFCURVE",
"1651 426 OFFCURVE",
"1652 436 CURVE SMOOTH",
"1667 557 OFFCURVE",
"1695 699 OFFCURVE",
"1738 864 CURVE",
"1739 874 OFFCURVE",
"1727 879 OFFCURVE",
"1703 879 CURVE SMOOTH",
"1679 879 OFFCURVE",
"1666 874 OFFCURVE",
"1665 864 CURVE SMOOTH",
"1646 764 LINE SMOOTH",
"1632 684 OFFCURVE",
"1615 676 OFFCURVE",
"1530 676 CURVE SMOOTH",
"1309 676 LINE SMOOTH",
"1295 676 OFFCURVE",
"1288 681 OFFCURVE",
"1287 690 CURVE SMOOTH",
"1286 695 OFFCURVE",
"1287 701 OFFCURVE",
"1288 708 CURVE SMOOTH",
"1399 1267 LINE SMOOTH",
"1402 1282 OFFCURVE",
"1410 1289 OFFCURVE",
"1424 1289 CURVE SMOOTH",
"1702 1283 LINE SMOOTH",
"1835 1280 OFFCURVE",
"1906 1225 OFFCURVE",
"1915 1117 CURVE SMOOTH",
"1918 1091 OFFCURVE",
"1915 1054 OFFCURVE",
"1907 1006 CURVE SMOOTH",
"1905 997 OFFCURVE",
"1918 992 OFFCURVE",
"1945 992 CURVE SMOOTH",
"1973 992 OFFCURVE",
"1987 997 OFFCURVE",
"1989 1006 CURVE SMOOTH",
"2054 1325 LINE SMOOTH",
"2055 1330 OFFCURVE",
"2055 1334 OFFCURVE",
"2055 1338 CURVE SMOOTH",
"2054 1351 OFFCURVE",
"2033 1358 OFFCURVE",
"1991 1358 CURVE SMOOTH",
"1740 1355 OFFCURVE",
"1524 1354 OFFCURVE",
"1343 1354 CURVE SMOOTH",
"1270 1354 OFFCURVE",
"1182 1355 OFFCURVE",
"1078 1358 CURVE SMOOTH",
"1058 1358 OFFCURVE",
"1041 1282 OFFCURVE",
"1065 1282 CURVE SMOOTH",
"1114 1282 OFFCURVE",
"1140 1273 OFFCURVE",
"1141 1254 CURVE SMOOTH",
"1142 1241 OFFCURVE",
"1133 1222 OFFCURVE",
"1113 1196 CURVE SMOOTH",
"349 195 LINE SMOOTH",
"271 94 OFFCURVE",
"244 69 OFFCURVE",
"133 69 CURVE SMOOTH",
"114 69 OFFCURVE",
"98 -7 OFFCURVE",
"119 -7 CURVE",
"181 -2 OFFCURVE",
"252 0 OFFCURVE",
"332 0 CURVE SMOOTH",
"412 0 OFFCURVE",
"481 -2 OFFCURVE",
"540 -7 CURVE",
"558 -7 OFFCURVE",
"574 69 OFFCURVE",
"553 69 CURVE SMOOTH",
"447 69 OFFCURVE",
"403 120 OFFCURVE",
"436 168 CURVE SMOOTH",
"731 590 LINE SMOOTH",
"739 601 OFFCURVE",
"751 607 OFFCURVE",
"768 607 CURVE SMOOTH",
"1096 607 LINE SMOOTH",
"1111 607 OFFCURVE",
"1119 603 OFFCURVE",
"1120 595 CURVE SMOOTH",
"1121 589 OFFCURVE",
"1120 581 OFFCURVE",
"1117 570 CURVE SMOOTH",
"1039 177 LINE SMOOTH",
"1020 86 OFFCURVE",
"974 69 OFFCURVE",
"846 69 CURVE SMOOTH",
"828 69 OFFCURVE",
"813 -7 OFFCURVE",
"833 -7 CURVE",
"909 -2 OFFCURVE",
"997 0 OFFCURVE",
"1097 0 CURVE SMOOTH",
"1277 0 OFFCURVE",
"1503 -2 OFFCURVE",
"1775 -7 CURVE SMOOTH",
"1850 -7 LINE SMOOTH",
"1863 -7 OFFCURVE",
"1872 2 OFFCURVE",
"1875 19 CURVE SMOOTH"
);
},
{
closed = 1;
nodes = (
"1141 684 OFFCURVE",
"1131 676 OFFCURVE",
"1114 676 CURVE SMOOTH",
"827 676 LINE",
"808 675 OFFCURVE",
"809 687 OFFCURVE",
"817 698 CURVE SMOOTH",
"1197 1203 LINE SMOOTH",
"1227 1243 OFFCURVE",
"1250 1232 OFFCURVE",
"1241 1196 CURVE",
"1144 700 LINE SMOOTH"
);
}
);
};
layerId = "98F9B6AB-A1D0-4874-9186-59FDE6DAF116";
paths = (
{
closed = 1;
nodes = (
"421 0 LINE",
"421 69 LINE",
"318 69 OFFCURVE",
"272 90 OFFCURVE",
"272 131 CURVE SMOOTH",
"272 138 OFFCURVE",
"274 162 OFFCURVE",
"289 182 CURVE SMOOTH",
"597 612 LINE",
"961 612 LINE",
"883 166 LINE SMOOTH",
"870 94 OFFCURVE",
"802 58 OFFCURVE",
"667 58 CURVE",
"667 0 LINE",
"1690 0 LINE",
"1751 342 LINE",
"1686 342 LINE",
"1676 290 OFFCURVE",
"1665 254 OFFCURVE",
"1649 222 CURVE SMOOTH",
"1599 119 OFFCURVE",
"1510 65 OFFCURVE",
"1377 61 CURVE SMOOTH",
"1141 54 LINE",
"1059 54 OFFCURVE",
"1015 114 OFFCURVE",
"1015 199 CURVE SMOOTH",
"1015 216 OFFCURVE",
"1016 234 OFFCURVE",
"1020 254 CURVE SMOOTH",
"1083 612 LINE",
"1317 612 LINE SMOOTH",
"1418 612 OFFCURVE",
"1427 577 OFFCURVE",
"1417 517 CURVE SMOOTH",
"1401 425 LINE",
"1460 425 LINE",
"1539 872 LINE",
"1480 872 LINE",
"1465 788 LINE SMOOTH",
"1451 709 OFFCURVE",
"1432 671 OFFCURVE",
"1328 671 CURVE SMOOTH",
"1094 671 LINE",
"1204 1297 LINE",
"1528 1290 LINE SMOOTH",
"1669 1287 OFFCURVE",
"1745 1224 OFFCURVE",
"1745 1096 CURVE SMOOTH",
"1745 1070 OFFCURVE",
"1742 1041 OFFCURVE",
"1736 1008 CURVE",
"1801 1008 LINE",
"1863 1358 LINE",
"871 1358 LINE",
"871 1300 LINE",
"933 1300 OFFCURVE",
"955 1293 OFFCURVE",
"979 1264 CURVE",
"205 201 LINE SMOOTH",
"130 99 OFFCURVE",
"108 69 OFFCURVE",
"-24 69 CURVE",
"-24 0 LINE"
);
},
{
closed = 1;
nodes = (
"1046 1237 LINE",
"1071 1237 LINE",
"972 671 LINE",
"640 671 LINE"
);
}
);
userData = {
assembly = "NPUSHB[ ]\011/* 10 values pushed */
56 1 6 7 1 76 34 1 0 73 
MPPEM[ ]\011/* MeasurePixelPerEm */
PUSHB[ ]\011/* 1 value pushed */
45 
LT[ ]\011/* LessThan */
IF[ ]\011/* If */
NPUSHB[ ]\011/* 43 values pushed */
0 12 6 9 6 12 114 13 1 9 10 1 2 1 9 2 103 8 1 6 6 7 95 0 7 7 92 77 11 5 3 3 1 1 0 97 4 1 0 0 93 0 78 
ELSE[ ]\011/* Else */
MPPEM[ ]\011/* MeasurePixelPerEm */
PUSHB[ ]\011/* 1 value pushed */
47 
LT[ ]\011/* LessThan */
IF[ ]\011/* If */
NPUSHB[ ]\011/* 40 values pushed */
0 12 6 9 6 12 114 13 1 9 10 1 2 1 9 2 103 11 5 3 3 1 4 1 0 1 0 101 8 1 6 6 7 95 0 7 7 92 6 78 
ELSE[ ]\011/* Else */
MPPEM[ ]\011/* MeasurePixelPerEm */
PUSHB[ ]\011/* 1 value pushed */
57 
LT[ ]\011/* LessThan */
IF[ ]\011/* If */
NPUSHB[ ]\011/* 41 values pushed */
0 12 6 9 6 12 9 128 13 1 9 10 1 2 1 9 2 103 11 5 3 3 1 4 1 0 1 0 101 8 1 6 6 7 95 0 7 7 92 6 78 
ELSE[ ]\011/* Else */
MPPEM[ ]\011/* MeasurePixelPerEm */
PUSHB[ ]\011/* 1 value pushed */
114 
LT[ ]\011/* LessThan */
IF[ ]\011/* If */
NPUSHB[ ]\011/* 50 values pushed */
0 12 6 9 6 12 9 128 0 7 8 1 6 12 7 6 105 13 1 9 10 1 2 1 9 2 103 11 5 3 3 1 0 0 1 89 11 5 3 3 1 1 0 97 4 1 0 1 0 81 
ELSE[ ]\011/* Else */
NPUSHB[ ]\011/* 51 values pushed */
0 12 6 9 6 12 9 128 0 7 8 1 6 12 7 6 105 13 1 9 10 1 2 1 9 2 103 11 5 3 3 1 0 4 0 1 4 105 11 5 3 3 1 1 0 95 0 0 1 0 79 
EIF[ ]\011/* EndIf */
EIF[ ]\011/* EndIf */
EIF[ ]\011/* EndIf */
EIF[ ]\011/* EndIf */
NPUSHB[ ]\011/* 22 values pushed */
119 116 112 111 103 99 94 91 76 74 58 99 22 36 21 21 54 35 97 14 12 31 
CALL[ ]\011/* CallFunction */";
};
width = 1745;
},
{
anchors = (
{
name = bottom;
position = "{1007, 0}";
},
{
name = top;
position = "{1477, 1363}";
}
);
background = {
paths = (
{
closed = 1;
nodes = (
"449 0 LINE",
"449 69 LINE",
"346 69 OFFCURVE",
"300 90 OFFCURVE",
"300 131 CURVE SMOOTH",
"300 137 OFFCURVE",
"302 162 OFFCURVE",
"317 182 CURVE SMOOTH",
"628 594 LINE",
"1005 594 LINE",
"936 203 LINE SMOOTH",
"922 125 OFFCURVE",
"860 86 OFFCURVE",
"737 86 CURVE",
"737 0 LINE",
"1848 0 LINE",
"1911 354 LINE",
"1808 354 LINE",
"1798 299 OFFCURVE",
"1784 260 OFFCURVE",
"1767 227 CURVE SMOOTH",
"1720 137 OFFCURVE",
"1643 92 OFFCURVE",
"1538 90 CURVE SMOOTH",
"1314 86 LINE",
"1247 86 OFFCURVE",
"1180 126 OFFCURVE",
"1180 196 CURVE SMOOTH",
"1180 204 OFFCURVE",
"1180 212 OFFCURVE",
"1182 221 CURVE SMOOTH",
"1248 594 LINE",
"1412 594 LINE SMOOTH",
"1518 594 OFFCURVE",
"1526 547 OFFCURVE",
"1519 506 CURVE SMOOTH",
"1504 417 LINE",
"1605 417 LINE",
"1687 881 LINE",
"1586 881 LINE",
"1567 778 LINE SMOOTH",
"1557 717 OFFCURVE",
"1510 686 OFFCURVE",
"1428 686 CURVE SMOOTH",
"1264 686 LINE",
"1367 1266 LINE",
"1689 1255 LINE SMOOTH",
"1783 1253 OFFCURVE",
"1871 1169 OFFCURVE",
"1871 1052 CURVE SMOOTH",
"1871 1033 OFFCURVE",
"1869 1013 OFFCURVE",
"1865 991 CURVE",
"1965 991 LINE",
"2030 1358 LINE",
"829 1358 LINE",
"829 1272 LINE",
"906 1272 OFFCURVE",
"953 1271 OFFCURVE",
"988 1237 CURVE",
"195 201 LINE SMOOTH",
"118 101 OFFCURVE",
"93 69 OFFCURVE",
"-34 69 CURVE",
"-34 0 LINE"
);
},
{
closed = 1;
nodes = (
"1090 1206 LINE",
"1113 1206 LINE",
"1021 686 LINE",
"697 686 LINE"
);
}
);
};
layerId = "2899D53B-47B8-4BF9-853D-5BC6961E25E7";
paths = (
{
closed = 1;
nodes = (
"462 0 LINE",
"462 86 LINE",
"359 86 OFFCURVE",
"313 107 OFFCURVE",
"313 148 CURVE SMOOTH",
"313 154 OFFCURVE",
"315 179 OFFCURVE",
"330 199 CURVE SMOOTH",
"628 594 LINE",
"1005 594 LINE",
"936 203 LINE SMOOTH",
"922 125 OFFCURVE",
"860 86 OFFCURVE",
"737 86 CURVE",
"737 0 LINE",
"1848 0 LINE",
"1911 354 LINE",
"1808 354 LINE",
"1798 299 OFFCURVE",
"1784 260 OFFCURVE",
"1767 227 CURVE SMOOTH",
"1720 137 OFFCURVE",
"1643 92 OFFCURVE",
"1538 90 CURVE SMOOTH",
"1314 86 LINE",
"1247 86 OFFCURVE",
"1180 126 OFFCURVE",
"1180 196 CURVE SMOOTH",
"1180 204 OFFCURVE",
"1180 212 OFFCURVE",
"1182 221 CURVE SMOOTH",
"1248 594 LINE",
"1412 594 LINE SMOOTH",
"1518 594 OFFCURVE",
"1526 547 OFFCURVE",
"1519 506 CURVE SMOOTH",
"1504 417 LINE",
"1605 417 LINE",
"1687 881 LINE",
"1586 881 LINE",
"1567 778 LINE SMOOTH",
"1557 717 OFFCURVE",
"1510 686 OFFCURVE",
"1428 686 CURVE SMOOTH",
"1264 686 LINE",
"1367 1266 LINE",
"1689 1255 LINE SMOOTH",
"1783 1253 OFFCURVE",
"1871 1169 OFFCURVE",
"1871 1052 CURVE SMOOTH",
"1871 1033 OFFCURVE",
"1869 1013 OFFCURVE",
"1865 991 CURVE",
"1965 991 LINE",
"2030 1358 LINE",
"829 1358 LINE",
"829 1272 LINE",
"906 1272 OFFCURVE",
"953 1271 OFFCURVE",
"988 1237 CURVE",
"208 218 LINE SMOOTH",
"132 119 OFFCURVE",
"106 86 OFFCURVE",
"-21 86 CURVE",
"-21 0 LINE"
);
},
{
closed = 1;
nodes = (
"1090 1206 LINE",
"1113 1206 LINE",
"1021 686 LINE",
"697 686 LINE"
);
}
);
userData = {
assembly = "NPUSHB[ ]\011/* 10 values pushed */
14 1 0 1 1 76 96 1 10 73 
MPPEM[ ]\011/* MeasurePixelPerEm */
PUSHB[ ]\011/* 1 value pushed */
23 
LT[ ]\011/* LessThan */
IF[ ]\011/* If */
NPUSHB[ ]\011/* 70 values pushed */
0 17 0 2 0 17 114 0 2 5 0 2 5 126 0 6 7 9 7 6 9 128 0 9 8 7 9 8 126 16 1 4 12 1 7 6 4 7 103 3 1 0 0 1 95 0 1 1 31 77 0 5 5 34 77 15 13 11 3 8 8 10 98 14 1 10 10 32 10 78 
ELSE[ ]\011/* Else */
MPPEM[ ]\011/* MeasurePixelPerEm */
PUSHB[ ]\011/* 1 value pushed */
40 
LT[ ]\011/* LessThan */
IF[ ]\011/* If */
NPUSHB[ ]\011/* 72 values pushed */
0 17 0 2 0 17 114 0 2 5 0 2 5 126 0 5 4 0 5 4 126 0 6 7 9 7 6 9 128 0 9 8 7 9 8 126 16 1 4 12 1 7 6 4 7 103 3 1 0 0 1 95 0 1 1 31 77 15 13 11 3 8 8 10 98 14 1 10 10 32 10 78 
ELSE[ ]\011/* Else */
MPPEM[ ]\011/* MeasurePixelPerEm */
PUSHB[ ]\011/* 1 value pushed */
45 
LT[ ]\011/* LessThan */
IF[ ]\011/* If */
NPUSHB[ ]\011/* 73 values pushed */
0 17 0 2 0 17 2 128 0 2 5 0 2 5 126 0 5 4 0 5 4 126 0 6 7 9 7 6 9 128 0 9 8 7 9 8 126 16 1 4 12 1 7 6 4 7 103 3 1 0 0 1 95 0 1 1 31 77 15 13 11 3 8 8 10 98 14 1 10 10 32 10 78 
ELSE[ ]\011/* Else */
MPPEM[ ]\011/* MeasurePixelPerEm */
PUSHB[ ]\011/* 1 value pushed */
59 
LT[ ]\011/* LessThan */
IF[ ]\011/* If */
NPUSHB[ ]\011/* 70 values pushed */
0 17 0 2 0 17 2 128 0 2 5 0 2 5 126 0 5 4 0 5 4 126 0 6 7 9 7 6 9 128 0 9 8 7 9 8 126 16 1 4 12 1 7 6 4 7 103 15 13 11 3 8 14 1 10 8 10 102 3 1 0 0 1 95 0 1 1 31 0 78 
ELSE[ ]\011/* Else */
MPPEM[ ]\011/* MeasurePixelPerEm */
PUSHB[ ]\011/* 1 value pushed */
98 
LT[ ]\011/* LessThan */
IF[ ]\011/* If */
NPUSHB[ ]\011/* 79 values pushed */
0 17 0 2 0 17 2 128 0 2 5 0 2 5 126 0 5 4 0 5 4 126 0 6 7 9 7 6 9 128 0 9 8 7 9 8 126 0 1 3 1 0 17 1 0 105 16 1 4 12 1 7 6 4 7 103 15 13 11 3 8 10 10 8 89 15 13 11 3 8 8 10 98 14 1 10 8 10 82 
ELSE[ ]\011/* Else */
MPPEM[ ]\011/* MeasurePixelPerEm */
PUSHB[ ]\011/* 1 value pushed */
114 
LT[ ]\011/* LessThan */
IF[ ]\011/* If */
NPUSHB[ ]\011/* 77 values pushed */
0 17 0 2 0 17 2 128 0 2 5 0 2 5 126 0 5 4 0 5 4 126 0 6 7 9 7 6 9 128 0 9 11 7 9 11 126 0 1 3 1 0 17 1 0 105 16 1 4 12 1 7 6 4 7 103 15 13 2 11 10 10 11 89 15 13 2 11 11 10 97 14 1 10 11 10 81 
ELSE[ ]\011/* Else */
NPUSHB[ ]\011/* 81 values pushed */
0 17 0 2 0 17 2 128 0 2 5 0 2 5 126 0 5 4 0 5 4 126 0 6 7 9 7 6 9 128 0 9 11 7 9 11 126 0 10 14 10 134 0 1 3 1 0 17 1 0 105 16 1 4 12 1 7 6 4 7 103 15 13 2 11 14 14 11 89 15 13 2 11 11 14 97 0 14 11 14 81 
EIF[ ]\011/* EndIf */
EIF[ ]\011/* EndIf */
EIF[ ]\011/* EndIf */
EIF[ ]\011/* EndIf */
EIF[ ]\011/* EndIf */
EIF[ ]\011/* EndIf */
NPUSHB[ ]\011/* 30 values pushed */
114 112 109 106 101 99 95 93 89 88 82 80 76 74 72 67 63 62 53 52 21 19 51 54 22 98 20 18 8 31 
CALL[ ]\011/* CallFunction */";
};
width = 1903;
}
);
leftKerningGroup = AE;
note = AE;
rightKerningGroup = AE;
unicode = 00C6;
},
{
glyphname = Aring;
lastChange = "2018-08-17 18:10:56 +0000";
layers = (
{
background = {
paths = (
{
closed = 1;
nodes = (
"965 1179 LINE SMOOTH",
"967 1222 OFFCURVE",
"970 1273 OFFCURVE",
"975 1332 CURVE",
"1061 1344 OFFCURVE",
"1127 1420 OFFCURVE",
"1120 1500 CURVE SMOOTH",
"1116 1556 OFFCURVE",
"1095 1602 OFFCURVE",
"1057 1638 CURVE SMOOTH",
"1020 1674 OFFCURVE",
"974 1692 OFFCURVE",
"918 1692 CURVE SMOOTH",
"803 1692 OFFCURVE",
"729 1607 OFFCURVE",
"737 1512 CURVE SMOOTH",
"743 1445 OFFCURVE",
"776 1394 OFFCURVE",
"837 1359 CURVE",
"156 201 LINE SMOOTH",
"86 84 OFFCURVE",
"33 69 OFFCURVE",
"-68 69 CURVE SMOOTH",
"-87 69 OFFCURVE",
"-102 -7 OFFCURVE",
"-82 -7 CURVE",
"-25 -2 OFFCURVE",
"46 0 OFFCURVE",
"131 0 CURVE SMOOTH",
"215 0 OFFCURVE",
"287 -2 OFFCURVE",
"344 -7 CURVE",
"362 -7 OFFCURVE",
"379 69 OFFCURVE",
"359 69 CURVE SMOOTH",
"271 69 OFFCURVE",
"225 87 OFFCURVE",
"222 124 CURVE SMOOTH",
"221 139 OFFCURVE",
"226 159 OFFCURVE",
"240 182 CURVE SMOOTH",
"421 506 LINE SMOOTH",
"431 523 OFFCURVE",
"447 531 OFFCURVE",
"467 531 CURVE SMOOTH",
"777 531 LINE SMOOTH",
"799 531 OFFCURVE",
"809 519 OFFCURVE",
"808 496 CURVE SMOOTH",
"798 186 LINE SMOOTH",
"796 106 OFFCURVE",
"766 69 OFFCURVE",
"665 69 CURVE SMOOTH",
"646 69 OFFCURVE",
"629 -7 OFFCURVE",
"649 -7 CURVE",
"707 -2 OFFCURVE",
"777 0 OFFCURVE",
"861 0 CURVE SMOOTH",
"944 0 OFFCURVE",
"1015 -2 OFFCURVE",
"1074 -7 CURVE",
"1096 -7 OFFCURVE",
"1108 69 OFFCURVE",
"1088 69 CURVE SMOOTH",
"992 69 OFFCURVE",
"941 101 OFFCURVE",
"935 165 CURVE SMOOTH",
"934 174 OFFCURVE",
"934 181 OFFCURVE",
"934 186 CURVE SMOOTH"
);
},
{
closed = 1;
nodes = (
"1050 1630 OFFCURVE",
"1077 1393 OFFCURVE",
"939 1393 CURVE SMOOTH",
"886 1393 OFFCURVE",
"834 1440 OFFCURVE",
"827 1512 CURVE SMOOTH",
"822 1575 OFFCURVE",
"855 1630 OFFCURVE",
"918 1630 CURVE SMOOTH"
);
},
{
closed = 1;
nodes = (
"810 610 OFFCURVE",
"799 600 OFFCURVE",
"778 600 CURVE SMOOTH",
"503 600 LINE SMOOTH",
"483 600 OFFCURVE",
"479 610 OFFCURVE",
"490 629 CURVE SMOOTH",
"796 1159 LINE SMOOTH",
"800 1165 OFFCURVE",
"806 1168 OFFCURVE",
"814 1168 CURVE SMOOTH",
"822 1168 OFFCURVE",
"826 1165 OFFCURVE",
"826 1159 CURVE",
"811 629 LINE SMOOTH"
);
}
);
};
layerId = "98F9B6AB-A1D0-4874-9186-59FDE6DAF116";
paths = (
{
closed = 1;
nodes = (
"848 531 LINE",
"833 600 LINE",
"418 600 LINE",
"408 531 LINE"
);
},
{
closed = 1;
nodes = (
"747 1168 LINE",
"772 1168 LINE",
"829 186 LINE SMOOTH",
"833 111 OFFCURVE",
"814 69 OFFCURVE",
"706 69 CURVE",
"706 0 LINE",
"1129 0 LINE",
"1129 69 LINE",
"1032 69 OFFCURVE",
"970 98 OFFCURVE",
"965 186 CURVE SMOOTH",
"901 1295 LINE",
"720 1270 LINE",
"186 201 LINE SMOOTH",
"127 83 OFFCURVE",
"75 69 OFFCURVE",
"-27 69 CURVE",
"-27 -1 LINE",
"400 -1 LINE",
"400 69 LINE",
"294 69 OFFCURVE",
"228 93 OFFCURVE",
"271 182 CURVE SMOOTH"
);
},
{
closed = 1;
nodes = (
"921 1255 OFFCURVE",
"1040 1377 OFFCURVE",
"1040 1499 CURVE SMOOTH",
"1040 1545 OFFCURVE",
"1011 1644 OFFCURVE",
"864 1644 CURVE SMOOTH",
"734 1644 OFFCURVE",
"621 1541 OFFCURVE",
"621 1417 CURVE SMOOTH",
"621 1323 OFFCURVE",
"687 1255 OFFCURVE",
"794 1255 CURVE SMOOTH"
);
},
{
closed = 1;
nodes = (
"752 1323 OFFCURVE",
"717 1363 OFFCURVE",
"717 1422 CURVE SMOOTH",
"717 1497 OFFCURVE",
"774 1577 OFFCURVE",
"852 1577 CURVE SMOOTH",
"907 1577 OFFCURVE",
"941 1539 OFFCURVE",
"941 1481 CURVE SMOOTH",
"941 1404 OFFCURVE",
"885 1323 OFFCURVE",
"806 1323 CURVE SMOOTH"
);
}
);
userData = {
assembly = "NPUSHB[ ]\011/* 16 values pushed */
71 44 2 10 9 0 1 0 3 2 76 36 11 2 1 73 
MPPEM[ ]\011/* MeasurePixelPerEm */
PUSHB[ ]\011/* 1 value pushed */
37 
LT[ ]\011/* LessThan */
IF[ ]\011/* If */
NPUSHB[ ]\011/* 37 values pushed */
0 7 11 1 8 9 7 8 105 0 10 0 3 0 10 3 103 0 9 9 98 77 6 4 2 3 0 0 1 97 5 1 1 1 93 1 78 
ELSE[ ]\011/* Else */
MPPEM[ ]\011/* MeasurePixelPerEm */
PUSHB[ ]\011/* 1 value pushed */
57 
LT[ ]\011/* LessThan */
IF[ ]\011/* If */
NPUSHB[ ]\011/* 34 values pushed */
0 7 11 1 8 9 7 8 105 0 10 0 3 0 10 3 103 6 4 2 3 0 5 1 1 0 1 101 0 9 9 98 9 78 
ELSE[ ]\011/* Else */
NPUSHB[ ]\011/* 48 values pushed */
0 9 8 10 8 9 10 128 0 7 11 1 8 9 7 8 105 0 10 0 3 0 10 3 103 6 4 2 3 0 1 1 0 89 6 4 2 3 0 0 1 97 5 1 1 0 1 81 
EIF[ ]\011/* EndIf */
EIF[ ]\011/* EndIf */
NPUSHB[ ]\011/* 21 values pushed */
60 59 79 76 66 64 59 69 60 69 39 36 21 21 52 36 21 19 12 12 30 
CALL[ ]\011/* CallFunction */";
};
width = 1230;
},
{
background = {
paths = (
{
closed = 1;
nodes = (
"1126 1604 OFFCURVE",
"988 1729 OFFCURVE",
"783 1729 OFFCURVE",
"667 1604 OFFCURVE",
"674 1520 QCURVE SMOOTH",
"685 1400 OFFCURVE",
"796 1341 QCURVE",
"141 217 LINE SMOOTH",
"112 170 OFFCURVE",
"58 113 OFFCURVE",
"-8 92 OFFCURVE",
"-50 86 OFFCURVE",
"-93 86 QCURVE SMOOTH",
"-109 86 OFFCURVE",
"-120 -8 OFFCURVE",
"-108 -8 QCURVE",
"-30 0 OFFCURVE",
"117 0 QCURVE SMOOTH",
"276 0 OFFCURVE",
"353 -8 QCURVE",
"370 -8 OFFCURVE",
"380 86 OFFCURVE",
"366 86 QCURVE SMOOTH",
"341 86 OFFCURVE",
"306 88 OFFCURVE",
"260 100 OFFCURVE",
"241 125 OFFCURVE",
"242 168 OFFCURVE",
"259 201 QCURVE SMOOTH",
"422 496 LINE SMOOTH",
"436 522 OFFCURVE",
"467 522 QCURVE SMOOTH",
"715 522 LINE",
"753 524 OFFCURVE",
"755 485 QCURVE",
"743 203 LINE SMOOTH",
"739 129 OFFCURVE",
"687 86 OFFCURVE",
"626 86 QCURVE SMOOTH",
"614 86 OFFCURVE",
"599 -8 OFFCURVE",
"613 -8 QCURVE",
"690 0 OFFCURVE",
"850 0 QCURVE SMOOTH",
"997 0 OFFCURVE",
"1074 -8 QCURVE",
"1091 -8 OFFCURVE",
"1103 86 OFFCURVE",
"1089 86 QCURVE SMOOTH",
"1019 86 OFFCURVE",
"954 133 OFFCURVE",
"954 203 QCURVE",
"993 1321 LINE",
"1065 1339 OFFCURVE",
"1139 1452 OFFCURVE",
"1133 1520 QCURVE SMOOTH"
);
},
{
closed = 1;
nodes = (
"939 1651 OFFCURVE",
"999 1575 OFFCURVE",
"1009 1462 OFFCURVE",
"962 1386 OFFCURVE",
"866 1386 OFFCURVE",
"808 1462 OFFCURVE",
"798 1575 OFFCURVE",
"845 1651 OFFCURVE",
"892 1653 QCURVE"
);
},
{
closed = 1;
nodes = (
"761 649 LINE SMOOTH",
"760 606 OFFCURVE",
"721 606 QCURVE SMOOTH",
"518 606 LINE SMOOTH",
"506 606 OFFCURVE",
"496 627 OFFCURVE",
"503 639 QCURVE SMOOTH",
"749 1065 LINE SMOOTH",
"758 1079 OFFCURVE",
"772 1075 OFFCURVE",
"771 1063 QCURVE"
);
}
);
};
layerId = "2899D53B-47B8-4BF9-853D-5BC6961E25E7";
paths = (
{
closed = 1;
nodes = (
"848 531 LINE",
"833 600 LINE",
"418 600 LINE",
"408 531 LINE"
);
},
{
closed = 1;
nodes = (
"780 1168 LINE",
"746 1168 LINE",
"803 186 LINE SMOOTH",
"807 111 OFFCURVE",
"788 69 OFFCURVE",
"680 69 CURVE",
"680 0 LINE",
"1177 0 LINE",
"1177 69 LINE",
"1080 69 OFFCURVE",
"1018 98 OFFCURVE",
"1013 186 CURVE SMOOTH",
"949 1300 LINE",
"729 1287 LINE",
"186 201 LINE SMOOTH",
"127 83 OFFCURVE",
"75 69 OFFCURVE",
"-27 69 CURVE",
"-27 -1 LINE",
"433 -1 LINE",
"433 69 LINE",
"327 69 OFFCURVE",
"261 93 OFFCURVE",
"304 182 CURVE SMOOTH"
);
},
{
closed = 1;
nodes = (
"966 1253 OFFCURVE",
"1098 1371 OFFCURVE",
"1098 1522 CURVE SMOOTH",
"1098 1576 OFFCURVE",
"1068 1701 OFFCURVE",
"914 1701 CURVE SMOOTH",
"747 1701 OFFCURVE",
"618 1588 OFFCURVE",
"618 1436 CURVE SMOOTH",
"618 1370 OFFCURVE",
"647 1253 OFFCURVE",
"816 1253 CURVE SMOOTH"
);
},
{
closed = 1;
nodes = (
"798 1339 OFFCURVE",
"761 1394 OFFCURVE",
"761 1460 CURVE SMOOTH",
"761 1538 OFFCURVE",
"807 1622 OFFCURVE",
"879 1622 CURVE SMOOTH",
"960 1622 OFFCURVE",
"963 1542 OFFCURVE",
"963 1508 CURVE SMOOTH",
"963 1439 OFFCURVE",
"917 1339 OFFCURVE",
"840 1339 CURVE SMOOTH"
);
}
);
userData = {
assembly = "NPUSHB[ ]\011/* 15 values pushed */
49 1 10 9 21 1 0 3 2 76 40 14 2 1 73 
MPPEM[ ]\011/* MeasurePixelPerEm */
PUSHB[ ]\011/* 1 value pushed */
37 
LT[ ]\011/* LessThan */
IF[ ]\011/* If */
NPUSHB[ ]\011/* 40 values pushed */
6 4 2 3 0 3 1 3 0 1 128 0 7 11 1 8 9 7 8 105 0 10 0 3 0 10 3 103 0 9 9 37 77 5 1 1 1 32 1 78 
ELSE[ ]\011/* Else */
MPPEM[ ]\011/* MeasurePixelPerEm */
PUSHB[ ]\011/* 1 value pushed */
59 
LT[ ]\011/* LessThan */
IF[ ]\011/* If */
NPUSHB[ ]\011/* 39 values pushed */
6 4 2 3 0 3 1 3 0 1 128 5 1 1 1 132 0 7 11 1 8 9 7 8 105 0 10 0 3 0 10 3 103 0 9 9 37 9 78 
ELSE[ ]\011/* Else */
NPUSHB[ ]\011/* 49 values pushed */
0 9 8 10 8 9 10 128 6 4 2 3 0 3 1 3 0 1 128 5 1 1 1 132 0 7 11 1 8 9 7 8 105 0 10 3 3 10 87 0 10 10 3 95 0 3 10 3 79 
EIF[ ]\011/* EndIf */
EIF[ ]\011/* EndIf */
NPUSHB[ ]\011/* 21 values pushed */
57 56 74 71 61 60 56 64 57 64 25 35 36 38 52 35 36 22 12 8 30 
CALL[ ]\011/* CallFunction */";
};
width = 1278;
}
);
leftKerningGroup = A;
leftMetricsKey = A;
note = Aring;
rightKerningGroup = A;
rightMetricsKey = A;
unicode = 00C5;
},
{
glyphname = B;
lastChange = "2018-08-18 13:17:39 +0000";
layers = (
{
anchors = (
{
name = bottom;
position = "{438, 0}";
},
{
name = top;
position = "{678, 1363}";
}
);
background = {
paths = (
{
closed = 1;
nodes = (
"1021 552 OFFCURVE",
"927 666 OFFCURVE",
"753 716 CURVE SMOOTH",
"746 718 OFFCURVE",
"741 722 OFFCURVE",
"741 726 CURVE SMOOTH",
"741 729 OFFCURVE",
"744 732 OFFCURVE",
"751 733 CURVE SMOOTH",
"978 765 OFFCURVE",
"1080 884 OFFCURVE",
"1054 1095 CURVE SMOOTH",
"1036 1242 OFFCURVE",
"899 1358 OFFCURVE",
"669 1358 CURVE SMOOTH",
"605 1358 OFFCURVE",
"484 1354 OFFCURVE",
"407 1354 CURVE",
"501 1355 OFFCURVE",
"455 1354 OFFCURVE",
"407 1354 CURVE SMOOTH",
"359 1354 OFFCURVE",
"282 1352 OFFCURVE",
"175 1358 CURVE SMOOTH",
"157 1359 OFFCURVE",
"144 1282 OFFCURVE",
"165 1282 CURVE SMOOTH",
"269 1282 OFFCURVE",
"330 1272 OFFCURVE",
"335 1209 CURVE SMOOTH",
"336 1196 OFFCURVE",
"338 1183 OFFCURVE",
"336 1172 CURVE SMOOTH",
"173 186 LINE SMOOTH",
"158 93 OFFCURVE",
"113 69 OFFCURVE",
"-28 69 CURVE SMOOTH",
"-46 69 OFFCURVE",
"-59 -7 OFFCURVE",
"-38 -7 CURVE",
"93 1 OFFCURVE",
"255 2 OFFCURVE",
"347 -4 CURVE SMOOTH",
"396 -7 OFFCURVE",
"441 -7 OFFCURVE",
"483 -7 CURVE SMOOTH",
"929 -7 OFFCURVE",
"1068 174 OFFCURVE",
"1041 390 CURVE SMOOTH"
);
},
{
closed = 1;
nodes = (
"940 893 OFFCURVE",
"781 753 OFFCURVE",
"515 753 CURVE SMOOTH",
"452 753 OFFCURVE",
"417 763 OFFCURVE",
"417 783 CURVE SMOOTH",
"417 784 OFFCURVE",
"417 788 OFFCURVE",
"418 795 CURVE",
"488 1230 LINE SMOOTH",
"496 1280 OFFCURVE",
"517 1305 OFFCURVE",
"550 1305 CURVE SMOOTH",
"769 1305 OFFCURVE",
"897 1233 OFFCURVE",
"917 1074 CURVE SMOOTH"
);
},
{
closed = 1;
nodes = (
"914 187 OFFCURVE",
"754 57 OFFCURVE",
"479 57 CURVE SMOOTH",
"385 57 OFFCURVE",
"333 94 OFFCURVE",
"324 167 CURVE SMOOTH",
"321 192 OFFCURVE",
"324 229 OFFCURVE",
"332 277 CURVE SMOOTH",
"389 636 LINE SMOOTH",
"395 675 OFFCURVE",
"436 695 OFFCURVE",
"509 695 CURVE SMOOTH",
"720 695 OFFCURVE",
"863 601 OFFCURVE",
"885 422 CURVE SMOOTH"
);
}
);
};
layerId = "98F9B6AB-A1D0-4874-9186-59FDE6DAF116";
paths = (
{
closed = 1;
nodes = (
"453 0 LINE SMOOTH",
"973 0 OFFCURVE",
"1001 305 OFFCURVE",
"1001 435 CURVE SMOOTH",
"1001 572 OFFCURVE",
"930 673 OFFCURVE",
"756 731 CURVE",
"973 820 OFFCURVE",
"1029 948 OFFCURVE",
"1029 1103 CURVE SMOOTH",
"1029 1273 OFFCURVE",
"898 1358 OFFCURVE",
"693 1358 CURVE SMOOTH",
"185 1358 LINE",
"185 1300 LINE",
"310 1300 OFFCURVE",
"356 1265 OFFCURVE",
"344 1195 CURVE SMOOTH",
"162 163 LINE SMOOTH",
"149 93 OFFCURVE",
"97 58 OFFCURVE",
"-44 58 CURVE",
"-44 0 LINE"
);
},
{
closed = 1;
nodes = (
"484 1297 LINE",
"755 1297 OFFCURVE",
"895 1238 OFFCURVE",
"895 1085 CURVE SMOOTH",
"895 958 OFFCURVE",
"856 749 OFFCURVE",
"387 749 CURVE"
);
},
{
closed = 1;
nodes = (
"348 57 OFFCURVE",
"297 107 OFFCURVE",
"297 206 CURVE SMOOTH",
"297 228 OFFCURVE",
"299 251 OFFCURVE",
"304 277 CURVE SMOOTH",
"376 687 LINE",
"519 687 OFFCURVE",
"605 679 OFFCURVE",
"666 657 CURVE SMOOTH",
"789 613 OFFCURVE",
"864 536 OFFCURVE",
"864 422 CURVE SMOOTH",
"864 302 OFFCURVE",
"788 57 OFFCURVE",
"449 57 CURVE SMOOTH"
);
}
);
userData = {
assembly = "PUSHB[ ]\011/* 6 values pushed */
45 1 5 2 1 76 
MPPEM[ ]\011/* MeasurePixelPerEm */
PUSHB[ ]\011/* 1 value pushed */
42 
LT[ ]\011/* LessThan */
IF[ ]\011/* If */
NPUSHB[ ]\011/* 37 values pushed */
0 2 4 5 4 2 114 0 5 0 6 1 5 6 105 0 4 4 3 95 0 3 3 92 77 7 1 1 1 0 95 0 0 0 93 0 78 
ELSE[ ]\011/* Else */
MPPEM[ ]\011/* MeasurePixelPerEm */
PUSHB[ ]\011/* 1 value pushed */
45 
LT[ ]\011/* LessThan */
IF[ ]\011/* If */
NPUSHB[ ]\011/* 43 values pushed */
0 2 4 5 4 2 114 0 1 6 7 7 1 114 0 5 0 6 1 5 6 105 0 4 4 3 95 0 3 3 92 77 0 7 7 0 96 0 0 0 93 0 78 
ELSE[ ]\011/* Else */
MPPEM[ ]\011/* MeasurePixelPerEm */
PUSHB[ ]\011/* 1 value pushed */
57 
LT[ ]\011/* LessThan */
IF[ ]\011/* If */
NPUSHB[ ]\011/* 40 values pushed */
0 2 4 5 4 2 114 0 1 6 7 7 1 114 0 5 0 6 1 5 6 105 0 7 0 0 7 0 100 0 4 4 3 95 0 3 3 92 4 78 
ELSE[ ]\011/* Else */
MPPEM[ ]\011/* MeasurePixelPerEm */
PUSHB[ ]\011/* 1 value pushed */
110 
LT[ ]\011/* LessThan */
IF[ ]\011/* If */
NPUSHB[ ]\011/* 46 values pushed */
0 2 4 5 4 2 114 0 1 6 7 7 1 114 0 3 0 4 2 3 4 105 0 5 0 6 1 5 6 105 0 7 0 0 7 89 0 7 7 0 96 0 0 7 0 80 
ELSE[ ]\011/* Else */
NPUSHB[ ]\011/* 47 values pushed */
0 2 4 5 4 2 5 128 0 1 6 7 7 1 114 0 3 0 4 2 3 4 105 0 5 0 6 1 5 6 105 0 7 0 0 7 89 0 7 7 0 96 0 0 7 0 80 
EIF[ ]\011/* EndIf */
EIF[ ]\011/* EndIf */
EIF[ ]\011/* EndIf */
EIF[ ]\011/* EndIf */
NPUSHB[ ]\011/* 11 values pushed */
37 36 37 44 99 23 35 82 8 12 30 
CALL[ ]\011/* CallFunction */";
};
width = 1025;
},
{
anchors = (
{
name = bottom;
position = "{521, 0}";
},
{
name = top;
position = "{761, 1363}";
}
);
background = {
paths = (
{
closed = 1;
nodes = (
"1231 607 OFFCURVE",
"1060 711 QCURVE SMOOTH",
"1041 723 OFFCURVE",
"1039 742 OFFCURVE",
"1058 752 QCURVE SMOOTH",
"1163 803 OFFCURVE",
"1296 983 OFFCURVE",
"1286 1098 QCURVE SMOOTH",
"1276 1214 OFFCURVE",
"1075 1358 OFFCURVE",
"907 1358 QCURVE SMOOTH",
"833 1358 OFFCURVE",
"672 1354 OFFCURVE",
"492 1354 OFFCURVE",
"352 1358 QCURVE SMOOTH",
"337 1358 OFFCURVE",
"325 1288 OFFCURVE",
"327 1264 OFFCURVE",
"333 1264 QCURVE SMOOTH",
"423 1264 OFFCURVE",
"486 1233 OFFCURVE",
"488 1208 QCURVE",
"490 1182 OFFCURVE",
"484 1155 QCURVE SMOOTH",
"281 203 LINE SMOOTH",
"271 152 OFFCURVE",
"210 86 OFFCURVE",
"99 86 QCURVE SMOOTH",
"83 86 OFFCURVE",
"72 16 OFFCURVE",
"75 -8 OFFCURVE",
"83 -8 QCURVE",
"305 0 OFFCURVE",
"434 0 OFFCURVE",
"585 -6 OFFCURVE",
"644 -6 QCURVE SMOOTH",
"1002 -6 OFFCURVE",
"1259 289 OFFCURVE",
"1244 453 QCURVE SMOOTH"
);
},
{
closed = 1;
nodes = (
"1067 940 OFFCURVE",
"868 760 OFFCURVE",
"694 760 QCURVE SMOOTH",
"642 760 OFFCURVE",
"640 776 QCURVE SMOOTH",
"639 789 OFFCURVE",
"640 797 QCURVE",
"738 1239 LINE",
"744 1280 OFFCURVE",
"781 1280 QCURVE SMOOTH",
"930 1280 OFFCURVE",
"1045 1190 OFFCURVE",
"1053 1094 QCURVE SMOOTH"
);
},
{
closed = 1;
nodes = (
"1007 282 OFFCURVE",
"821 74 OFFCURVE",
"624 74 QCURVE SMOOTH",
"524 74 OFFCURVE",
"516 164 QCURVE",
"515 198 OFFCURVE",
"520 229 QCURVE",
"610 655 LINE SMOOTH",
"615 682 OFFCURVE",
"642 682 QCURVE SMOOTH",
"818 682 OFFCURVE",
"981 585 OFFCURVE",
"990 479 QCURVE SMOOTH"
);
}
);
};
layerId = "2899D53B-47B8-4BF9-853D-5BC6961E25E7";
paths = (
{
closed = 1;
nodes = (
"562 0 LINE SMOOTH",
"1129 0 OFFCURVE",
"1170 330 OFFCURVE",
"1170 428 CURVE SMOOTH",
"1170 561 OFFCURVE",
"1082 673 OFFCURVE",
"916 735 CURVE",
"1106 817 OFFCURVE",
"1188 934 OFFCURVE",
"1188 1083 CURVE SMOOTH",
"1188 1253 OFFCURVE",
"1056 1358 OFFCURVE",
"798 1358 CURVE SMOOTH",
"200 1358 LINE",
"200 1272 LINE",
"335 1272 OFFCURVE",
"376 1238 OFFCURVE",
"363 1167 CURVE SMOOTH",
"191 191 LINE SMOOTH",
"178 120 OFFCURVE",
"95 86 OFFCURVE",
"-40 86 CURVE",
"-40 0 LINE"
);
},
{
closed = 1;
nodes = (
"626 1280 LINE",
"836 1280 OFFCURVE",
"944 1214 OFFCURVE",
"944 1073 CURVE SMOOTH",
"944 947 OFFCURVE",
"902 768 OFFCURVE",
"536 768 CURVE"
);
},
{
closed = 1;
nodes = (
"481 76 OFFCURVE",
"439 116 OFFCURVE",
"439 197 CURVE SMOOTH",
"439 213 OFFCURVE",
"441 231 OFFCURVE",
"444 250 CURVE SMOOTH",
"519 674 LINE",
"621 674 OFFCURVE",
"688 666 OFFCURVE",
"747 645 CURVE SMOOTH",
"854 607 OFFCURVE",
"900 535 OFFCURVE",
"900 437 CURVE SMOOTH",
"900 262 OFFCURVE",
"806 76 OFFCURVE",
"564 76 CURVE SMOOTH"
);
}
);
userData = {
assembly = "PUSHB[ ]\011/* 6 values pushed */
47 1 5 2 1 76 
MPPEM[ ]\011/* MeasurePixelPerEm */
PUSHB[ ]\011/* 1 value pushed */
30 
LT[ ]\011/* LessThan */
IF[ ]\011/* If */
NPUSHB[ ]\011/* 31 values pushed */
0 5 0 6 1 5 6 105 4 1 2 2 3 95 0 3 3 31 77 7 1 1 1 0 95 0 0 0 32 0 78 
ELSE[ ]\011/* Else */
MPPEM[ ]\011/* MeasurePixelPerEm */
PUSHB[ ]\011/* 1 value pushed */
42 
LT[ ]\011/* LessThan */
IF[ ]\011/* If */
NPUSHB[ ]\011/* 37 values pushed */
0 2 4 5 4 2 114 0 5 0 6 1 5 6 105 0 4 4 3 95 0 3 3 31 77 7 1 1 1 0 95 0 0 0 32 0 78 
ELSE[ ]\011/* Else */
MPPEM[ ]\011/* MeasurePixelPerEm */
PUSHB[ ]\011/* 1 value pushed */
45 
LT[ ]\011/* LessThan */
IF[ ]\011/* If */
NPUSHB[ ]\011/* 43 values pushed */
0 2 4 5 4 2 114 0 1 6 7 7 1 114 0 5 0 6 1 5 6 105 0 4 4 3 95 0 3 3 31 77 0 7 7 0 96 0 0 0 32 0 78 
ELSE[ ]\011/* Else */
MPPEM[ ]\011/* MeasurePixelPerEm */
PUSHB[ ]\011/* 1 value pushed */
59 
LT[ ]\011/* LessThan */
IF[ ]\011/* If */
NPUSHB[ ]\011/* 40 values pushed */
0 2 4 5 4 2 114 0 1 6 7 7 1 114 0 5 0 6 1 5 6 105 0 7 0 0 7 0 100 0 4 4 3 95 0 3 3 31 4 78 
ELSE[ ]\011/* Else */
NPUSHB[ ]\011/* 46 values pushed */
0 2 4 5 4 2 114 0 1 6 7 7 1 114 0 3 0 4 2 3 4 105 0 5 0 6 1 5 6 105 0 7 0 0 7 89 0 7 7 0 96 0 0 7 0 80 
EIF[ ]\011/* EndIf */
EIF[ ]\011/* EndIf */
EIF[ ]\011/* EndIf */
EIF[ ]\011/* EndIf */
NPUSHB[ ]\011/* 11 values pushed */
37 36 22 44 99 23 35 82 8 8 30 
CALL[ ]\011/* CallFunction */";
};
width = 1191;
}
);
leftMetricsKey = H;
note = B;
rightKerningGroup = B;
unicode = 0042;
},
{
glyphname = C;
lastChange = "2018-08-18 13:12:32 +0000";
layers = (
{
anchors = (
{
name = bottom;
position = "{557, 0}";
},
{
name = top;
position = "{887, 1363}";
}
);
background = {
paths = (
{
closed = 1;
nodes = (
"1256 73 OFFCURVE",
"1372 281 OFFCURVE",
"1369 308 CURVE SMOOTH",
"1368 321 OFFCURVE",
"1358 327 OFFCURVE",
"1339 327 CURVE SMOOTH",
"1319 327 OFFCURVE",
"1308 324 OFFCURVE",
"1304 317 CURVE",
"1277 266 OFFCURVE",
"1236 176 OFFCURVE",
"1085 103 CURVE SMOOTH",
"1010 66 OFFCURVE",
"914 48 OFFCURVE",
"797 48 CURVE SMOOTH",
"567 48 OFFCURVE",
"405 224 OFFCURVE",
"384 459 CURVE SMOOTH",
"348 871 OFFCURVE",
"641 1314 OFFCURVE",
"1065 1314 CURVE SMOOTH",
"1289 1314 OFFCURVE",
"1391 1228 OFFCURVE",
"1403 1092 CURVE SMOOTH",
"1404 1080 OFFCURVE",
"1404 1054 OFFCURVE",
"1402 1014 CURVE",
"1402 1006 OFFCURVE",
"1413 1002 OFFCURVE",
"1434 1002 CURVE SMOOTH",
"1454 1002 OFFCURVE",
"1467 1008 OFFCURVE",
"1471 1019 CURVE",
"1492 1119 OFFCURVE",
"1503 1222 OFFCURVE",
"1503 1327 CURVE",
"1440 1337 OFFCURVE",
"1377 1349 OFFCURVE",
"1315 1364 CURVE SMOOTH",
"1252 1378 OFFCURVE",
"1172 1385 OFFCURVE",
"1074 1385 CURVE SMOOTH",
"604 1385 OFFCURVE",
"180 931 OFFCURVE",
"221 458 CURVE SMOOTH",
"248 158 OFFCURVE",
"474 -27 OFFCURVE",
"761 -27 CURVE SMOOTH",
"904 -27 OFFCURVE",
"1032 -12 OFFCURVE",
"1146 19 CURVE SMOOTH",
"1177 27 OFFCURVE",
"1204 33 OFFCURVE",
"1226 36 CURVE"
);
}
);
};
layerId = "98F9B6AB-A1D0-4874-9186-59FDE6DAF116";
paths = (
{
closed = 1;
nodes = (
"750 -27 OFFCURVE",
"877 -12 OFFCURVE",
"981 19 CURVE SMOOTH",
"1012 28 OFFCURVE",
"1034 33 OFFCURVE",
"1056 36 CURVE",
"1112 99 OFFCURVE",
"1186 270 OFFCURVE",
"1194 317 CURVE",
"1137 317 LINE",
"1041 138 OFFCURVE",
"868 38 OFFCURVE",
"632 38 CURVE SMOOTH",
"392 38 OFFCURVE",
"216 256 OFFCURVE",
"216 559 CURVE SMOOTH",
"216 877 OFFCURVE",
"485 1324 OFFCURVE",
"862 1324 CURVE SMOOTH",
"1216 1324 OFFCURVE",
"1226 1109 OFFCURVE",
"1218 1014 CURVE",
"1280 1014 LINE",
"1302 1133 OFFCURVE",
"1302 1264 OFFCURVE",
"1302 1327 CURVE",
"1282 1327 OFFCURVE",
"1249 1332 OFFCURVE",
"1215 1340 CURVE SMOOTH",
"1080 1370 OFFCURVE",
"986 1385 OFFCURVE",
"901 1385 CURVE SMOOTH",
"276 1385 OFFCURVE",
"60 802 OFFCURVE",
"60 513 CURVE SMOOTH",
"60 200 OFFCURVE",
"267 -27 OFFCURVE",
"597 -27 CURVE SMOOTH"
);
}
);
userData = {
assembly = "PUSHB[ ]\011/* 6 values pushed */
13 1 3 1 1 76 
MPPEM[ ]\011/* MeasurePixelPerEm */
PUSHB[ ]\011/* 1 value pushed */
57 
LT[ ]\011/* LessThan */
IF[ ]\011/* If */
NPUSHB[ ]\011/* 36 values pushed */
0 2 3 5 3 2 5 128 0 5 4 3 5 4 126 0 3 3 1 97 0 1 1 98 77 0 4 4 0 97 0 0 0 93 0 78 
ELSE[ ]\011/* Else */
NPUSHB[ ]\011/* 34 values pushed */
0 2 3 5 3 2 5 128 0 5 4 3 5 4 126 0 1 0 3 2 1 3 105 0 4 4 0 97 0 0 0 93 0 78 
EIF[ ]\011/* EndIf */
NPUSHB[ ]\011/* 9 values pushed */
21 36 37 21 36 35 6 12 28 
CALL[ ]\011/* CallFunction */";
};
width = 1264;
},
{
anchors = (
{
name = bottom;
position = "{600, 0}";
},
{
name = top;
position = "{930, 1363}";
}
);
background = {
paths = (
{
closed = 1;
nodes = (
"1316 84 OFFCURVE",
"1424 290 OFFCURVE",
"1419 342 CURVE",
"1418 353 OFFCURVE",
"1404 358 OFFCURVE",
"1375 358 CURVE SMOOTH",
"1346 358 OFFCURVE",
"1329 354 OFFCURVE",
"1323 346 CURVE SMOOTH",
"1260 262 OFFCURVE",
"1223 213 OFFCURVE",
"1210 200 CURVE SMOOTH",
"1163 152 OFFCURVE",
"1109 117 OFFCURVE",
"1050 96 CURVE SMOOTH",
"991 74 OFFCURVE",
"922 63 OFFCURVE",
"844 63 CURVE SMOOTH",
"607 63 OFFCURVE",
"477 252 OFFCURVE",
"460 455 CURVE SMOOTH",
"421 888 OFFCURVE",
"711 1298 OFFCURVE",
"1076 1298 CURVE SMOOTH",
"1170 1298 OFFCURVE",
"1249 1278 OFFCURVE",
"1314 1237 CURVE SMOOTH",
"1379 1197 OFFCURVE",
"1415 1142 OFFCURVE",
"1421 1073 CURVE",
"1422 1059 OFFCURVE",
"1421 1034 OFFCURVE",
"1419 999 CURVE",
"1420 986 OFFCURVE",
"1436 979 OFFCURVE",
"1467 979 CURVE SMOOTH",
"1497 979 OFFCURVE",
"1513 984 OFFCURVE",
"1516 995 CURVE SMOOTH",
"1540 1098 OFFCURVE",
"1551 1209 OFFCURVE",
"1548 1329 CURVE",
"1509 1329 OFFCURVE",
"1444 1338 OFFCURVE",
"1354 1357 CURVE SMOOTH",
"1263 1375 OFFCURVE",
"1182 1384 OFFCURVE",
"1109 1384 CURVE SMOOTH",
"612 1384 OFFCURVE",
"178 936 OFFCURVE",
"218 469 CURVE SMOOTH",
"245 164 OFFCURVE",
"493 -27 OFFCURVE",
"793 -27 CURVE SMOOTH",
"943 -27 OFFCURVE",
"1075 -13 OFFCURVE",
"1190 16 CURVE",
"1213 26 OFFCURVE",
"1241 33 OFFCURVE",
"1276 37 CURVE"
);
}
);
};
layerId = "2899D53B-47B8-4BF9-853D-5BC6961E25E7";
paths = (
{
closed = 1;
nodes = (
"804 -27 OFFCURVE",
"925 -15 OFFCURVE",
"1033 16 CURVE SMOOTH",
"1064 25 OFFCURVE",
"1094 33 OFFCURVE",
"1126 37 CURVE",
"1166 84 OFFCURVE",
"1270 258 OFFCURVE",
"1285 344 CURVE",
"1188 344 LINE",
"1090 160 OFFCURVE",
"926 68 OFFCURVE",
"698 68 CURVE SMOOTH",
"498 68 OFFCURVE",
"340 242 OFFCURVE",
"340 538 CURVE SMOOTH",
"340 857 OFFCURVE",
"533 1296 OFFCURVE",
"919 1296 CURVE SMOOTH",
"1248 1296 OFFCURVE",
"1273 1113 OFFCURVE",
"1264 995 CURVE",
"1358 995 LINE",
"1376 1129 OFFCURVE",
"1376 1256 OFFCURVE",
"1376 1329 CURVE",
"1342 1330 OFFCURVE",
"1307 1333 OFFCURVE",
"1272 1341 CURVE SMOOTH",
"1138 1371 OFFCURVE",
"1027 1384 OFFCURVE",
"941 1384 CURVE SMOOTH",
"297 1384 OFFCURVE",
"60 796 OFFCURVE",
"60 528 CURVE SMOOTH",
"60 199 OFFCURVE",
"318 -27 OFFCURVE",
"668 -27 CURVE SMOOTH"
);
}
);
userData = {
assembly = "PUSHB[ ]\011/* 6 values pushed */
18 1 3 4 1 76 
MPPEM[ ]\011/* MeasurePixelPerEm */
PUSHB[ ]\011/* 1 value pushed */
35 
LT[ ]\011/* LessThan */
IF[ ]\011/* If */
NPUSHB[ ]\011/* 41 values pushed */
0 3 4 6 4 3 6 128 0 6 5 4 6 5 126 0 2 2 31 77 0 4 4 1 97 0 1 1 37 77 0 5 5 0 97 0 0 0 32 0 78 
ELSE[ ]\011/* Else */
MPPEM[ ]\011/* MeasurePixelPerEm */
PUSHB[ ]\011/* 1 value pushed */
59 
LT[ ]\011/* LessThan */
IF[ ]\011/* If */
NPUSHB[ ]\011/* 44 values pushed */
0 2 1 4 1 2 4 128 0 3 4 6 4 3 6 128 0 6 5 4 6 5 126 0 4 4 1 97 0 1 1 37 77 0 5 5 0 97 0 0 0 32 0 78 
ELSE[ ]\011/* Else */
NPUSHB[ ]\011/* 42 values pushed */
0 2 1 4 1 2 4 128 0 3 4 6 4 3 6 128 0 6 5 4 6 5 126 0 1 0 4 3 1 4 105 0 5 5 0 97 0 0 0 32 0 78 
EIF[ ]\011/* EndIf */
EIF[ ]\011/* EndIf */
NPUSHB[ ]\011/* 10 values pushed */
22 36 38 19 17 36 35 7 8 29 
CALL[ ]\011/* CallFunction */";
};
width = 1350;
}
);
leftKerningGroup = C;
leftMetricsKey = O;
note = C;
rightKerningGroup = C;
unicode = 0043;
},
{
glyphname = acute.case;
lastChange = "2018-08-14 11:28:22 +0000";
layers = (
{
background = {
paths = (
{
closed = 1;
nodes = (
"989 1658 OFFCURVE",
"993 1665 OFFCURVE",
"993 1673 CURVE SMOOTH",
"993 1707 OFFCURVE",
"973 1754 OFFCURVE",
"940 1754 CURVE SMOOTH",
"937 1754 OFFCURVE",
"934 1753 OFFCURVE",
"931 1751 CURVE",
"576 1540 LINE SMOOTH",
"568 1535 OFFCURVE",
"561 1530 OFFCURVE",
"556 1523 CURVE",
"551 1516 OFFCURVE",
"548 1509 OFFCURVE",
"548 1503 CURVE SMOOTH",
"548 1491 OFFCURVE",
"566 1480 OFFCURVE",
"585 1480 CURVE SMOOTH",
"596 1480 OFFCURVE",
"607 1483 OFFCURVE",
"620 1489 CURVE SMOOTH",
"985 1657 LINE"
);
}
);
};
layerId = "98F9B6AB-A1D0-4874-9186-59FDE6DAF116";
paths = (
{
closed = 1;
nodes = (
"920 1666 LINE",
"866 1760 LINE",
"471 1525 LINE",
"506 1473 LINE"
);
}
);
userData = {
assembly = "PUSHB[ ]\011/* 8 values pushed */
0 0 0 118 34 1 7 23 
CALL[ ]\011/* CallFunction */";
};
width = 730;
},
{
layerId = "2899D53B-47B8-4BF9-853D-5BC6961E25E7";
paths = (
{
closed = 1;
nodes = (
"926 1655 LINE",
"859 1771 LINE",
"464 1536 LINE",
"512 1462 LINE"
);
}
);
width = 730;
}
);
note = CapAcute;
},
{
glyphname = Ccedilla;
lastChange = "2018-08-17 18:03:33 +0000";
layers = (
{
background = {
paths = (
{
closed = 1;
nodes = (
"1092 73 OFFCURVE",
"1207 282 OFFCURVE",
"1205 308 CURVE SMOOTH",
"1203 330 OFFCURVE",
"1150 334 OFFCURVE",
"1139 317 CURVE",
"1113 266 OFFCURVE",
"1072 176 OFFCURVE",
"921 103 CURVE SMOOTH",
"846 67 OFFCURVE",
"750 48 OFFCURVE",
"633 48 CURVE SMOOTH",
"402 48 OFFCURVE",
"240 224 OFFCURVE",
"220 459 CURVE SMOOTH",
"185 871 OFFCURVE",
"477 1314 OFFCURVE",
"901 1314 CURVE SMOOTH",
"1125 1314 OFFCURVE",
"1228 1228 OFFCURVE",
"1239 1092 CURVE SMOOTH",
"1240 1080 OFFCURVE",
"1239 1054 OFFCURVE",
"1237 1014 CURVE",
"1237 1006 OFFCURVE",
"1248 1002 OFFCURVE",
"1269 1002 CURVE SMOOTH",
"1290 1002 OFFCURVE",
"1303 1008 OFFCURVE",
"1307 1019 CURVE",
"1327 1119 OFFCURVE",
"1338 1222 OFFCURVE",
"1339 1327 CURVE",
"1275 1337 OFFCURVE",
"1213 1349 OFFCURVE",
"1150 1364 CURVE SMOOTH",
"1088 1379 OFFCURVE",
"1008 1385 OFFCURVE",
"910 1385 CURVE SMOOTH",
"439 1385 OFFCURVE",
"16 931 OFFCURVE",
"57 458 CURVE SMOOTH",
"83 158 OFFCURVE",
"310 -27 OFFCURVE",
"596 -27 CURVE SMOOTH",
"600 -27 OFFCURVE",
"603 -27 OFFCURVE",
"605 -27 CURVE",
"519 -157 LINE",
"511 -170 OFFCURVE",
"515 -180 OFFCURVE",
"529 -187 CURVE SMOOTH",
"593 -219 OFFCURVE",
"626 -256 OFFCURVE",
"630 -298 CURVE SMOOTH",
"634 -345 OFFCURVE",
"617 -369 OFFCURVE",
"579 -369 CURVE SMOOTH",
"571 -369 OFFCURVE",
"556 -359 OFFCURVE",
"535 -339 CURVE SMOOTH",
"513 -318 OFFCURVE",
"495 -309 OFFCURVE",
"482 -309 CURVE SMOOTH",
"448 -309 OFFCURVE",
"433 -325 OFFCURVE",
"435 -358 CURVE SMOOTH",
"438 -402 OFFCURVE",
"475 -424 OFFCURVE",
"543 -424 CURVE SMOOTH",
"646 -424 OFFCURVE",
"745 -351 OFFCURVE",
"737 -257 CURVE SMOOTH",
"733 -210 OFFCURVE",
"704 -166 OFFCURVE",
"650 -125 CURVE SMOOTH",
"630 -110 OFFCURVE",
"626 -95 OFFCURVE",
"636 -80 CURVE SMOOTH",
"673 -25 LINE",
"786 -21 OFFCURVE",
"889 -7 OFFCURVE",
"981 19 CURVE SMOOTH",
"1013 28 OFFCURVE",
"1040 33 OFFCURVE",
"1062 36 CURVE"
);
}
);
};
components = (
{
alignment = -1;
name = C;
},
{
alignment = -1;
name = cedilla;
transform = "{1, 0, 0, 1, 360, 0}";
}
);
layerId = "98F9B6AB-A1D0-4874-9186-59FDE6DAF116";
userData = {
assembly = "PUSHB[ ]\011/* 6 values pushed */
36 1 7 5 1 76 
MPPEM[ ]\011/* MeasurePixelPerEm */
PUSHB[ ]\011/* 1 value pushed */
42 
LT[ ]\011/* LessThan */
IF[ ]\011/* If */
NPUSHB[ ]\011/* 44 values pushed */
0 6 7 8 7 6 8 128 0 3 2 1 2 3 114 0 2 0 1 2 1 101 0 7 7 5 97 0 5 5 98 77 0 8 8 0 97 4 1 0 0 93 0 78 
ELSE[ ]\011/* Else */
MPPEM[ ]\011/* MeasurePixelPerEm */
PUSHB[ ]\011/* 1 value pushed */
57 
LT[ ]\011/* LessThan */
IF[ ]\011/* If */
NPUSHB[ ]\011/* 45 values pushed */
0 6 7 8 7 6 8 128 0 3 2 1 2 3 1 128 0 2 0 1 2 1 101 0 7 7 5 97 0 5 5 98 77 0 8 8 0 97 4 1 0 0 93 0 78 
ELSE[ ]\011/* Else */
MPPEM[ ]\011/* MeasurePixelPerEm */
PUSHB[ ]\011/* 1 value pushed */
93 
LT[ ]\011/* LessThan */
IF[ ]\011/* If */
NPUSHB[ ]\011/* 43 values pushed */
0 6 7 8 7 6 8 128 0 3 2 1 2 3 1 128 0 5 0 7 6 5 7 105 0 2 0 1 2 1 101 0 8 8 0 97 4 1 0 0 93 0 78 
ELSE[ ]\011/* Else */
NPUSHB[ ]\011/* 47 values pushed */
0 6 7 8 7 6 8 128 0 3 2 1 2 3 1 128 0 5 0 7 6 5 7 105 0 2 0 1 2 1 101 0 8 8 0 97 0 0 0 93 77 0 4 4 93 4 78 
EIF[ ]\011/* EndIf */
EIF[ ]\011/* EndIf */
EIF[ ]\011/* EndIf */
NPUSHB[ ]\011/* 12 values pushed */
36 37 21 36 54 33 34 38 19 9 12 31 
CALL[ ]\011/* CallFunction */";
};
width = 1264;
},
{
background = {
paths = (
{
closed = 1;
nodes = (
"786 -240 OFFCURVE",
"683 -166 QCURVE",
"657 -150 OFFCURVE",
"649 -135 OFFCURVE",
"660 -119 QCURVE SMOOTH",
"720 -27 LINE",
"749 -27 LINE SMOOTH",
"974 -27 OFFCURVE",
"1146 16 QCURVE",
"1180 31 OFFCURVE",
"1232 37 QCURVE",
"1264 72 OFFCURVE",
"1379 303 OFFCURVE",
"1376 342 QCURVE SMOOTH",
"1374 356 OFFCURVE",
"1288 360 OFFCURVE",
"1279 346 QCURVE",
"1237 272 OFFCURVE",
"1095 129 OFFCURVE",
"917 63 OFFCURVE",
"800 63 QCURVE SMOOTH",
"622 63 OFFCURVE",
"429 303 OFFCURVE",
"416 455 QCURVE SMOOTH",
"387 780 OFFCURVE",
"758 1298 OFFCURVE",
"1032 1298 QCURVE SMOOTH",
"1173 1298 OFFCURVE",
"1270 1237 QCURVE SMOOTH",
"1369 1177 OFFCURVE",
"1378 1073 QCURVE",
"1378 1052 OFFCURVE",
"1375 999 QCURVE",
"1373 979 OFFCURVE",
"1468 979 OFFCURVE",
"1472 995 QCURVE",
"1508 1149 OFFCURVE",
"1504 1329 QCURVE",
"1445 1329 OFFCURVE",
"1174 1384 OFFCURVE",
"1065 1384 QCURVE SMOOTH",
"692 1384 OFFCURVE",
"144 819 OFFCURVE",
"175 469 QCURVE SMOOTH",
"195 239 OFFCURVE",
"358 106 QCURVE SMOOTH",
"475 15 OFFCURVE",
"621 -14 QCURVE",
"492 -229 LINE",
"499 -246 LINE",
"631 -299 OFFCURVE",
"639 -393 QCURVE SMOOTH",
"641 -416 OFFCURVE",
"608 -444 OFFCURVE",
"572 -444 OFFCURVE",
"478 -369 OFFCURVE",
"416 -369 OFFCURVE",
"382 -407 OFFCURVE",
"385 -436 QCURVE SMOOTH",
"395 -526 OFFCURVE",
"553 -526 QCURVE SMOOTH",
"657 -526 OFFCURVE",
"801 -418 OFFCURVE",
"794 -336 QCURVE SMOOTH"
);
}
);
};
components = (
{
name = C;
},
{
name = cedilla;
transform = "{1, 0, 0, 1, 360, 0}";
}
);
layerId = "2899D53B-47B8-4BF9-853D-5BC6961E25E7";
userData = {
assembly = "NPUSHB[ ]\011/* 10 values pushed */
16 1 9 7 15 1 1 9 2 76 
MPPEM[ ]\011/* MeasurePixelPerEm */
PUSHB[ ]\011/* 1 value pushed */
30 
LT[ ]\011/* LessThan */
IF[ ]\011/* If */
NPUSHB[ ]\011/* 58 values pushed */
0 5 6 8 6 5 8 128 0 8 7 6 8 7 126 0 1 9 2 2 1 114 0 4 4 31 77 0 6 6 3 97 0 3 3 37 77 0 7 7 9 97 0 9 9 32 77 0 2 2 0 98 0 0 0 36 0 78 
ELSE[ ]\011/* Else */
MPPEM[ ]\011/* MeasurePixelPerEm */
PUSHB[ ]\011/* 1 value pushed */
35 
LT[ ]\011/* LessThan */
IF[ ]\011/* If */
NPUSHB[ ]\011/* 55 values pushed */
0 5 6 8 6 5 8 128 0 8 7 6 8 7 126 0 1 9 2 2 1 114 0 2 0 0 2 0 102 0 4 4 31 77 0 6 6 3 97 0 3 3 37 77 0 7 7 9 97 0 9 9 32 9 78 
ELSE[ ]\011/* Else */
MPPEM[ ]\011/* MeasurePixelPerEm */
PUSHB[ ]\011/* 1 value pushed */
59 
LT[ ]\011/* LessThan */
IF[ ]\011/* If */
NPUSHB[ ]\011/* 59 values pushed */
0 4 3 6 3 4 6 128 0 5 6 8 6 5 8 128 0 8 7 6 8 7 126 0 1 9 2 9 1 2 128 0 2 0 0 2 0 102 0 6 6 3 97 0 3 3 37 77 0 7 7 9 97 0 9 9 32 9 78 
ELSE[ ]\011/* Else */
NPUSHB[ ]\011/* 57 values pushed */
0 4 3 6 3 4 6 128 0 5 6 8 6 5 8 128 0 8 7 6 8 7 126 0 1 9 2 9 1 2 128 0 3 0 6 5 3 6 105 0 2 0 0 2 0 102 0 7 7 9 97 0 9 9 32 9 78 
EIF[ ]\011/* EndIf */
EIF[ ]\011/* EndIf */
EIF[ ]\011/* EndIf */
NPUSHB[ ]\011/* 14 values pushed */
58 56 20 36 38 19 17 44 17 19 34 10 8 31 
CALL[ ]\011/* CallFunction */";
};
width = 1468;
}
);
leftKerningGroup = C;
leftMetricsKey = C;
note = Ccedilla;
rightKerningGroup = C;
rightMetricsKey = C;
unicode = 00C7;
},
{
glyphname = D;
lastChange = "2018-08-18 13:16:41 +0000";
layers = (
{
anchors = (
{
name = bottom;
position = "{595, 0}";
},
{
name = center;
position = "{715, 682}";
},
{
name = top;
position = "{765, 1363}";
}
);
background = {
paths = (
{
closed = 1;
nodes = (
"1509 1192 OFFCURVE",
"1275 1358 OFFCURVE",
"945 1358 CURVE SMOOTH",
"895 1358 OFFCURVE",
"844 1357 OFFCURVE",
"790 1356 CURVE SMOOTH",
"736 1355 OFFCURVE",
"670 1354 OFFCURVE",
"591 1354 CURVE",
"691 1354 OFFCURVE",
"485 1354 OFFCURVE",
"338 1358 CURVE SMOOTH",
"320 1358 OFFCURVE",
"304 1282 OFFCURVE",
"325 1282 CURVE SMOOTH",
"433 1282 OFFCURVE",
"489 1257 OFFCURVE",
"493 1208 CURVE SMOOTH",
"494 1199 OFFCURVE",
"494 1187 OFFCURVE",
"492 1172 CURVE",
"295 186 LINE SMOOTH",
"285 135 OFFCURVE",
"259 101 OFFCURVE",
"219 84 CURVE SMOOTH",
"192 74 OFFCURVE",
"149 69 OFFCURVE",
"90 69 CURVE SMOOTH",
"72 69 OFFCURVE",
"56 -7 OFFCURVE",
"77 -7 CURVE",
"165 -2 OFFCURVE",
"241 0 OFFCURVE",
"306 0 CURVE SMOOTH",
"370 0 OFFCURVE",
"439 -1 OFFCURVE",
"513 -4 CURVE",
"418 0 OFFCURVE",
"608 -7 OFFCURVE",
"720 -7 CURVE SMOOTH",
"1201 -7 OFFCURVE",
"1572 468 OFFCURVE",
"1534 904 CURVE SMOOTH"
);
},
{
closed = 1;
nodes = (
"1409 483 OFFCURVE",
"1071 53 OFFCURVE",
"663 53 CURVE SMOOTH",
"527 53 OFFCURVE",
"455 94 OFFCURVE",
"448 177 CURVE SMOOTH",
"445 206 OFFCURVE",
"449 246 OFFCURVE",
"460 298 CURVE SMOOTH",
"637 1179 LINE SMOOTH",
"651 1247 OFFCURVE",
"678 1280 OFFCURVE",
"721 1289 CURVE SMOOTH",
"743 1294 OFFCURVE",
"785 1296 OFFCURVE",
"849 1296 CURVE SMOOTH",
"1171 1296 OFFCURVE",
"1353 1123 OFFCURVE",
"1374 880 CURVE SMOOTH"
);
}
);
};
layerId = "98F9B6AB-A1D0-4874-9186-59FDE6DAF116";
paths = (
{
closed = 1;
nodes = (
"575 0 LINE SMOOTH",
"1182 0 OFFCURVE",
"1373 586 OFFCURVE",
"1373 854 CURVE SMOOTH",
"1373 1172 OFFCURVE",
"1136 1358 OFFCURVE",
"747 1358 CURVE SMOOTH",
"187 1358 LINE",
"187 1300 LINE",
"312 1300 OFFCURVE",
"356 1265 OFFCURVE",
"344 1195 CURVE SMOOTH",
"162 163 LINE SMOOTH",
"150 93 OFFCURVE",
"71 58 OFFCURVE",
"-44 58 CURVE",
"-44 0 LINE"
);
},
{
closed = 1;
nodes = (
"309 53 OFFCURVE",
"279 131 OFFCURVE",
"308 298 CURVE SMOOTH",
"484 1297 LINE",
"674 1297 LINE SMOOTH",
"1009 1297 OFFCURVE",
"1224 1101 OFFCURVE",
"1224 820 CURVE SMOOTH",
"1224 584 OFFCURVE",
"1048 53 OFFCURVE",
"516 53 CURVE SMOOTH"
);
}
);
userData = {
assembly = "MPPEM[ ]\011/* MeasurePixelPerEm */
PUSHB[ ]\011/* 1 value pushed */
21 
LT[ ]\011/* LessThan */
IF[ ]\011/* If */
NPUSHB[ ]\011/* 23 values pushed */
4 1 2 2 3 95 0 3 3 92 77 5 1 1 1 0 95 0 0 0 93 0 78 
ELSE[ ]\011/* Else */
MPPEM[ ]\011/* MeasurePixelPerEm */
PUSHB[ ]\011/* 1 value pushed */
23 
LT[ ]\011/* LessThan */
IF[ ]\011/* If */
NPUSHB[ ]\011/* 29 values pushed */
0 1 2 5 5 1 114 4 1 2 2 3 95 0 3 3 92 77 0 5 5 0 96 0 0 0 93 0 78 
ELSE[ ]\011/* Else */
MPPEM[ ]\011/* MeasurePixelPerEm */
PUSHB[ ]\011/* 1 value pushed */
30 
LT[ ]\011/* LessThan */
IF[ ]\011/* If */
NPUSHB[ ]\011/* 23 values pushed */
4 1 2 2 3 95 0 3 3 92 77 5 1 1 1 0 95 0 0 0 93 0 78 
ELSE[ ]\011/* Else */
MPPEM[ ]\011/* MeasurePixelPerEm */
PUSHB[ ]\011/* 1 value pushed */
35 
LT[ ]\011/* LessThan */
IF[ ]\011/* If */
NPUSHB[ ]\011/* 29 values pushed */
0 1 2 5 5 1 114 4 1 2 2 3 95 0 3 3 92 77 0 5 5 0 96 0 0 0 93 0 78 
ELSE[ ]\011/* Else */
MPPEM[ ]\011/* MeasurePixelPerEm */
PUSHB[ ]\011/* 1 value pushed */
45 
LT[ ]\011/* LessThan */
IF[ ]\011/* If */
NPUSHB[ ]\011/* 34 values pushed */
0 2 4 1 4 2 114 0 1 5 5 1 112 0 4 4 3 95 0 3 3 92 77 0 5 5 0 96 0 0 0 93 0 78 
ELSE[ ]\011/* Else */
MPPEM[ ]\011/* MeasurePixelPerEm */
PUSHB[ ]\011/* 1 value pushed */
57 
LT[ ]\011/* LessThan */
IF[ ]\011/* If */
NPUSHB[ ]\011/* 31 values pushed */
0 2 4 1 4 2 114 0 1 5 5 1 112 0 5 0 0 5 0 100 0 4 4 3 95 0 3 3 92 4 78 
ELSE[ ]\011/* Else */
NPUSHB[ ]\011/* 37 values pushed */
0 2 4 1 4 2 114 0 1 5 5 1 112 0 3 0 4 2 3 4 105 0 5 0 0 5 89 0 5 5 0 96 0 0 5 0 80 
EIF[ ]\011/* EndIf */
EIF[ ]\011/* EndIf */
EIF[ ]\011/* EndIf */
EIF[ ]\011/* EndIf */
EIF[ ]\011/* EndIf */
EIF[ ]\011/* EndIf */
NPUSHB[ ]\011/* 9 values pushed */
39 36 99 23 35 82 6 12 28 
CALL[ ]\011/* CallFunction */";
};
width = 1339;
},
{
anchors = (
{
name = bottom;
position = "{681, 0}";
},
{
name = center;
position = "{801, 682}";
},
{
name = top;
position = "{831, 1363}";
}
);
background = {
paths = (
{
closed = 1;
nodes = (
"1609 1114 OFFCURVE",
"1261 1358 OFFCURVE",
"987 1358 QCURVE SMOOTH",
"937 1358 OFFCURVE",
"721 1354 OFFCURVE",
"439 1354 OFFCURVE",
"348 1358 QCURVE",
"333 1358 OFFCURVE",
"319 1264 OFFCURVE",
"335 1264 QCURVE SMOOTH",
"431 1264 OFFCURVE",
"487 1229 OFFCURVE",
"489 1204 QCURVE",
"490 1182 OFFCURVE",
"484 1153 QCURVE SMOOTH",
"281 203 LINE SMOOTH",
"272 164 OFFCURVE",
"242 111 OFFCURVE",
"177 86 OFFCURVE",
"97 86 QCURVE SMOOTH",
"83 86 OFFCURVE",
"71 18 OFFCURVE",
"77 -8 OFFCURVE",
"85 -8 QCURVE",
"272 0 OFFCURVE",
"415 0 OFFCURVE",
"722 -8 OFFCURVE",
"765 -8 QCURVE SMOOTH",
"1152 -8 OFFCURVE",
"1656 574 OFFCURVE",
"1628 893 QCURVE SMOOTH"
);
},
{
closed = 1;
nodes = (
"1395 585 OFFCURVE",
"978 72 OFFCURVE",
"706 72 QCURVE SMOOTH",
"530 69 OFFCURVE",
"520 188 QCURVE SMOOTH",
"518 221 OFFCURVE",
"526 264 QCURVE SMOOTH",
"727 1190 LINE SMOOTH",
"735 1231 OFFCURVE",
"767 1272 OFFCURVE",
"844 1280 OFFCURVE",
"910 1280 QCURVE SMOOTH",
"1100 1280 OFFCURVE",
"1354 1056 OFFCURVE",
"1370 868 QCURVE SMOOTH"
);
}
);
};
layerId = "2899D53B-47B8-4BF9-853D-5BC6961E25E7";
paths = (
{
closed = 1;
nodes = (
"685 0 LINE SMOOTH",
"1337 0 OFFCURVE",
"1544 569 OFFCURVE",
"1544 834 CURVE SMOOTH",
"1544 1162 OFFCURVE",
"1261 1358 OFFCURVE",
"878 1358 CURVE SMOOTH",
"200 1358 LINE",
"200 1272 LINE",
"335 1272 OFFCURVE",
"376 1238 OFFCURVE",
"363 1167 CURVE SMOOTH",
"191 191 LINE SMOOTH",
"178 120 OFFCURVE",
"95 86 OFFCURVE",
"-40 86 CURVE",
"-40 0 LINE"
);
},
{
closed = 1;
nodes = (
"446 72 OFFCURVE",
"423 128 OFFCURVE",
"448 272 CURVE SMOOTH",
"626 1280 LINE",
"782 1280 LINE SMOOTH",
"1103 1280 OFFCURVE",
"1269 1062 OFFCURVE",
"1269 816 CURVE SMOOTH",
"1269 480 OFFCURVE",
"1012 72 OFFCURVE",
"630 72 CURVE SMOOTH"
);
}
);
userData = {
assembly = "MPPEM[ ]\011/* MeasurePixelPerEm */
PUSHB[ ]\011/* 1 value pushed */
30 
LT[ ]\011/* LessThan */
IF[ ]\011/* If */
NPUSHB[ ]\011/* 23 values pushed */
4 1 2 2 3 95 0 3 3 31 77 5 1 1 1 0 95 0 0 0 32 0 78 
ELSE[ ]\011/* Else */
MPPEM[ ]\011/* MeasurePixelPerEm */
PUSHB[ ]\011/* 1 value pushed */
45 
LT[ ]\011/* LessThan */
IF[ ]\011/* If */
NPUSHB[ ]\011/* 34 values pushed */
0 2 4 1 4 2 114 0 1 5 5 1 112 0 4 4 3 95 0 3 3 31 77 0 5 5 0 96 0 0 0 32 0 78 
ELSE[ ]\011/* Else */
MPPEM[ ]\011/* MeasurePixelPerEm */
PUSHB[ ]\011/* 1 value pushed */
59 
LT[ ]\011/* LessThan */
IF[ ]\011/* If */
NPUSHB[ ]\011/* 31 values pushed */
0 2 4 1 4 2 114 0 1 5 5 1 112 0 5 0 0 5 0 100 0 4 4 3 95 0 3 3 31 4 78 
ELSE[ ]\011/* Else */
NPUSHB[ ]\011/* 37 values pushed */
0 2 4 1 4 2 114 0 1 5 5 1 112 0 3 0 4 2 3 4 105 0 5 0 0 5 89 0 5 5 0 96 0 0 5 0 80 
EIF[ ]\011/* EndIf */
EIF[ ]\011/* EndIf */
EIF[ ]\011/* EndIf */
NPUSHB[ ]\011/* 9 values pushed */
39 36 98 24 35 82 6 8 28 
CALL[ ]\011/* CallFunction */";
};
width = 1512;
}
);
leftMetricsKey = H;
note = D;
rightKerningGroup = D;
unicode = 0044;
},
{
glyphname = E;
lastChange = "2018-08-18 12:30:45 +0000";
layers = (
{
anchors = (
{
name = bottom;
position = "{470, 0}";
},
{
name = ogonek;
position = "{906, 10}";
},
{
name = top;
position = "{730, 1363}";
},
{
name = topleft;
position = "{186, 1363}";
}
);
background = {
paths = (
{
closed = 1;
nodes = (
"1062 344 LINE",
"1061 353 OFFCURVE",
"1048 358 OFFCURVE",
"1022 358 CURVE SMOOTH",
"996 358 OFFCURVE",
"981 353 OFFCURVE",
"979 344 CURVE SMOOTH",
"939 165 OFFCURVE",
"835 74 OFFCURVE",
"680 69 CURVE SMOOTH",
"441 61 LINE SMOOTH",
"365 58 OFFCURVE",
"325 94 OFFCURVE",
"316 160 CURVE SMOOTH",
"312 191 OFFCURVE",
"318 237 OFFCURVE",
"329 300 CURVE SMOOTH",
"380 581 LINE SMOOTH",
"383 598 OFFCURVE",
"395 607 OFFCURVE",
"417 607 CURVE SMOOTH",
"615 607 LINE SMOOTH",
"684 607 OFFCURVE",
"720 593 OFFCURVE",
"723 566 CURVE SMOOTH",
"724 557 OFFCURVE",
"723 544 OFFCURVE",
"720 527 CURVE SMOOTH",
"704 437 LINE",
"705 426 OFFCURVE",
"717 421 OFFCURVE",
"738 421 CURVE SMOOTH",
"759 421 OFFCURVE",
"769 426 OFFCURVE",
"771 436 CURVE",
"782 554 OFFCURVE",
"808 697 OFFCURVE",
"850 864 CURVE",
"849 874 OFFCURVE",
"837 879 OFFCURVE",
"814 879 CURVE SMOOTH",
"791 879 OFFCURVE",
"779 874 OFFCURVE",
"777 864 CURVE SMOOTH",
"760 764 LINE SMOOTH",
"753 725 OFFCURVE",
"738 700 OFFCURVE",
"717 688 CURVE SMOOTH",
"703 680 OFFCURVE",
"673 676 OFFCURVE",
"627 676 CURVE SMOOTH",
"435 676 LINE SMOOTH",
"416 676 OFFCURVE",
"404 683 OFFCURVE",
"404 698 CURVE SMOOTH",
"404 702 OFFCURVE",
"404 707 OFFCURVE",
"404 713 CURVE",
"506 1267 LINE SMOOTH",
"509 1282 OFFCURVE",
"519 1289 OFFCURVE",
"538 1289 CURVE SMOOTH",
"598 1289 OFFCURVE",
"700 1287 OFFCURVE",
"843 1280 CURVE SMOOTH",
"927 1276 OFFCURVE",
"1046 1215 OFFCURVE",
"1054 1088 CURVE SMOOTH",
"1055 1073 OFFCURVE",
"1054 1047 OFFCURVE",
"1051 1010 CURVE",
"1052 1001 OFFCURVE",
"1065 996 OFFCURVE",
"1090 996 CURVE SMOOTH",
"1115 996 OFFCURVE",
"1129 1001 OFFCURVE",
"1131 1010 CURVE SMOOTH",
"1187 1320 LINE SMOOTH",
"1188 1327 OFFCURVE",
"1188 1333 OFFCURVE",
"1188 1336 CURVE SMOOTH",
"1188 1351 OFFCURVE",
"1164 1358 OFFCURVE",
"1123 1358 CURVE SMOOTH",
"941 1358 OFFCURVE",
"648 1354 OFFCURVE",
"469 1354 CURVE",
"673 1355 OFFCURVE",
"564 1354 OFFCURVE",
"469 1354 CURVE SMOOTH",
"374 1354 OFFCURVE",
"282 1353 OFFCURVE",
"192 1358 CURVE SMOOTH",
"175 1359 OFFCURVE",
"160 1282 OFFCURVE",
"181 1282 CURVE SMOOTH",
"286 1282 OFFCURVE",
"342 1256 OFFCURVE",
"346 1205 CURVE SMOOTH",
"347 1192 OFFCURVE",
"347 1181 OFFCURVE",
"345 1172 CURVE SMOOTH",
"166 186 LINE SMOOTH",
"148 86 OFFCURVE",
"92 69 OFFCURVE",
"-35 69 CURVE SMOOTH",
"-52 69 OFFCURVE",
"-68 -7 OFFCURVE",
"-47 -7 CURVE",
"41 -2 OFFCURVE",
"145 0 OFFCURVE",
"264 0 CURVE SMOOTH",
"383 0 OFFCURVE",
"524 -1 OFFCURVE",
"687 -4 CURVE",
"530 0 OFFCURVE",
"833 -7 OFFCURVE",
"977 -7 CURVE SMOOTH",
"990 -7 OFFCURVE",
"999 2 OFFCURVE",
"1002 19 CURVE SMOOTH"
);
}
);
};
layerId = "98F9B6AB-A1D0-4874-9186-59FDE6DAF116";
paths = (
{
closed = 1;
nodes = (
"969 0 LINE",
"1030 342 LINE",
"965 342 LINE",
"955 290 OFFCURVE",
"944 254 OFFCURVE",
"928 222 CURVE SMOOTH",
"877 120 OFFCURVE",
"789 65 OFFCURVE",
"656 61 CURVE SMOOTH",
"420 54 LINE SMOOTH",
"385 53 OFFCURVE",
"356 65 OFFCURVE",
"334 86 CURVE SMOOTH",
"297 121 OFFCURVE",
"286 179 OFFCURVE",
"299 254 CURVE SMOOTH",
"362 612 LINE",
"596 612 LINE SMOOTH",
"700 612 OFFCURVE",
"706 574 OFFCURVE",
"696 517 CURVE SMOOTH",
"680 425 LINE",
"739 425 LINE",
"818 872 LINE",
"759 872 LINE",
"744 788 LINE SMOOTH",
"730 709 OFFCURVE",
"711 671 OFFCURVE",
"607 671 CURVE SMOOTH",
"373 671 LINE",
"483 1297 LINE",
"807 1290 LINE SMOOTH",
"888 1288 OFFCURVE",
"947 1267 OFFCURVE",
"982 1226 CURVE SMOOTH",
"1022 1180 OFFCURVE",
"1033 1111 OFFCURVE",
"1015 1008 CURVE",
"1080 1008 LINE",
"1142 1358 LINE",
"185 1358 LINE",
"185 1300 LINE",
"310 1300 OFFCURVE",
"355 1265 OFFCURVE",
"343 1195 CURVE SMOOTH",
"162 163 LINE SMOOTH",
"150 93 OFFCURVE",
"91 58 OFFCURVE",
"-44 58 CURVE",
"-44 0 LINE"
);
}
);
userData = {
assembly = "NPUSHB[ ]\011/* 11 values pushed */
28 1 2 3 44 16 2 5 2 2 76 
MPPEM[ ]\011/* MeasurePixelPerEm */
PUSHB[ ]\011/* 1 value pushed */
45 
LT[ ]\011/* LessThan */
IF[ ]\011/* If */
NPUSHB[ ]\011/* 31 values pushed */
0 5 0 6 1 5 6 103 4 1 2 2 3 95 0 3 3 92 77 7 1 1 1 0 95 0 0 0 93 0 78 
ELSE[ ]\011/* Else */
MPPEM[ ]\011/* MeasurePixelPerEm */
PUSHB[ ]\011/* 1 value pushed */
57 
LT[ ]\011/* LessThan */
IF[ ]\011/* If */
NPUSHB[ ]\011/* 28 values pushed */
0 5 0 6 1 5 6 103 7 1 1 0 0 1 0 99 4 1 2 2 3 95 0 3 3 92 2 78 
ELSE[ ]\011/* Else */
MPPEM[ ]\011/* MeasurePixelPerEm */
PUSHB[ ]\011/* 1 value pushed */
136 
LT[ ]\011/* LessThan */
IF[ ]\011/* If */
NPUSHB[ ]\011/* 35 values pushed */
0 3 4 1 2 5 3 2 105 0 5 0 6 1 5 6 103 7 1 1 0 0 1 89 7 1 1 1 0 95 0 0 1 0 79 
ELSE[ ]\011/* Else */
NPUSHB[ ]\011/* 37 values pushed */
0 1 6 0 6 1 0 128 0 0 0 132 0 3 4 1 2 5 3 2 105 0 5 6 6 5 87 0 5 5 6 95 0 6 5 6 79 
EIF[ ]\011/* EndIf */
EIF[ ]\011/* EndIf */
EIF[ ]\011/* EndIf */
NPUSHB[ ]\011/* 13 values pushed */
77 74 69 66 53 75 99 22 35 81 8 12 28 
CALL[ ]\011/* CallFunction */";
};
width = 1089;
},
{
anchors = (
{
name = bottom;
position = "{528, 0}";
},
{
name = ogonek;
position = "{1011, 10}";
},
{
name = top;
position = "{748, 1363}";
},
{
name = topleft;
position = "{185, 1363}";
}
);
background = {
paths = (
{
closed = 1;
nodes = (
"1103 383 LINE",
"1107 399 OFFCURVE",
"1010 399 OFFCURVE",
"1008 383 QCURVE",
"931 97 OFFCURVE",
"765 90 QCURVE SMOOTH",
"475 78 LINE SMOOTH",
"377 74 OFFCURVE",
"370 156 QCURVE SMOOTH",
"368 190 OFFCURVE",
"375 223 QCURVE SMOOTH",
"449 571 LINE SMOOTH",
"455 598 OFFCURVE",
"475 598 QCURVE SMOOTH",
"676 598 LINE SMOOTH",
"715 598 OFFCURVE",
"753 576 OFFCURVE",
"748 547 QCURVE SMOOTH",
"726 418 LINE",
"722 401 OFFCURVE",
"808 402 OFFCURVE",
"810 418 QCURVE SMOOTH",
"847 670 OFFCURVE",
"907 885 QCURVE SMOOTH",
"912 903 OFFCURVE",
"821 903 OFFCURVE",
"817 885 QCURVE SMOOTH",
"782 739 LINE SMOOTH",
"775 710 OFFCURVE",
"753 702 QCURVE",
"731 692 OFFCURVE",
"684 692 QCURVE SMOOTH",
"504 692 LINE",
"480 693 OFFCURVE",
"480 711 QCURVE SMOOTH",
"480 717 OFFCURVE",
"481 725 QCURVE",
"596 1233 LINE",
"601 1264 OFFCURVE",
"640 1264 QCURVE SMOOTH",
"763 1264 OFFCURVE",
"911 1257 QCURVE SMOOTH",
"996 1253 OFFCURVE",
"1087 1143 OFFCURVE",
"1091 1094 QCURVE SMOOTH",
"1095 1043 OFFCURVE",
"1093 1010 QCURVE",
"1090 993 OFFCURVE",
"1182 994 OFFCURVE",
"1187 1012 QCURVE",
"1245 1300 LINE SMOOTH",
"1248 1315 OFFCURVE",
"1247 1327 QCURVE",
"1243 1358 OFFCURVE",
"1180 1358 QCURVE SMOOTH",
"1080 1358 OFFCURVE",
"586 1354 OFFCURVE",
"309 1354 OFFCURVE",
"206 1358 QCURVE",
"193 1358 OFFCURVE",
"181 1292 OFFCURVE",
"183 1264 OFFCURVE",
"191 1264 QCURVE SMOOTH",
"337 1264 OFFCURVE",
"343 1196 QCURVE",
"345 1169 OFFCURVE",
"342 1157 QCURVE SMOOTH",
"142 217 LINE SMOOTH",
"125 137 OFFCURVE",
"53 86 OFFCURVE",
"-45 86 QCURVE SMOOTH",
"-59 86 OFFCURVE",
"-71 18 OFFCURVE",
"-65 -8 OFFCURVE",
"-57 -8 QCURVE",
"118 0 OFFCURVE",
"341 0 OFFCURVE",
"879 -8 OFFCURVE",
"979 -8 QCURVE SMOOTH",
"1028 -8 OFFCURVE",
"1033 20 QCURVE SMOOTH"
);
}
);
};
layerId = "2899D53B-47B8-4BF9-853D-5BC6961E25E7";
paths = (
{
closed = 1;
nodes = (
"1085 0 LINE",
"1148 354 LINE",
"1045 354 LINE",
"1035 299 OFFCURVE",
"1022 260 OFFCURVE",
"1004 227 CURVE SMOOTH",
"956 137 OFFCURVE",
"880 92 OFFCURVE",
"775 90 CURVE SMOOTH",
"551 86 LINE SMOOTH",
"522 86 OFFCURVE",
"497 93 OFFCURVE",
"473 106 CURVE SMOOTH",
"428 131 OFFCURVE",
"410 169 OFFCURVE",
"419 221 CURVE SMOOTH",
"485 594 LINE",
"649 594 LINE SMOOTH",
"731 594 OFFCURVE",
"767 565 OFFCURVE",
"756 506 CURVE SMOOTH",
"741 417 LINE",
"842 417 LINE",
"924 881 LINE",
"823 881 LINE",
"804 778 LINE SMOOTH",
"794 717 OFFCURVE",
"747 686 OFFCURVE",
"665 686 CURVE SMOOTH",
"501 686 LINE",
"604 1266 LINE",
"926 1255 LINE SMOOTH",
"968 1254 OFFCURVE",
"1006 1237 OFFCURVE",
"1042 1206 CURVE SMOOTH",
"1098 1156 OFFCURVE",
"1119 1087 OFFCURVE",
"1102 991 CURVE",
"1202 991 LINE",
"1267 1358 LINE",
"192 1358 LINE",
"192 1272 LINE",
"319 1272 OFFCURVE",
"356 1238 OFFCURVE",
"343 1167 CURVE SMOOTH",
"171 191 LINE SMOOTH",
"158 120 OFFCURVE",
"95 86 OFFCURVE",
"-40 86 CURVE",
"-40 0 LINE"
);
}
);
userData = {
assembly = "MPPEM[ ]\011/* MeasurePixelPerEm */
PUSHB[ ]\011/* 1 value pushed */
146 
LT[ ]\011/* LessThan */
IF[ ]\011/* If */
NPUSHB[ ]\011/* 14 values pushed */
28 1 2 3 16 1 4 2 44 1 6 7 3 76 
ELSE[ ]\011/* Else */
NPUSHB[ ]\011/* 14 values pushed */
28 1 2 3 16 1 4 5 44 1 6 7 3 76 
EIF[ ]\011/* EndIf */
MPPEM[ ]\011/* MeasurePixelPerEm */
PUSHB[ ]\011/* 1 value pushed */
47 
LT[ ]\011/* LessThan */
IF[ ]\011/* If */
NPUSHB[ ]\011/* 61 values pushed */
0 4 2 7 2 4 7 128 0 7 6 2 7 6 126 0 8 9 11 9 8 11 128 0 11 1 9 11 1 126 0 6 0 9 8 6 9 103 5 1 2 2 3 95 0 3 3 31 77 10 1 1 1 0 96 0 0 0 32 0 78 
ELSE[ ]\011/* Else */
MPPEM[ ]\011/* MeasurePixelPerEm */
PUSHB[ ]\011/* 1 value pushed */
59 
LT[ ]\011/* LessThan */
IF[ ]\011/* If */
NPUSHB[ ]\011/* 58 values pushed */
0 4 2 7 2 4 7 128 0 7 6 2 7 6 126 0 8 9 11 9 8 11 128 0 11 1 9 11 1 126 0 6 0 9 8 6 9 103 10 1 1 0 0 1 0 100 5 1 2 2 3 95 0 3 3 31 2 78 
ELSE[ ]\011/* Else */
MPPEM[ ]\011/* MeasurePixelPerEm */
PUSHB[ ]\011/* 1 value pushed */
98 
LT[ ]\011/* LessThan */
IF[ ]\011/* If */
NPUSHB[ ]\011/* 65 values pushed */
0 4 2 7 2 4 7 128 0 7 6 2 7 6 126 0 8 9 11 9 8 11 128 0 11 1 9 11 1 126 0 3 5 1 2 4 3 2 105 0 6 0 9 8 6 9 103 10 1 1 0 0 1 89 10 1 1 1 0 96 0 0 1 0 80 
ELSE[ ]\011/* Else */
MPPEM[ ]\011/* MeasurePixelPerEm */
PUSHB[ ]\011/* 1 value pushed */
146 
LT[ ]\011/* LessThan */
IF[ ]\011/* If */
NPUSHB[ ]\011/* 66 values pushed */
0 4 2 7 2 4 7 128 0 7 6 2 7 6 126 0 8 9 11 9 8 11 128 0 11 1 9 11 1 126 0 1 0 9 1 0 126 0 0 0 132 0 3 5 1 2 4 3 2 105 0 6 9 9 6 87 0 6 6 9 95 0 9 6 9 79 
ELSE[ ]\011/* Else */
NPUSHB[ ]\011/* 72 values pushed */
0 2 3 5 5 2 114 0 4 5 7 5 4 7 128 0 7 6 5 7 6 126 0 8 9 11 9 8 11 128 0 11 1 9 11 1 126 0 1 0 9 1 0 126 0 0 0 132 0 3 0 5 4 3 5 103 0 6 9 9 6 87 0 6 6 9 95 0 9 6 9 79 
EIF[ ]\011/* EndIf */
EIF[ ]\011/* EndIf */
EIF[ ]\011/* EndIf */
EIF[ ]\011/* EndIf */
NPUSHB[ ]\011/* 18 values pushed */
79 78 76 73 68 65 20 21 53 54 21 99 22 35 81 12 8 31 
CALL[ ]\011/* CallFunction */";
};
width = 1205;
},
{
associatedMasterId = "2899D53B-47B8-4BF9-853D-5BC6961E25E7";
background = {
paths = (
{
closed = 1;
nodes = (
"1206 383 LINE",
"1210 399 OFFCURVE",
"1113 399 OFFCURVE",
"1111 383 QCURVE",
"1034 96 OFFCURVE",
"868 90 QCURVE SMOOTH",
"578 78 LINE SMOOTH",
"481 74 OFFCURVE",
"473 156 QCURVE SMOOTH",
"470 190 OFFCURVE",
"478 223 QCURVE SMOOTH",
"552 571 LINE SMOOTH",
"558 598 OFFCURVE",
"578 598 QCURVE SMOOTH",
"779 598 LINE SMOOTH",
"818 598 OFFCURVE",
"857 576 OFFCURVE",
"851 547 QCURVE SMOOTH",
"829 418 LINE",
"825 401 OFFCURVE",
"911 402 OFFCURVE",
"913 418 QCURVE SMOOTH",
"954 674 OFFCURVE",
"1010 885 QCURVE SMOOTH",
"1014 903 OFFCURVE",
"924 903 OFFCURVE",
"920 885 QCURVE SMOOTH",
"885 739 LINE SMOOTH",
"878 710 OFFCURVE",
"856 702 QCURVE",
"834 692 OFFCURVE",
"787 692 QCURVE SMOOTH",
"607 692 LINE",
"584 693 OFFCURVE",
"583 711 QCURVE SMOOTH",
"582 717 OFFCURVE",
"584 725 QCURVE",
"699 1233 LINE",
"704 1264 OFFCURVE",
"743 1264 QCURVE SMOOTH",
"866 1265 OFFCURVE",
"1014 1257 QCURVE SMOOTH",
"1099 1251 OFFCURVE",
"1190 1143 OFFCURVE",
"1194 1094 QCURVE SMOOTH",
"1199 1043 OFFCURVE",
"1196 1010 QCURVE",
"1193 993 OFFCURVE",
"1285 994 OFFCURVE",
"1290 1012 QCURVE",
"1348 1300 LINE SMOOTH",
"1351 1315 OFFCURVE",
"1350 1327 QCURVE",
"1346 1358 OFFCURVE",
"1283 1358 QCURVE SMOOTH",
"1183 1358 OFFCURVE",
"689 1354 OFFCURVE",
"412 1354 OFFCURVE",
"309 1358 QCURVE",
"296 1358 OFFCURVE",
"284 1292 OFFCURVE",
"286 1264 OFFCURVE",
"294 1264 QCURVE SMOOTH",
"440 1264 OFFCURVE",
"446 1196 QCURVE",
"448 1169 OFFCURVE",
"445 1157 QCURVE SMOOTH",
"245 217 LINE SMOOTH",
"227 137 OFFCURVE",
"156 86 OFFCURVE",
"58 86 QCURVE SMOOTH",
"44 86 OFFCURVE",
"32 18 OFFCURVE",
"38 -8 OFFCURVE",
"46 -8 QCURVE",
"221 0 OFFCURVE",
"444 0 OFFCURVE",
"982 -8 OFFCURVE",
"1082 -8 QCURVE SMOOTH",
"1131 -9 OFFCURVE",
"1136 20 QCURVE SMOOTH"
);
}
);
};
hints = (
{
origin = "{0, 40}";
scale = "{1, -1}";
type = Corner;
name = _corner.halfserif;
},
{
origin = "{0, 41}";
type = Corner;
name = _corner.halfserif;
}
);
layerId = "437804EC-007B-4B28-AE22-75F8E74DE2C2";
name = "Aug 14 18, 12:17";
paths = (
{
closed = 1;
nodes = (
"1066 0 LINE",
"1129 354 LINE",
"1026 354 LINE",
"1016 299 OFFCURVE",
"1003 260 OFFCURVE",
"985 227 CURVE SMOOTH",
"937 137 OFFCURVE",
"861 92 OFFCURVE",
"756 90 CURVE SMOOTH",
"532 86 LINE",
"503 86 OFFCURVE",
"478 93 OFFCURVE",
"454 106 CURVE SMOOTH",
"409 131 OFFCURVE",
"391 169 OFFCURVE",
"400 221 CURVE SMOOTH",
"466 594 LINE",
"630 594 LINE SMOOTH",
"712 594 OFFCURVE",
"748 565 OFFCURVE",
"737 506 CURVE SMOOTH",
"722 417 LINE",
"823 417 LINE",
"905 881 LINE",
"804 881 LINE",
"785 778 LINE SMOOTH",
"775 717 OFFCURVE",
"728 686 OFFCURVE",
"646 686 CURVE SMOOTH",
"482 686 LINE",
"585 1266 LINE",
"907 1255 LINE SMOOTH",
"949 1254 OFFCURVE",
"987 1237 OFFCURVE",
"1023 1206 CURVE SMOOTH",
"1079 1156 OFFCURVE",
"1100 1087 OFFCURVE",
"1083 991 CURVE",
"1183 991 LINE",
"1248 1358 LINE",
"358 1358 LINE",
"118 0 LINE"
);
}
);
userData = {
assembly = "MPPEM[ ]\011/* MeasurePixelPerEm */
PUSHB[ ]\011/* 1 value pushed */
146 
LT[ ]\011/* LessThan */
IF[ ]\011/* If */
NPUSHB[ ]\011/* 14 values pushed */
28 1 2 3 16 1 4 2 44 1 6 7 3 76 
ELSE[ ]\011/* Else */
NPUSHB[ ]\011/* 14 values pushed */
28 1 2 3 16 1 4 5 44 1 6 7 3 76 
EIF[ ]\011/* EndIf */
MPPEM[ ]\011/* MeasurePixelPerEm */
PUSHB[ ]\011/* 1 value pushed */
47 
LT[ ]\011/* LessThan */
IF[ ]\011/* If */
NPUSHB[ ]\011/* 61 values pushed */
0 4 2 7 2 4 7 128 0 7 6 2 7 6 126 0 8 9 11 9 8 11 128 0 11 1 9 11 1 126 0 6 0 9 8 6 9 103 5 1 2 2 3 95 0 3 3 31 77 10 1 1 1 0 96 0 0 0 32 0 78 
ELSE[ ]\011/* Else */
MPPEM[ ]\011/* MeasurePixelPerEm */
PUSHB[ ]\011/* 1 value pushed */
59 
LT[ ]\011/* LessThan */
IF[ ]\011/* If */
NPUSHB[ ]\011/* 58 values pushed */
0 4 2 7 2 4 7 128 0 7 6 2 7 6 126 0 8 9 11 9 8 11 128 0 11 1 9 11 1 126 0 6 0 9 8 6 9 103 10 1 1 0 0 1 0 100 5 1 2 2 3 95 0 3 3 31 2 78 
ELSE[ ]\011/* Else */
MPPEM[ ]\011/* MeasurePixelPerEm */
PUSHB[ ]\011/* 1 value pushed */
98 
LT[ ]\011/* LessThan */
IF[ ]\011/* If */
NPUSHB[ ]\011/* 65 values pushed */
0 4 2 7 2 4 7 128 0 7 6 2 7 6 126 0 8 9 11 9 8 11 128 0 11 1 9 11 1 126 0 3 5 1 2 4 3 2 105 0 6 0 9 8 6 9 103 10 1 1 0 0 1 89 10 1 1 1 0 96 0 0 1 0 80 
ELSE[ ]\011/* Else */
MPPEM[ ]\011/* MeasurePixelPerEm */
PUSHB[ ]\011/* 1 value pushed */
146 
LT[ ]\011/* LessThan */
IF[ ]\011/* If */
NPUSHB[ ]\011/* 66 values pushed */
0 4 2 7 2 4 7 128 0 7 6 2 7 6 126 0 8 9 11 9 8 11 128 0 11 1 9 11 1 126 0 1 0 9 1 0 126 0 0 0 132 0 3 5 1 2 4 3 2 105 0 6 9 9 6 87 0 6 6 9 95 0 9 6 9 79 
ELSE[ ]\011/* Else */
NPUSHB[ ]\011/* 72 values pushed */
0 2 3 5 5 2 114 0 4 5 7 5 4 7 128 0 7 6 5 7 6 126 0 8 9 11 9 8 11 128 0 11 1 9 11 1 126 0 1 0 9 1 0 126 0 0 0 132 0 3 0 5 4 3 5 103 0 6 9 9 6 87 0 6 6 9 95 0 9 6 9 79 
EIF[ ]\011/* EndIf */
EIF[ ]\011/* EndIf */
EIF[ ]\011/* EndIf */
EIF[ ]\011/* EndIf */
NPUSHB[ ]\011/* 18 values pushed */
79 78 76 73 68 65 20 21 53 54 21 99 22 35 81 12 8 31 
CALL[ ]\011/* CallFunction */";
};
width = 1255;
}
);
leftMetricsKey = H;
note = E;
rightKerningGroup = AE;
unicode = 0045;
},
{
glyphname = Eogonek;
lastChange = "2018-08-18 12:30:45 +0000";
layers = (
{
background = {
paths = (
{
closed = 1;
nodes = (
"747 0 LINE",
"585 -99 OFFCURVE",
"509 -191 OFFCURVE",
"509 -288 CURVE SMOOTH",
"509 -337 OFFCURVE",
"521 -484 OFFCURVE",
"705 -484 CURVE SMOOTH",
"793 -484 OFFCURVE",
"860 -454 OFFCURVE",
"904 -394 CURVE",
"888 -369 LINE",
"846 -388 OFFCURVE",
"810 -398 OFFCURVE",
"779 -398 CURVE SMOOTH",
"653 -398 OFFCURVE",
"640 -298 OFFCURVE",
"640 -253 CURVE SMOOTH",
"641 -123 OFFCURVE",
"785 0 OFFCURVE",
"937 0 CURVE SMOOTH",
"979 0 LINE",
"1040 342 LINE",
"975 342 LINE",
"965 290 OFFCURVE",
"954 254 OFFCURVE",
"938 222 CURVE SMOOTH",
"887 120 OFFCURVE",
"799 65 OFFCURVE",
"666 61 CURVE SMOOTH",
"430 54 LINE SMOOTH",
"395 53 OFFCURVE",
"366 65 OFFCURVE",
"344 86 CURVE SMOOTH",
"307 121 OFFCURVE",
"296 179 OFFCURVE",
"309 254 CURVE SMOOTH",
"372 612 LINE",
"606 612 LINE SMOOTH",
"710 612 OFFCURVE",
"716 574 OFFCURVE",
"706 517 CURVE SMOOTH",
"690 425 LINE",
"749 425 LINE",
"828 872 LINE",
"769 872 LINE",
"754 788 LINE SMOOTH",
"740 709 OFFCURVE",
"721 671 OFFCURVE",
"617 671 CURVE SMOOTH",
"383 671 LINE",
"493 1297 LINE",
"817 1290 LINE SMOOTH",
"898 1288 OFFCURVE",
"957 1267 OFFCURVE",
"992 1226 CURVE SMOOTH",
"1032 1180 OFFCURVE",
"1043 1111 OFFCURVE",
"1025 1008 CURVE",
"1090 1008 LINE",
"1152 1358 LINE",
"185 1358 LINE",
"185 1300 LINE",
"320 1300 OFFCURVE",
"365 1265 OFFCURVE",
"353 1195 CURVE SMOOTH",
"172 163 LINE SMOOTH",
"160 93 OFFCURVE",
"81 58 OFFCURVE",
"-34 58 CURVE",
"-34 0 LINE"
);
}
);
};
layerId = "98F9B6AB-A1D0-4874-9186-59FDE6DAF116";
paths = (
{
closed = 1;
nodes = (
"747 0 LINE",
"585 -99 OFFCURVE",
"509 -191 OFFCURVE",
"509 -288 CURVE SMOOTH",
"509 -337 OFFCURVE",
"521 -484 OFFCURVE",
"705 -484 CURVE SMOOTH",
"793 -484 OFFCURVE",
"860 -454 OFFCURVE",
"904 -394 CURVE",
"888 -369 LINE",
"846 -388 OFFCURVE",
"810 -398 OFFCURVE",
"779 -398 CURVE SMOOTH",
"653 -398 OFFCURVE",
"640 -298 OFFCURVE",
"640 -253 CURVE SMOOTH",
"641 -123 OFFCURVE",
"785 0 OFFCURVE",
"937 0 CURVE SMOOTH",
"979 0 LINE",
"1040 342 LINE",
"975 342 LINE",
"965 290 OFFCURVE",
"954 254 OFFCURVE",
"938 222 CURVE SMOOTH",
"887 120 OFFCURVE",
"799 65 OFFCURVE",
"666 61 CURVE SMOOTH",
"430 54 LINE SMOOTH",
"395 53 OFFCURVE",
"366 65 OFFCURVE",
"344 86 CURVE SMOOTH",
"307 121 OFFCURVE",
"296 179 OFFCURVE",
"309 254 CURVE SMOOTH",
"372 612 LINE",
"606 612 LINE SMOOTH",
"710 612 OFFCURVE",
"716 574 OFFCURVE",
"706 517 CURVE SMOOTH",
"690 425 LINE",
"749 425 LINE",
"828 872 LINE",
"769 872 LINE",
"754 788 LINE SMOOTH",
"740 709 OFFCURVE",
"721 671 OFFCURVE",
"617 671 CURVE SMOOTH",
"383 671 LINE",
"493 1297 LINE",
"817 1290 LINE SMOOTH",
"898 1288 OFFCURVE",
"957 1267 OFFCURVE",
"992 1226 CURVE SMOOTH",
"1032 1180 OFFCURVE",
"1043 1111 OFFCURVE",
"1025 1008 CURVE",
"1090 1008 LINE",
"1152 1358 LINE",
"185 1358 LINE",
"185 1300 LINE",
"320 1300 OFFCURVE",
"366 1265 OFFCURVE",
"355 1205 CURVE SMOOTH",
"172 163 LINE SMOOTH",
"160 93 OFFCURVE",
"81 58 OFFCURVE",
"-34 58 CURVE",
"-34 0 LINE"
);
}
);
userData = {
assembly = "MPPEM[ ]\011/* MeasurePixelPerEm */
PUSHB[ ]\011/* 1 value pushed */
146 
LT[ ]\011/* LessThan */
IF[ ]\011/* If */
NPUSHB[ ]\011/* 15 values pushed */
34 1 3 4 50 22 2 6 3 99 1 10 1 3 76 
ELSE[ ]\011/* Else */
NPUSHB[ ]\011/* 15 values pushed */
34 1 3 4 50 22 2 6 3 99 1 10 9 3 76 
EIF[ ]\011/* EndIf */
MPPEM[ ]\011/* MeasurePixelPerEm */
PUSHB[ ]\011/* 1 value pushed */
45 
LT[ ]\011/* LessThan */
IF[ ]\011/* If */
NPUSHB[ ]\011/* 39 values pushed */
0 6 0 7 2 6 7 103 0 10 0 0 10 0 101 5 1 3 3 4 95 0 4 4 92 77 8 1 2 2 1 97 9 1 1 1 93 1 78 
ELSE[ ]\011/* Else */
MPPEM[ ]\011/* MeasurePixelPerEm */
PUSHB[ ]\011/* 1 value pushed */
57 
LT[ ]\011/* LessThan */
IF[ ]\011/* If */
NPUSHB[ ]\011/* 37 values pushed */
0 6 0 7 2 6 7 103 8 1 2 9 1 1 10 2 1 105 0 10 0 0 10 0 101 5 1 3 3 4 95 0 4 4 92 3 78 
ELSE[ ]\011/* Else */
MPPEM[ ]\011/* MeasurePixelPerEm */
PUSHB[ ]\011/* 1 value pushed */
136 
LT[ ]\011/* LessThan */
IF[ ]\011/* If */
NPUSHB[ ]\011/* 43 values pushed */
0 4 5 1 3 6 4 3 105 0 6 0 7 2 6 7 103 8 1 2 9 1 1 10 2 1 105 0 10 0 0 10 89 0 10 10 0 97 0 0 10 0 81 
ELSE[ ]\011/* Else */
MPPEM[ ]\011/* MeasurePixelPerEm */
PUSHB[ ]\011/* 1 value pushed */
146 
LT[ ]\011/* LessThan */
IF[ ]\011/* If */
NPUSHB[ ]\011/* 49 values pushed */
0 2 7 1 7 2 1 128 9 1 1 10 7 1 10 126 0 4 5 1 3 6 4 3 105 0 6 0 7 2 6 7 103 0 10 0 0 10 89 0 10 10 0 97 0 0 10 0 81 
ELSE[ ]\011/* Else */
NPUSHB[ ]\011/* 54 values pushed */
0 2 7 1 7 2 1 128 0 1 9 7 1 9 126 0 9 10 1 9 112 0 4 5 1 3 6 4 3 105 0 6 0 7 2 6 7 103 0 10 0 0 10 89 0 10 10 0 97 0 0 10 0 81 
EIF[ ]\011/* EndIf */
EIF[ ]\011/* EndIf */
EIF[ ]\011/* EndIf */
EIF[ ]\011/* EndIf */
NPUSHB[ ]\011/* 18 values pushed */
96 94 91 89 83 80 75 72 53 75 99 22 35 69 33 11 12 29 
CALL[ ]\011/* CallFunction */";
};
width = 1099;
},
{
background = {
paths = (
{
closed = 1;
nodes = (
"1224 383 LINE",
"1228 399 OFFCURVE",
"1131 399 OFFCURVE",
"1129 383 QCURVE",
"1052 96 OFFCURVE",
"886 90 QCURVE SMOOTH",
"596 78 LINE SMOOTH",
"499 74 OFFCURVE",
"491 156 QCURVE SMOOTH",
"488 190 OFFCURVE",
"496 223 QCURVE SMOOTH",
"570 571 LINE SMOOTH",
"576 598 OFFCURVE",
"596 598 QCURVE SMOOTH",
"797 598 LINE SMOOTH",
"836 598 OFFCURVE",
"855 586 QCURVE",
"875 576 OFFCURVE",
"869 547 QCURVE SMOOTH",
"848 418 LINE",
"843 401 OFFCURVE",
"929 402 OFFCURVE",
"932 418 QCURVE SMOOTH",
"972 674 OFFCURVE",
"1028 885 QCURVE SMOOTH",
"1032 903 OFFCURVE",
"942 903 OFFCURVE",
"938 885 QCURVE SMOOTH",
"903 739 LINE SMOOTH",
"896 710 OFFCURVE",
"874 702 QCURVE",
"852 692 OFFCURVE",
"805 692 QCURVE SMOOTH",
"625 692 LINE",
"602 693 OFFCURVE",
"601 711 QCURVE SMOOTH",
"600 717 OFFCURVE",
"602 725 QCURVE",
"717 1233 LINE",
"723 1264 OFFCURVE",
"762 1264 QCURVE SMOOTH",
"886 1265 OFFCURVE",
"1032 1257 QCURVE SMOOTH",
"1117 1251 OFFCURVE",
"1208 1143 OFFCURVE",
"1217 1043 OFFCURVE",
"1214 1010 QCURVE",
"1211 993 OFFCURVE",
"1303 994 OFFCURVE",
"1308 1012 QCURVE",
"1366 1300 LINE SMOOTH",
"1369 1315 OFFCURVE",
"1368 1327 QCURVE",
"1364 1358 OFFCURVE",
"1301 1358 QCURVE SMOOTH",
"1201 1358 OFFCURVE",
"707 1354 OFFCURVE",
"430 1354 OFFCURVE",
"327 1358 QCURVE",
"314 1358 OFFCURVE",
"302 1292 OFFCURVE",
"305 1264 OFFCURVE",
"313 1264 QCURVE SMOOTH",
"459 1264 OFFCURVE",
"464 1196 QCURVE",
"466 1169 OFFCURVE",
"463 1157 QCURVE SMOOTH",
"263 217 LINE SMOOTH",
"245 137 OFFCURVE",
"174 86 OFFCURVE",
"76 86 QCURVE SMOOTH",
"62 86 OFFCURVE",
"51 18 OFFCURVE",
"56 -8 OFFCURVE",
"64 -8 QCURVE",
"239 0 OFFCURVE",
"462 0 OFFCURVE",
"730 -4 QCURVE SMOOTH",
"829 -6 OFFCURVE",
"905 -6 QCURVE",
"856 -37 OFFCURVE",
"809 -82 QCURVE SMOOTH",
"674 -213 OFFCURVE",
"684 -334 QCURVE SMOOTH",
"690 -403 OFFCURVE",
"790 -487 OFFCURVE",
"874 -487 QCURVE SMOOTH",
"1007 -487 OFFCURVE",
"1083 -381 QCURVE",
"1083 -373 LINE",
"1080 -348 OFFCURVE",
"1063 -342 QCURVE",
"1025 -373 OFFCURVE",
"966 -373 QCURVE SMOOTH",
"925 -373 OFFCURVE",
"859 -324 OFFCURVE",
"856 -283 QCURVE SMOOTH",
"848 -195 OFFCURVE",
"994 -8 OFFCURVE",
"1100 -8 QCURVE SMOOTH",
"1149 -9 OFFCURVE",
"1154 20 QCURVE SMOOTH"
);
}
);
};
layerId = "2899D53B-47B8-4BF9-853D-5BC6961E25E7";
paths = (
{
closed = 1;
nodes = (
"889 0 LINE",
"794 -54 OFFCURVE",
"653 -182 OFFCURVE",
"653 -315 CURVE SMOOTH",
"653 -363 OFFCURVE",
"676 -487 OFFCURVE",
"844 -487 CURVE SMOOTH",
"933 -487 OFFCURVE",
"1002 -452 OFFCURVE",
"1053 -381 CURVE",
"1033 -342 LINE",
"1008 -363 OFFCURVE",
"975 -373 OFFCURVE",
"936 -373 CURVE SMOOTH",
"868 -373 OFFCURVE",
"825 -328 OFFCURVE",
"825 -266 CURVE SMOOTH",
"825 -151 OFFCURVE",
"944 0 OFFCURVE",
"1078 0 CURVE SMOOTH",
"1105 0 LINE",
"1168 354 LINE",
"1065 354 LINE",
"1055 299 OFFCURVE",
"1042 260 OFFCURVE",
"1024 227 CURVE SMOOTH",
"976 137 OFFCURVE",
"900 92 OFFCURVE",
"795 90 CURVE SMOOTH",
"571 86 LINE SMOOTH",
"542 86 OFFCURVE",
"517 93 OFFCURVE",
"493 106 CURVE SMOOTH",
"448 131 OFFCURVE",
"430 169 OFFCURVE",
"439 221 CURVE SMOOTH",
"505 594 LINE",
"669 594 LINE SMOOTH",
"751 594 OFFCURVE",
"787 565 OFFCURVE",
"776 506 CURVE SMOOTH",
"761 417 LINE",
"862 417 LINE",
"944 881 LINE",
"843 881 LINE",
"824 778 LINE SMOOTH",
"814 717 OFFCURVE",
"767 686 OFFCURVE",
"685 686 CURVE SMOOTH",
"521 686 LINE",
"624 1266 LINE",
"946 1255 LINE SMOOTH",
"988 1254 OFFCURVE",
"1026 1237 OFFCURVE",
"1062 1206 CURVE SMOOTH",
"1118 1156 OFFCURVE",
"1139 1087 OFFCURVE",
"1122 991 CURVE",
"1222 991 LINE",
"1287 1358 LINE",
"200 1358 LINE",
"200 1272 LINE",
"335 1272 OFFCURVE",
"376 1238 OFFCURVE",
"363 1167 CURVE SMOOTH",
"191 191 LINE SMOOTH",
"178 120 OFFCURVE",
"95 86 OFFCURVE",
"-40 86 CURVE",
"-40 0 LINE"
);
}
);
userData = {
assembly = "MPPEM[ ]\011/* MeasurePixelPerEm */
PUSHB[ ]\011/* 1 value pushed */
146 
LT[ ]\011/* LessThan */
IF[ ]\011/* If */
NPUSHB[ ]\011/* 23 values pushed */
49 1 5 6 37 1 7 5 64 1 9 10 10 1 1 0 4 76 12 1 1 1 75 
ELSE[ ]\011/* Else */
NPUSHB[ ]\011/* 23 values pushed */
49 1 5 6 37 1 7 8 64 1 9 10 10 1 1 0 4 76 12 1 1 1 75 
EIF[ ]\011/* EndIf */
MPPEM[ ]\011/* MeasurePixelPerEm */
PUSHB[ ]\011/* 1 value pushed */
57 
LT[ ]\011/* LessThan */
IF[ ]\011/* If */
NPUSHB[ ]\011/* 69 values pushed */
0 7 5 10 5 7 10 128 0 10 9 5 10 9 126 0 11 12 14 12 11 14 128 0 14 4 12 14 4 126 0 9 0 12 11 9 12 103 0 1 0 2 1 2 101 8 1 5 5 6 95 0 6 6 31 77 13 1 4 4 0 97 3 1 0 0 32 0 78 
ELSE[ ]\011/* Else */
MPPEM[ ]\011/* MeasurePixelPerEm */
PUSHB[ ]\011/* 1 value pushed */
59 
LT[ ]\011/* LessThan */
IF[ ]\011/* If */
NPUSHB[ ]\011/* 67 values pushed */
0 7 5 10 5 7 10 128 0 10 9 5 10 9 126 0 11 12 14 12 11 14 128 0 14 4 12 14 4 126 0 9 0 12 11 9 12 103 13 1 4 3 1 0 1 4 0 105 0 1 0 2 1 2 101 8 1 5 5 6 95 0 6 6 31 5 78 
ELSE[ ]\011/* Else */
MPPEM[ ]\011/* MeasurePixelPerEm */
PUSHB[ ]\011/* 1 value pushed */
93 
LT[ ]\011/* LessThan */
IF[ ]\011/* If */
NPUSHB[ ]\011/* 73 values pushed */
0 7 5 10 5 7 10 128 0 10 9 5 10 9 126 0 11 12 14 12 11 14 128 0 14 4 12 14 4 126 0 6 8 1 5 7 6 5 105 0 9 0 12 11 9 12 103 13 1 4 3 1 0 1 4 0 105 0 1 2 2 1 89 0 1 1 2 97 0 2 1 2 81 
ELSE[ ]\011/* Else */
MPPEM[ ]\011/* MeasurePixelPerEm */
PUSHB[ ]\011/* 1 value pushed */
98 
LT[ ]\011/* LessThan */
IF[ ]\011/* If */
NPUSHB[ ]\011/* 79 values pushed */
0 7 5 10 5 7 10 128 0 10 9 5 10 9 126 0 11 12 14 12 11 14 128 0 14 4 12 14 4 126 0 0 3 1 3 0 114 0 6 8 1 5 7 6 5 105 0 9 0 12 11 9 12 103 13 1 4 0 3 0 4 3 103 0 1 2 2 1 89 0 1 1 2 97 0 2 1 2 81 
ELSE[ ]\011/* Else */
MPPEM[ ]\011/* MeasurePixelPerEm */
PUSHB[ ]\011/* 1 value pushed */
146 
LT[ ]\011/* LessThan */
IF[ ]\011/* If */
NPUSHB[ ]\011/* 83 values pushed */
0 7 5 10 5 7 10 128 0 10 9 5 10 9 126 0 11 12 14 12 11 14 128 0 14 4 12 14 4 126 0 4 3 12 4 3 126 0 3 0 12 3 0 126 0 0 1 3 0 112 0 6 8 1 5 7 6 5 105 0 9 0 12 11 9 12 103 0 1 2 2 1 89 0 1 1 2 97 0 2 1 2 81 
ELSE[ ]\011/* Else */
NPUSHB[ ]\011/* 89 values pushed */
0 5 6 8 8 5 114 0 7 8 10 8 7 10 128 0 10 9 8 10 9 126 0 11 12 14 12 11 14 128 0 14 4 12 14 4 126 0 4 3 12 4 3 126 0 3 0 12 3 0 126 0 0 1 3 0 112 0 6 0 8 7 6 8 103 0 9 0 12 11 9 12 103 0 1 2 2 1 89 0 1 1 2 97 0 2 1 2 81 
EIF[ ]\011/* EndIf */
EIF[ ]\011/* EndIf */
EIF[ ]\011/* EndIf */
EIF[ ]\011/* EndIf */
EIF[ ]\011/* EndIf */
NPUSHB[ ]\011/* 24 values pushed */
100 99 97 94 89 86 81 80 76 75 70 67 53 21 99 22 35 86 37 36 33 15 8 31 
CALL[ ]\011/* CallFunction */";
};
width = 1240;
},
{
associatedMasterId = "98F9B6AB-A1D0-4874-9186-59FDE6DAF116";
background = {
paths = (
{
closed = 1;
nodes = (
"1059 -397 OFFCURVE",
"1060 -394 OFFCURVE",
"1059 -390 CURVE SMOOTH",
"1058 -381 OFFCURVE",
"1053 -375 OFFCURVE",
"1043 -373 CURVE",
"1001 -392 OFFCURVE",
"965 -402 OFFCURVE",
"934 -402 CURVE SMOOTH",
"850 -402 OFFCURVE",
"803 -359 OFFCURVE",
"796 -272 CURVE SMOOTH",
"784 -136 OFFCURVE",
"934 -7 OFFCURVE",
"1092 -7 CURVE SMOOTH",
"1105 -7 OFFCURVE",
"1114 2 OFFCURVE",
"1117 19 CURVE SMOOTH",
"1183 344 LINE SMOOTH",
"1185 353 OFFCURVE",
"1172 358 OFFCURVE",
"1145 358 CURVE SMOOTH",
"1117 358 OFFCURVE",
"1102 353 OFFCURVE",
"1100 344 CURVE SMOOTH",
"1052 166 OFFCURVE",
"951 74 OFFCURVE",
"796 69 CURVE SMOOTH",
"557 61 LINE SMOOTH",
"481 61 OFFCURVE",
"440 94 OFFCURVE",
"434 160 CURVE SMOOTH",
"431 191 OFFCURVE",
"436 237 OFFCURVE",
"449 300 CURVE SMOOTH",
"505 581 LINE SMOOTH",
"508 598 OFFCURVE",
"521 607 OFFCURVE",
"543 607 CURVE SMOOTH",
"741 607 LINE SMOOTH",
"810 607 OFFCURVE",
"845 593 OFFCURVE",
"848 566 CURVE SMOOTH",
"848 557 OFFCURVE",
"847 544 OFFCURVE",
"844 527 CURVE SMOOTH",
"827 437 LINE SMOOTH",
"825 426 OFFCURVE",
"835 421 OFFCURVE",
"858 421 CURVE SMOOTH",
"880 421 OFFCURVE",
"892 426 OFFCURVE",
"894 436 CURVE",
"907 554 OFFCURVE",
"935 697 OFFCURVE",
"979 864 CURVE",
"981 874 OFFCURVE",
"969 879 OFFCURVE",
"945 879 CURVE SMOOTH",
"921 879 OFFCURVE",
"908 874 OFFCURVE",
"906 864 CURVE SMOOTH",
"888 764 LINE SMOOTH",
"881 725 OFFCURVE",
"866 700 OFFCURVE",
"844 688 CURVE SMOOTH",
"830 680 OFFCURVE",
"800 676 OFFCURVE",
"754 676 CURVE SMOOTH",
"562 676 LINE SMOOTH",
"543 676 OFFCURVE",
"532 683 OFFCURVE",
"531 698 CURVE SMOOTH",
"531 702 OFFCURVE",
"531 707 OFFCURVE",
"532 713 CURVE",
"643 1267 LINE SMOOTH",
"646 1282 OFFCURVE",
"657 1289 OFFCURVE",
"676 1289 CURVE SMOOTH",
"736 1289 OFFCURVE",
"838 1286 OFFCURVE",
"980 1280 CURVE SMOOTH",
"1064 1276 OFFCURVE",
"1177 1215 OFFCURVE",
"1188 1088 CURVE SMOOTH",
"1189 1073 OFFCURVE",
"1188 1047 OFFCURVE",
"1184 1010 CURVE SMOOTH",
"1183 1001 OFFCURVE",
"1195 996 OFFCURVE",
"1221 996 CURVE SMOOTH",
"1248 996 OFFCURVE",
"1262 1001 OFFCURVE",
"1264 1010 CURVE SMOOTH",
"1325 1320 LINE SMOOTH",
"1326 1327 OFFCURVE",
"1326 1333 OFFCURVE",
"1326 1336 CURVE SMOOTH",
"1325 1351 OFFCURVE",
"1304 1358 OFFCURVE",
"1262 1358 CURVE SMOOTH",
"1081 1358 OFFCURVE",
"787 1354 OFFCURVE",
"607 1354 CURVE",
"811 1355 OFFCURVE",
"702 1354 OFFCURVE",
"607 1354 CURVE SMOOTH",
"512 1354 OFFCURVE",
"420 1355 OFFCURVE",
"331 1358 CURVE SMOOTH",
"314 1358 OFFCURVE",
"297 1282 OFFCURVE",
"318 1282 CURVE SMOOTH",
"423 1282 OFFCURVE",
"477 1256 OFFCURVE",
"482 1205 CURVE SMOOTH",
"483 1192 OFFCURVE",
"482 1181 OFFCURVE",
"481 1172 CURVE SMOOTH",
"284 186 LINE SMOOTH",
"263 86 OFFCURVE",
"208 69 OFFCURVE",
"81 69 CURVE SMOOTH",
"64 69 OFFCURVE",
"47 -7 OFFCURVE",
"68 -7 CURVE",
"156 -2 OFFCURVE",
"260 0 OFFCURVE",
"379 0 CURVE SMOOTH",
"498 0 OFFCURVE",
"640 -1 OFFCURVE",
"802 -4 CURVE SMOOTH",
"865 -5 OFFCURVE",
"877 -18 OFFCURVE",
"839 -43 CURVE SMOOTH",
"727 -119 OFFCURVE",
"656 -210 OFFCURVE",
"665 -310 CURVE SMOOTH",
"676 -429 OFFCURVE",
"740 -488 OFFCURVE",
"860 -488 CURVE SMOOTH",
"948 -488 OFFCURVE",
"1015 -458 OFFCURVE",
"1059 -398 CURVE"
);
}
);
};
layerId = "F9ECB7B3-4A29-4E3B-A73B-F75EAE448241";
name = "Aug 15 18, 07:48";
paths = (
{
closed = 1;
nodes = (
"1043 -369 LINE",
"1001 -388 OFFCURVE",
"965 -398 OFFCURVE",
"934 -398 CURVE SMOOTH",
"808 -398 OFFCURVE",
"795 -298 OFFCURVE",
"795 -253 CURVE SMOOTH",
"796 -123 OFFCURVE",
"940 0 OFFCURVE",
"1092 0 CURVE",
"796 53 LINE",
"802 10 LINE",
"917 9 LINE",
"902 0 OFFCURVE",
"853 -30 OFFCURVE",
"839 -39 CURVE SMOOTH",
"733 -109 OFFCURVE",
"664 -195 OFFCURVE",
"664 -288 CURVE SMOOTH",
"664 -337 OFFCURVE",
"676 -484 OFFCURVE",
"860 -484 CURVE SMOOTH",
"948 -484 OFFCURVE",
"1015 -454 OFFCURVE",
"1059 -394 CURVE"
);
}
);
userData = {
assembly = "MPPEM[ ]\011/* MeasurePixelPerEm */
PUSHB[ ]\011/* 1 value pushed */
146 
LT[ ]\011/* LessThan */
IF[ ]\011/* If */
NPUSHB[ ]\011/* 15 values pushed */
34 1 3 4 50 22 2 6 3 99 1 10 1 3 76 
ELSE[ ]\011/* Else */
NPUSHB[ ]\011/* 15 values pushed */
34 1 3 4 50 22 2 6 3 99 1 10 9 3 76 
EIF[ ]\011/* EndIf */
MPPEM[ ]\011/* MeasurePixelPerEm */
PUSHB[ ]\011/* 1 value pushed */
45 
LT[ ]\011/* LessThan */
IF[ ]\011/* If */
NPUSHB[ ]\011/* 39 values pushed */
0 6 0 7 2 6 7 103 0 10 0 0 10 0 101 5 1 3 3 4 95 0 4 4 92 77 8 1 2 2 1 97 9 1 1 1 93 1 78 
ELSE[ ]\011/* Else */
MPPEM[ ]\011/* MeasurePixelPerEm */
PUSHB[ ]\011/* 1 value pushed */
57 
LT[ ]\011/* LessThan */
IF[ ]\011/* If */
NPUSHB[ ]\011/* 37 values pushed */
0 6 0 7 2 6 7 103 8 1 2 9 1 1 10 2 1 105 0 10 0 0 10 0 101 5 1 3 3 4 95 0 4 4 92 3 78 
ELSE[ ]\011/* Else */
MPPEM[ ]\011/* MeasurePixelPerEm */
PUSHB[ ]\011/* 1 value pushed */
136 
LT[ ]\011/* LessThan */
IF[ ]\011/* If */
NPUSHB[ ]\011/* 43 values pushed */
0 4 5 1 3 6 4 3 105 0 6 0 7 2 6 7 103 8 1 2 9 1 1 10 2 1 105 0 10 0 0 10 89 0 10 10 0 97 0 0 10 0 81 
ELSE[ ]\011/* Else */
MPPEM[ ]\011/* MeasurePixelPerEm */
PUSHB[ ]\011/* 1 value pushed */
146 
LT[ ]\011/* LessThan */
IF[ ]\011/* If */
NPUSHB[ ]\011/* 49 values pushed */
0 2 7 1 7 2 1 128 9 1 1 10 7 1 10 126 0 4 5 1 3 6 4 3 105 0 6 0 7 2 6 7 103 0 10 0 0 10 89 0 10 10 0 97 0 0 10 0 81 
ELSE[ ]\011/* Else */
NPUSHB[ ]\011/* 54 values pushed */
0 2 7 1 7 2 1 128 0 1 9 7 1 9 126 0 9 10 1 9 112 0 4 5 1 3 6 4 3 105 0 6 0 7 2 6 7 103 0 10 0 0 10 89 0 10 10 0 97 0 0 10 0 81 
EIF[ ]\011/* EndIf */
EIF[ ]\011/* EndIf */
EIF[ ]\011/* EndIf */
EIF[ ]\011/* EndIf */
NPUSHB[ ]\011/* 18 values pushed */
96 94 91 89 83 80 75 72 53 75 99 22 35 69 33 11 12 29 
CALL[ ]\011/* CallFunction */";
};
width = 1255;
},
{
associatedMasterId = "2899D53B-47B8-4BF9-853D-5BC6961E25E7";
background = {
paths = (
{
closed = 1;
nodes = (
"1185 383 LINE",
"1189 399 OFFCURVE",
"1092 399 OFFCURVE",
"1090 383 QCURVE",
"1013 96 OFFCURVE",
"847 90 QCURVE SMOOTH",
"557 78 LINE SMOOTH",
"460 74 OFFCURVE",
"452 156 QCURVE SMOOTH",
"449 190 OFFCURVE",
"457 223 QCURVE SMOOTH",
"531 571 LINE SMOOTH",
"537 598 OFFCURVE",
"557 598 QCURVE SMOOTH",
"758 598 LINE SMOOTH",
"797 598 OFFCURVE",
"816 586 QCURVE",
"836 576 OFFCURVE",
"830 547 QCURVE SMOOTH",
"809 418 LINE",
"804 401 OFFCURVE",
"890 402 OFFCURVE",
"893 418 QCURVE SMOOTH",
"933 674 OFFCURVE",
"989 885 QCURVE SMOOTH",
"993 903 OFFCURVE",
"903 903 OFFCURVE",
"899 885 QCURVE SMOOTH",
"864 739 LINE SMOOTH",
"857 710 OFFCURVE",
"835 702 QCURVE",
"813 692 OFFCURVE",
"766 692 QCURVE SMOOTH",
"586 692 LINE",
"563 693 OFFCURVE",
"562 711 QCURVE SMOOTH",
"561 717 OFFCURVE",
"563 725 QCURVE",
"678 1233 LINE",
"684 1264 OFFCURVE",
"723 1264 QCURVE SMOOTH",
"847 1265 OFFCURVE",
"993 1257 QCURVE SMOOTH",
"1078 1251 OFFCURVE",
"1169 1143 OFFCURVE",
"1178 1043 OFFCURVE",
"1175 1010 QCURVE",
"1172 993 OFFCURVE",
"1264 994 OFFCURVE",
"1269 1012 QCURVE",
"1327 1300 LINE SMOOTH",
"1330 1315 OFFCURVE",
"1329 1327 QCURVE",
"1325 1358 OFFCURVE",
"1262 1358 QCURVE SMOOTH",
"1162 1358 OFFCURVE",
"668 1354 OFFCURVE",
"391 1354 OFFCURVE",
"288 1358 QCURVE",
"275 1358 OFFCURVE",
"263 1292 OFFCURVE",
"266 1264 OFFCURVE",
"274 1264 QCURVE SMOOTH",
"420 1264 OFFCURVE",
"425 1196 QCURVE",
"427 1169 OFFCURVE",
"424 1157 QCURVE SMOOTH",
"224 217 LINE SMOOTH",
"206 137 OFFCURVE",
"135 86 OFFCURVE",
"37 86 QCURVE SMOOTH",
"23 86 OFFCURVE",
"12 18 OFFCURVE",
"17 -8 OFFCURVE",
"25 -8 QCURVE",
"200 0 OFFCURVE",
"423 0 OFFCURVE",
"691 -4 QCURVE SMOOTH",
"790 -6 OFFCURVE",
"866 -6 QCURVE",
"817 -37 OFFCURVE",
"770 -82 QCURVE SMOOTH",
"635 -213 OFFCURVE",
"645 -334 QCURVE SMOOTH",
"651 -403 OFFCURVE",
"751 -487 OFFCURVE",
"835 -487 QCURVE SMOOTH",
"968 -487 OFFCURVE",
"1044 -381 QCURVE",
"1044 -373 LINE",
"1041 -348 OFFCURVE",
"1024 -342 QCURVE",
"986 -373 OFFCURVE",
"927 -373 QCURVE SMOOTH",
"886 -373 OFFCURVE",
"820 -324 OFFCURVE",
"817 -283 QCURVE SMOOTH",
"809 -195 OFFCURVE",
"955 -8 OFFCURVE",
"1061 -8 QCURVE SMOOTH",
"1110 -9 OFFCURVE",
"1115 20 QCURVE SMOOTH"
);
}
);
};
layerId = "85383926-A687-4928-A538-9B36542ED362";
name = "Aug 15 18, 07:53";
paths = (
{
closed = 1;
nodes = (
"847 46 LINE",
"691 16 LINE",
"906 13 LINE",
"871 0 OFFCURVE",
"801 -52 OFFCURVE",
"770 -82 CURVE SMOOTH",
"687 -162 OFFCURVE",
"644 -240 OFFCURVE",
"644 -315 CURVE SMOOTH",
"644 -363 OFFCURVE",
"667 -487 OFFCURVE",
"835 -487 CURVE SMOOTH",
"924 -487 OFFCURVE",
"993 -452 OFFCURVE",
"1044 -381 CURVE",
"1024 -342 LINE",
"999 -363 OFFCURVE",
"966 -373 OFFCURVE",
"927 -373 CURVE SMOOTH",
"859 -373 OFFCURVE",
"816 -328 OFFCURVE",
"816 -266 CURVE SMOOTH",
"816 -151 OFFCURVE",
"935 0 OFFCURVE",
"1069 0 CURVE"
);
}
);
userData = {
assembly = "MPPEM[ ]\011/* MeasurePixelPerEm */
PUSHB[ ]\011/* 1 value pushed */
146 
LT[ ]\011/* LessThan */
IF[ ]\011/* If */
NPUSHB[ ]\011/* 23 values pushed */
49 1 5 6 37 1 7 5 64 1 9 10 10 1 1 0 4 76 12 1 1 1 75 
ELSE[ ]\011/* Else */
NPUSHB[ ]\011/* 23 values pushed */
49 1 5 6 37 1 7 8 64 1 9 10 10 1 1 0 4 76 12 1 1 1 75 
EIF[ ]\011/* EndIf */
MPPEM[ ]\011/* MeasurePixelPerEm */
PUSHB[ ]\011/* 1 value pushed */
57 
LT[ ]\011/* LessThan */
IF[ ]\011/* If */
NPUSHB[ ]\011/* 69 values pushed */
0 7 5 10 5 7 10 128 0 10 9 5 10 9 126 0 11 12 14 12 11 14 128 0 14 4 12 14 4 126 0 9 0 12 11 9 12 103 0 1 0 2 1 2 101 8 1 5 5 6 95 0 6 6 31 77 13 1 4 4 0 97 3 1 0 0 32 0 78 
ELSE[ ]\011/* Else */
MPPEM[ ]\011/* MeasurePixelPerEm */
PUSHB[ ]\011/* 1 value pushed */
59 
LT[ ]\011/* LessThan */
IF[ ]\011/* If */
NPUSHB[ ]\011/* 67 values pushed */
0 7 5 10 5 7 10 128 0 10 9 5 10 9 126 0 11 12 14 12 11 14 128 0 14 4 12 14 4 126 0 9 0 12 11 9 12 103 13 1 4 3 1 0 1 4 0 105 0 1 0 2 1 2 101 8 1 5 5 6 95 0 6 6 31 5 78 
ELSE[ ]\011/* Else */
MPPEM[ ]\011/* MeasurePixelPerEm */
PUSHB[ ]\011/* 1 value pushed */
93 
LT[ ]\011/* LessThan */
IF[ ]\011/* If */
NPUSHB[ ]\011/* 73 values pushed */
0 7 5 10 5 7 10 128 0 10 9 5 10 9 126 0 11 12 14 12 11 14 128 0 14 4 12 14 4 126 0 6 8 1 5 7 6 5 105 0 9 0 12 11 9 12 103 13 1 4 3 1 0 1 4 0 105 0 1 2 2 1 89 0 1 1 2 97 0 2 1 2 81 
ELSE[ ]\011/* Else */
MPPEM[ ]\011/* MeasurePixelPerEm */
PUSHB[ ]\011/* 1 value pushed */
98 
LT[ ]\011/* LessThan */
IF[ ]\011/* If */
NPUSHB[ ]\011/* 79 values pushed */
0 7 5 10 5 7 10 128 0 10 9 5 10 9 126 0 11 12 14 12 11 14 128 0 14 4 12 14 4 126 0 0 3 1 3 0 114 0 6 8 1 5 7 6 5 105 0 9 0 12 11 9 12 103 13 1 4 0 3 0 4 3 103 0 1 2 2 1 89 0 1 1 2 97 0 2 1 2 81 
ELSE[ ]\011/* Else */
MPPEM[ ]\011/* MeasurePixelPerEm */
PUSHB[ ]\011/* 1 value pushed */
146 
LT[ ]\011/* LessThan */
IF[ ]\011/* If */
NPUSHB[ ]\011/* 83 values pushed */
0 7 5 10 5 7 10 128 0 10 9 5 10 9 126 0 11 12 14 12 11 14 128 0 14 4 12 14 4 126 0 4 3 12 4 3 126 0 3 0 12 3 0 126 0 0 1 3 0 112 0 6 8 1 5 7 6 5 105 0 9 0 12 11 9 12 103 0 1 2 2 1 89 0 1 1 2 97 0 2 1 2 81 
ELSE[ ]\011/* Else */
NPUSHB[ ]\011/* 89 values pushed */
0 5 6 8 8 5 114 0 7 8 10 8 7 10 128 0 10 9 8 10 9 126 0 11 12 14 12 11 14 128 0 14 4 12 14 4 126 0 4 3 12 4 3 126 0 3 0 12 3 0 126 0 0 1 3 0 112 0 6 0 8 7 6 8 103 0 9 0 12 11 9 12 103 0 1 2 2 1 89 0 1 1 2 97 0 2 1 2 81 
EIF[ ]\011/* EndIf */
EIF[ ]\011/* EndIf */
EIF[ ]\011/* EndIf */
EIF[ ]\011/* EndIf */
EIF[ ]\011/* EndIf */
NPUSHB[ ]\011/* 24 values pushed */
100 99 97 94 89 86 81 80 76 75 70 67 53 21 99 22 35 86 37 36 33 15 8 31 
CALL[ ]\011/* CallFunction */";
};
width = 1255;
}
);
leftMetricsKey = E;
note = Eogonek;
rightKerningGroup = AE;
rightMetricsKey = E;
unicode = 0118;
},
{
glyphname = Eth;
lastChange = "2018-08-18 12:19:19 +0000";
layers = (
{
background = {
paths = (
{
closed = 1;
nodes = (
"720 0 LINE SMOOTH",
"1327 0 OFFCURVE",
"1518 586 OFFCURVE",
"1518 854 CURVE SMOOTH",
"1518 1172 OFFCURVE",
"1281 1358 OFFCURVE",
"892 1358 CURVE SMOOTH",
"321 1358 LINE",
"321 1300 LINE",
"456 1300 OFFCURVE",
"502 1265 OFFCURVE",
"489 1195 CURVE SMOOTH",
"307 163 LINE SMOOTH",
"294 93 OFFCURVE",
"226 58 OFFCURVE",
"101 58 CURVE",
"101 0 LINE"
);
},
{
closed = 1;
nodes = (
"454 53 OFFCURVE",
"424 131 OFFCURVE",
"453 298 CURVE SMOOTH",
"629 1297 LINE",
"819 1297 LINE SMOOTH",
"1154 1297 OFFCURVE",
"1369 1101 OFFCURVE",
"1369 820 CURVE SMOOTH",
"1369 584 OFFCURVE",
"1193 53 OFFCURVE",
"661 53 CURVE SMOOTH"
);
},
{
closed = 1;
nodes = (
"204 711 LINE",
"194 634 LINE",
"819 634 LINE",
"829 711 LINE"
);
}
);
};
layerId = "98F9B6AB-A1D0-4874-9186-59FDE6DAF116";
paths = (
{
closed = 1;
nodes = (
"720 0 LINE SMOOTH",
"1327 0 OFFCURVE",
"1518 586 OFFCURVE",
"1518 854 CURVE SMOOTH",
"1518 1172 OFFCURVE",
"1281 1358 OFFCURVE",
"892 1358 CURVE SMOOTH",
"332 1358 LINE",
"332 1300 LINE",
"457 1300 OFFCURVE",
"501 1265 OFFCURVE",
"489 1195 CURVE SMOOTH",
"307 163 LINE SMOOTH",
"295 93 OFFCURVE",
"226 58 OFFCURVE",
"101 58 CURVE",
"101 0 LINE"
);
},
{
closed = 1;
nodes = (
"454 53 OFFCURVE",
"424 131 OFFCURVE",
"453 298 CURVE SMOOTH",
"629 1297 LINE",
"819 1297 LINE SMOOTH",
"1154 1297 OFFCURVE",
"1369 1101 OFFCURVE",
"1369 820 CURVE SMOOTH",
"1369 584 OFFCURVE",
"1193 53 OFFCURVE",
"661 53 CURVE SMOOTH"
);
},
{
closed = 1;
nodes = (
"204 711 LINE",
"194 634 LINE",
"819 634 LINE",
"829 711 LINE"
);
}
);
userData = {
assembly = "MPPEM[ ]\011/* MeasurePixelPerEm */
PUSHB[ ]\011/* 1 value pushed */
21 
LT[ ]\011/* LessThan */
IF[ ]\011/* If */
NPUSHB[ ]\011/* 33 values pushed */
7 1 3 8 1 2 1 3 2 103 6 1 4 4 5 95 0 5 5 92 77 9 1 1 1 0 95 0 0 0 93 0 78 
ELSE[ ]\011/* Else */
MPPEM[ ]\011/* MeasurePixelPerEm */
PUSHB[ ]\011/* 1 value pushed */
23 
LT[ ]\011/* LessThan */
IF[ ]\011/* If */
NPUSHB[ ]\011/* 39 values pushed */
0 1 2 9 9 1 114 7 1 3 8 1 2 1 3 2 103 6 1 4 4 5 95 0 5 5 92 77 0 9 9 0 96 0 0 0 93 0 78 
ELSE[ ]\011/* Else */
MPPEM[ ]\011/* MeasurePixelPerEm */
PUSHB[ ]\011/* 1 value pushed */
30 
LT[ ]\011/* LessThan */
IF[ ]\011/* If */
NPUSHB[ ]\011/* 33 values pushed */
7 1 3 8 1 2 1 3 2 103 6 1 4 4 5 95 0 5 5 92 77 9 1 1 1 0 95 0 0 0 93 0 78 
ELSE[ ]\011/* Else */
MPPEM[ ]\011/* MeasurePixelPerEm */
PUSHB[ ]\011/* 1 value pushed */
33 
LT[ ]\011/* LessThan */
IF[ ]\011/* If */
NPUSHB[ ]\011/* 39 values pushed */
0 1 2 9 9 1 114 7 1 3 8 1 2 1 3 2 103 6 1 4 4 5 95 0 5 5 92 77 0 9 9 0 96 0 0 0 93 0 78 
ELSE[ ]\011/* Else */
MPPEM[ ]\011/* MeasurePixelPerEm */
PUSHB[ ]\011/* 1 value pushed */
45 
LT[ ]\011/* LessThan */
IF[ ]\011/* If */
NPUSHB[ ]\011/* 45 values pushed */
0 4 6 3 6 4 114 0 1 2 9 9 1 114 7 1 3 8 1 2 1 3 2 103 0 6 6 5 95 0 5 5 92 77 0 9 9 0 96 0 0 0 93 0 78 
ELSE[ ]\011/* Else */
MPPEM[ ]\011/* MeasurePixelPerEm */
PUSHB[ ]\011/* 1 value pushed */
57 
LT[ ]\011/* LessThan */
IF[ ]\011/* If */
NPUSHB[ ]\011/* 42 values pushed */
0 4 6 3 6 4 114 0 1 2 9 9 1 114 7 1 3 8 1 2 1 3 2 103 0 9 0 0 9 0 100 0 6 6 5 95 0 5 5 92 6 78 
ELSE[ ]\011/* Else */
NPUSHB[ ]\011/* 48 values pushed */
0 4 6 3 6 4 114 0 1 2 9 9 1 114 0 5 0 6 4 5 6 105 7 1 3 8 1 2 1 3 2 103 0 9 0 0 9 89 0 9 9 0 96 0 0 9 0 80 
EIF[ ]\011/* EndIf */
EIF[ ]\011/* EndIf */
EIF[ ]\011/* EndIf */
EIF[ ]\011/* EndIf */
EIF[ ]\011/* EndIf */
EIF[ ]\011/* EndIf */
NPUSHB[ ]\011/* 14 values pushed */
65 63 51 36 36 99 21 51 36 35 82 10 12 31 
CALL[ ]\011/* CallFunction */";
};
width = 1484;
},
{
background = {
paths = (
{
closed = 1;
nodes = (
"216 719 LINE",
"202 625 LINE",
"865 625 LINE",
"878 719 LINE"
);
},
{
closed = 0;
nodes = (
"320 1355 LINE",
"81 4 LINE"
);
}
);
};
layerId = "2899D53B-47B8-4BF9-853D-5BC6961E25E7";
paths = (
{
closed = 1;
nodes = (
"811 0 LINE SMOOTH",
"1463 0 OFFCURVE",
"1670 569 OFFCURVE",
"1670 834 CURVE SMOOTH",
"1670 1162 OFFCURVE",
"1387 1358 OFFCURVE",
"1004 1358 CURVE SMOOTH",
"326 1358 LINE",
"326 1272 LINE",
"461 1272 OFFCURVE",
"502 1238 OFFCURVE",
"489 1167 CURVE SMOOTH",
"317 191 LINE SMOOTH",
"304 120 OFFCURVE",
"221 86 OFFCURVE",
"86 86 CURVE",
"86 0 LINE"
);
},
{
closed = 1;
nodes = (
"572 72 OFFCURVE",
"549 128 OFFCURVE",
"574 272 CURVE SMOOTH",
"752 1280 LINE",
"908 1280 LINE SMOOTH",
"1229 1280 OFFCURVE",
"1395 1062 OFFCURVE",
"1395 816 CURVE SMOOTH",
"1395 480 OFFCURVE",
"1138 72 OFFCURVE",
"756 72 CURVE SMOOTH"
);
},
{
closed = 1;
nodes = (
"216 719 LINE",
"202 625 LINE",
"865 625 LINE",
"878 719 LINE"
);
}
);
userData = {
assembly = "MPPEM[ ]\011/* MeasurePixelPerEm */
PUSHB[ ]\011/* 1 value pushed */
35 
LT[ ]\011/* LessThan */
IF[ ]\011/* If */
NPUSHB[ ]\011/* 33 values pushed */
7 1 3 8 1 2 1 3 2 103 6 1 4 4 5 95 0 5 5 31 77 9 1 1 1 0 95 0 0 0 32 0 78 
ELSE[ ]\011/* Else */
MPPEM[ ]\011/* MeasurePixelPerEm */
PUSHB[ ]\011/* 1 value pushed */
45 
LT[ ]\011/* LessThan */
IF[ ]\011/* If */
NPUSHB[ ]\011/* 45 values pushed */
0 4 6 3 6 4 114 0 1 2 9 9 1 114 7 1 3 8 1 2 1 3 2 103 0 6 6 5 95 0 5 5 31 77 0 9 9 0 96 0 0 0 32 0 78 
ELSE[ ]\011/* Else */
MPPEM[ ]\011/* MeasurePixelPerEm */
PUSHB[ ]\011/* 1 value pushed */
59 
LT[ ]\011/* LessThan */
IF[ ]\011/* If */
NPUSHB[ ]\011/* 42 values pushed */
0 4 6 3 6 4 114 0 1 2 9 9 1 114 7 1 3 8 1 2 1 3 2 103 0 9 0 0 9 0 100 0 6 6 5 95 0 5 5 31 6 78 
ELSE[ ]\011/* Else */
NPUSHB[ ]\011/* 48 values pushed */
0 4 6 3 6 4 114 0 1 2 9 9 1 114 0 5 0 6 4 5 6 105 7 1 3 8 1 2 1 3 2 103 0 9 0 0 9 89 0 9 9 0 96 0 0 9 0 80 
EIF[ ]\011/* EndIf */
EIF[ ]\011/* EndIf */
EIF[ ]\011/* EndIf */
NPUSHB[ ]\011/* 14 values pushed */
62 60 50 37 36 98 20 50 37 34 84 10 8 31 
CALL[ ]\011/* CallFunction */";
};
width = 1638;
}
);
note = Eth;
rightKerningGroup = D;
rightMetricsKey = D;
unicode = 00D0;
},
{
glyphname = Euro;
lastChange = "2018-08-16 14:52:35 +0000";
layers = (
{
background = {
paths = (
{
closed = 1;
nodes = (
"1191.667 174.667 OFFCURVE",
"1196 183 OFFCURVE",
"1196 193 CURVE SMOOTH",
"1196 213 OFFCURVE",
"1187.667 223 OFFCURVE",
"1171 223 CURVE SMOOTH",
"1167 223 OFFCURVE",
"1163 222 OFFCURVE",
"1159 220 CURVE",
"980.333 121.333 OFFCURVE",
"881.333 88 OFFCURVE",
"728 88 CURVE SMOOTH",
"518.667 88 OFFCURVE",
"374 220 OFFCURVE",
"374 456 CURVE SMOOTH",
"374 481.333 OFFCURVE",
"377 512.667 OFFCURVE",
"383 550 CURVE",
"1042 550 LINE SMOOTH",
"1056 550 OFFCURVE",
"1063 567.5 OFFCURVE",
"1063 602.5 CURVE SMOOTH",
"1063 637.5 OFFCURVE",
"1056 655 OFFCURVE",
"1042 655 CURVE SMOOTH",
"406 655 LINE",
"419.333 711 OFFCURVE",
"428.667 745.333 OFFCURVE",
"434 758 CURVE",
"1103 758 LINE SMOOTH",
"1117.667 758 OFFCURVE",
"1125 775.5 OFFCURVE",
"1125 810.5 CURVE SMOOTH",
"1125 845.5 OFFCURVE",
"1117.667 863 OFFCURVE",
"1103 863 CURVE SMOOTH",
"477 863 LINE",
"605 1120.333 OFFCURVE",
"817.667 1314 OFFCURVE",
"1059 1314 CURVE SMOOTH",
"1175 1314 OFFCURVE",
"1223 1258.667 OFFCURVE",
"1307 1112 CURVE",
"1317 1092.667 OFFCURVE",
"1336 1083 OFFCURVE",
"1364 1083 CURVE SMOOTH",
"1420 1083 OFFCURVE",
"1480 1127.333 OFFCURVE",
"1480 1178 CURVE SMOOTH",
"1480 1208.667 OFFCURVE",
"1464.667 1240 OFFCURVE",
"1434 1272 CURVE SMOOTH",
"1371.333 1333.333 OFFCURVE",
"1217 1385 OFFCURVE",
"1085 1385 CURVE SMOOTH",
"782.333 1385 OFFCURVE",
"482.667 1155 OFFCURVE",
"328 863 CURVE",
"150 863 LINE SMOOTH",
"136 863 OFFCURVE",
"129 845.5 OFFCURVE",
"129 810.5 CURVE SMOOTH",
"129 775.5 OFFCURVE",
"136 758 OFFCURVE",
"150 758 CURVE SMOOTH",
"281 758 LINE",
"266.333 719.333 OFFCURVE",
"254.667 685 OFFCURVE",
"246 655 CURVE",
"89 655 LINE SMOOTH",
"74.333 655 OFFCURVE",
"67 637.5 OFFCURVE",
"67 602.5 CURVE SMOOTH",
"67 567.5 OFFCURVE",
"74.333 550 OFFCURVE",
"89 550 CURVE SMOOTH",
"222 550 LINE",
"215.333 509.333 OFFCURVE",
"212 469.333 OFFCURVE",
"212 430 CURVE SMOOTH",
"212 128.667 OFFCURVE",
"439.333 -29 OFFCURVE",
"658 -29 CURVE SMOOTH",
"855.333 -29 OFFCURVE",
"989.667 38.667 OFFCURVE",
"1183 168 CURVE"
);
}
);
};
layerId = "98F9B6AB-A1D0-4874-9186-59FDE6DAF116";
paths = (
{
closed = 1;
nodes = (
"812 -27 OFFCURVE",
"949 43 OFFCURVE",
"1122 168 CURVE",
"1095 210 LINE",
"911 106 OFFCURVE",
"846 70 OFFCURVE",
"673 70 CURVE SMOOTH",
"574 70 OFFCURVE",
"472 109 OFFCURVE",
"409 172 CURVE SMOOTH",
"333 248 OFFCURVE",
"280 379 OFFCURVE",
"280 521 CURVE",
"976 521 LINE",
"992 611 LINE",
"284 611 LINE",
"287 636 OFFCURVE",
"301 714 OFFCURVE",
"306 738 CURVE",
"1014 738 LINE",
"1030 828 LINE",
"331 828 LINE",
"369 950 OFFCURVE",
"400 1025 OFFCURVE",
"508 1146 CURVE SMOOTH",
"612 1263 OFFCURVE",
"724 1331 OFFCURVE",
"882 1331 CURVE SMOOTH",
"981 1331 OFFCURVE",
"1046 1288 OFFCURVE",
"1079 1236 CURVE SMOOTH",
"1130 1154 OFFCURVE",
"1141 1138 OFFCURVE",
"1180 1138 CURVE SMOOTH",
"1220 1138 OFFCURVE",
"1263 1169 OFFCURVE",
"1263 1214 CURVE SMOOTH",
"1263 1256 OFFCURVE",
"1217 1299 OFFCURVE",
"1171 1326 CURVE SMOOTH",
"1102 1366 OFFCURVE",
"1018 1385 OFFCURVE",
"895 1385 CURVE SMOOTH",
"703 1385 OFFCURVE",
"584 1325 OFFCURVE",
"444 1204 CURVE SMOOTH",
"329 1105 OFFCURVE",
"250 973 OFFCURVE",
"190 828 CURVE",
"56 828 LINE",
"40 738 LINE",
"159 738 LINE",
"155 717 OFFCURVE",
"140 634 OFFCURVE",
"137 611 CURVE",
"18 611 LINE",
"2 521 LINE",
"131 521 LINE",
"125 451 OFFCURVE",
"127 244 OFFCURVE",
"283 105 CURVE SMOOTH",
"382 17 OFFCURVE",
"493 -27 OFFCURVE",
"639 -27 CURVE SMOOTH"
);
}
);
userData = {
assembly = "PUSHB[ ]\011/* 6 values pushed */
63 1 12 1 1 76 
MPPEM[ ]\011/* MeasurePixelPerEm */
PUSHB[ ]\011/* 1 value pushed */
57 
LT[ ]\011/* LessThan */
IF[ ]\011/* If */
NPUSHB[ ]\011/* 51 values pushed */
0 6 7 4 7 6 4 128 10 1 2 11 1 1 12 2 1 105 0 7 7 5 97 0 5 5 98 77 9 1 3 3 4 95 8 1 4 4 95 77 0 12 12 0 97 0 0 0 93 0 78 
ELSE[ ]\011/* Else */
MPPEM[ ]\011/* MeasurePixelPerEm */
PUSHB[ ]\011/* 1 value pushed */
93 
LT[ ]\011/* LessThan */
IF[ ]\011/* If */
NPUSHB[ ]\011/* 49 values pushed */
0 6 7 4 7 6 4 128 0 5 0 7 6 5 7 105 10 1 2 11 1 1 12 2 1 105 9 1 3 3 4 95 8 1 4 4 95 77 0 12 12 0 97 0 0 0 93 0 78 
ELSE[ ]\011/* Else */
NPUSHB[ ]\011/* 47 values pushed */
0 6 7 4 7 6 4 128 0 5 0 7 6 5 7 105 8 1 4 9 1 3 2 4 3 105 10 1 2 11 1 1 12 2 1 105 0 12 12 0 97 0 0 0 93 0 78 
EIF[ ]\011/* EndIf */
EIF[ ]\011/* EndIf */
NPUSHB[ ]\011/* 20 values pushed */
57 55 51 49 48 46 44 42 34 35 38 34 33 34 33 36 34 13 12 31 
CALL[ ]\011/* CallFunction */";
};
width = 1470;
},
{
background = {
paths = (
{
closed = 1;
nodes = (
"1259 178 OFFCURVE",
"1260 193 QCURVE",
"1260 240 OFFCURVE",
"1231 240 QCURVE",
"1219 236 LINE",
"1079 162 OFFCURVE",
"872 88 OFFCURVE",
"743 88 QCURVE SMOOTH",
"627 88 OFFCURVE",
"498 188 OFFCURVE",
"418 346 OFFCURVE",
"418 457 QCURVE SMOOTH",
"418 489 OFFCURVE",
"420 524 QCURVE",
"1006 524 LINE",
"1022 525 OFFCURVE",
"1032 543 QCURVE SMOOTH",
"1055 584 OFFCURVE",
"1055 623 QCURVE",
"1054 655 OFFCURVE",
"1040 655 QCURVE SMOOTH",
"440 655 LINE",
"451 707 OFFCURVE",
"469 758 QCURVE",
"1075 758 LINE SMOOTH",
"1092 758 OFFCURVE",
"1102 776 QCURVE SMOOTH",
"1124 815 OFFCURVE",
"1124 856 QCURVE SMOOTH",
"1124 889 OFFCURVE",
"1110 889 QCURVE SMOOTH",
"522 889 LINE",
"608 1061 OFFCURVE",
"934 1298 OFFCURVE",
"1110 1298 QCURVE SMOOTH",
"1225 1298 OFFCURVE",
"1341 1202 OFFCURVE",
"1382 1112 QCURVE SMOOTH",
"1395 1083 OFFCURVE",
"1489 1083 OFFCURVE",
"1573 1143 OFFCURVE",
"1573 1186 QCURVE SMOOTH",
"1573 1227 OFFCURVE",
"1470 1317 OFFCURVE",
"1246 1384 OFFCURVE",
"1137 1384 QCURVE SMOOTH",
"848 1384 OFFCURVE",
"409 1059 OFFCURVE",
"303 889 QCURVE",
"150 889 LINE",
"137 888 OFFCURVE",
"125 874 QCURVE SMOOTH",
"98 842 OFFCURVE",
"98 795 QCURVE SMOOTH",
"99 758 OFFCURVE",
"117 758 QCURVE SMOOTH",
"236 758 LINE",
"215 706 OFFCURVE",
"201 655 QCURVE",
"80 655 LINE",
"65 653 OFFCURVE",
"53 639 QCURVE",
"29 606 OFFCURVE",
"29 559 QCURVE SMOOTH",
"29 524 OFFCURVE",
"47 524 QCURVE SMOOTH",
"178 524 LINE",
"176 498 OFFCURVE",
"176 471 QCURVE SMOOTH",
"176 221 OFFCURVE",
"506 -29 OFFCURVE",
"690 -29 QCURVE SMOOTH",
"842 -29 OFFCURVE",
"1100 76 OFFCURVE",
"1245 168 QCURVE"
);
}
);
};
layerId = "2899D53B-47B8-4BF9-853D-5BC6961E25E7";
paths = (
{
closed = 1;
nodes = (
"774 -27 OFFCURVE",
"898 17 OFFCURVE",
"1108 168 CURVE",
"1092 242 LINE",
"1056 221 OFFCURVE",
"853 106 OFFCURVE",
"681 106 CURVE SMOOTH",
"589 106 OFFCURVE",
"525 143 OFFCURVE",
"479 206 CURVE SMOOTH",
"429 275 OFFCURVE",
"400 373 OFFCURVE",
"386 485 CURVE",
"986 485 LINE",
"1009 616 LINE",
"372 616 LINE",
"376 647 OFFCURVE",
"387 705 OFFCURVE",
"393 733 CURVE",
"1030 733 LINE",
"1053 864 LINE",
"428 864 LINE",
"459 959 OFFCURVE",
"509 1051 OFFCURVE",
"568 1125 CURVE SMOOTH",
"650 1227 OFFCURVE",
"751 1296 OFFCURVE",
"854 1296 CURVE SMOOTH",
"937 1296 OFFCURVE",
"1006 1264 OFFCURVE",
"1049 1196 CURVE SMOOTH",
"1109 1102 OFFCURVE",
"1124 1081 OFFCURVE",
"1179 1081 CURVE SMOOTH",
"1236 1081 OFFCURVE",
"1291 1121 OFFCURVE",
"1291 1173 CURVE SMOOTH",
"1291 1217 OFFCURVE",
"1258 1263 OFFCURVE",
"1200 1300 CURVE SMOOTH",
"1112 1356 OFFCURVE",
"998 1384 OFFCURVE",
"875 1384 CURVE SMOOTH",
"718 1384 OFFCURVE",
"570 1324 OFFCURVE",
"446 1228 CURVE SMOOTH",
"323 1132 OFFCURVE",
"224 1003 OFFCURVE",
"166 864 CURVE",
"63 864 LINE",
"40 733 LINE",
"120 733 LINE",
"113 704 OFFCURVE",
"103 647 OFFCURVE",
"99 616 CURVE",
"19 616 LINE",
"-4 485 LINE",
"93 485 LINE",
"96 316 OFFCURVE",
"165 178 OFFCURVE",
"276 88 CURVE SMOOTH",
"367 14 OFFCURVE",
"487 -27 OFFCURVE",
"623 -27 CURVE SMOOTH"
);
}
);
userData = {
assembly = "NPUSHB[ ]\011/* 16 values pushed */
46 21 2 3 4 56 11 2 1 2 73 1 12 1 3 76 
MPPEM[ ]\011/* MeasurePixelPerEm */
PUSHB[ ]\011/* 1 value pushed */
28 
LT[ ]\011/* LessThan */
IF[ ]\011/* If */
NPUSHB[ ]\011/* 51 values pushed */
0 6 7 4 7 6 4 128 10 1 2 11 1 1 12 2 1 103 0 7 7 5 97 0 5 5 37 77 9 1 3 3 4 95 8 1 4 4 34 77 0 12 12 0 97 0 0 0 32 0 78 
ELSE[ ]\011/* Else */
MPPEM[ ]\011/* MeasurePixelPerEm */
PUSHB[ ]\011/* 1 value pushed */
59 
LT[ ]\011/* LessThan */
IF[ ]\011/* If */
NPUSHB[ ]\011/* 49 values pushed */
0 6 7 4 7 6 4 128 8 1 4 9 1 3 2 4 3 103 10 1 2 11 1 1 12 2 1 103 0 7 7 5 97 0 5 5 37 77 0 12 12 0 97 0 0 0 32 0 78 
ELSE[ ]\011/* Else */
NPUSHB[ ]\011/* 47 values pushed */
0 6 7 4 7 6 4 128 0 5 0 7 6 5 7 105 8 1 4 9 1 3 2 4 3 103 10 1 2 11 1 1 12 2 1 103 0 12 12 0 97 0 0 0 32 0 78 
EIF[ ]\011/* EndIf */
EIF[ ]\011/* EndIf */
NPUSHB[ ]\011/* 20 values pushed */
68 66 61 59 54 53 51 49 18 35 21 34 37 18 37 20 34 13 8 31 
CALL[ ]\011/* CallFunction */";
};
width = 1468;
}
);
note = Euro;
unicode = 20AC;
},
{
glyphname = F;
lastChange = "2018-08-18 13:18:13 +0000";
layers = (
{
anchors = (
{
name = bottom;
position = "{443, 0}";
},
{
name = top;
position = "{683, 1363}";
}
);
background = {
paths = (
{
closed = 1;
nodes = (
"969 0 LINE",
"1030 342 LINE",
"965 342 LINE",
"955 290 OFFCURVE",
"944 254 OFFCURVE",
"928 222 CURVE SMOOTH",
"877 120 OFFCURVE",
"789 65 OFFCURVE",
"656 61 CURVE SMOOTH",
"420 54 LINE SMOOTH",
"385 53 OFFCURVE",
"356 65 OFFCURVE",
"334 86 CURVE SMOOTH",
"297 121 OFFCURVE",
"286 179 OFFCURVE",
"299 254 CURVE SMOOTH",
"362 612 LINE",
"596 612 LINE SMOOTH",
"700 612 OFFCURVE",
"706 574 OFFCURVE",
"696 517 CURVE SMOOTH",
"680 425 LINE",
"739 425 LINE",
"818 872 LINE",
"759 872 LINE",
"744 788 LINE SMOOTH",
"730 709 OFFCURVE",
"711 671 OFFCURVE",
"607 671 CURVE SMOOTH",
"373 671 LINE",
"483 1297 LINE",
"807 1290 LINE SMOOTH",
"888 1288 OFFCURVE",
"947 1267 OFFCURVE",
"982 1226 CURVE SMOOTH",
"1022 1180 OFFCURVE",
"1033 1111 OFFCURVE",
"1015 1008 CURVE",
"1080 1008 LINE",
"1142 1358 LINE",
"185 1358 LINE",
"185 1300 LINE",
"310 1300 OFFCURVE",
"355 1265 OFFCURVE",
"343 1195 CURVE SMOOTH",
"162 163 LINE SMOOTH",
"150 93 OFFCURVE",
"91 58 OFFCURVE",
"-44 58 CURVE",
"-44 0 LINE"
);
}
);
};
layerId = "98F9B6AB-A1D0-4874-9186-59FDE6DAF116";
paths = (
{
closed = 1;
nodes = (
"472 0 LINE",
"472 58 LINE",
"337 58 OFFCURVE",
"273 95 OFFCURVE",
"285 166 CURVE SMOOTH",
"368 640 LINE",
"560 640 LINE SMOOTH",
"649 640 OFFCURVE",
"670 605 OFFCURVE",
"654 512 CURVE SMOOTH",
"632 387 LINE",
"690 387 LINE",
"793 971 LINE",
"735 971 LINE",
"713 846 LINE SMOOTH",
"697 753 OFFCURVE",
"673 716 OFFCURVE",
"573 716 CURVE SMOOTH",
"381 716 LINE",
"484 1299 LINE",
"824 1289 LINE SMOOTH",
"996 1284 OFFCURVE",
"1064 1180 OFFCURVE",
"1030 990 CURVE",
"1091 990 LINE",
"1156 1358 LINE",
"185 1358 LINE",
"185 1300 LINE",
"310 1300 OFFCURVE",
"355 1265 OFFCURVE",
"343 1194 CURVE SMOOTH",
"163 166 LINE SMOOTH",
"151 95 OFFCURVE",
"82 58 OFFCURVE",
"-43 58 CURVE",
"-43 0 LINE"
);
}
);
userData = {
assembly = "NPUSHB[ ]\011/* 11 values pushed */
34 1 3 4 52 22 2 6 3 2 76 
MPPEM[ ]\011/* MeasurePixelPerEm */
PUSHB[ ]\011/* 1 value pushed */
45 
LT[ ]\011/* LessThan */
IF[ ]\011/* If */
NPUSHB[ ]\011/* 31 values pushed */
0 6 0 7 0 6 7 103 5 1 3 3 4 95 0 4 4 92 77 2 1 0 0 1 97 0 1 1 93 1 78 
ELSE[ ]\011/* Else */
MPPEM[ ]\011/* MeasurePixelPerEm */
PUSHB[ ]\011/* 1 value pushed */
57 
LT[ ]\011/* LessThan */
IF[ ]\011/* If */
NPUSHB[ ]\011/* 28 values pushed */
0 6 0 7 0 6 7 103 2 1 0 0 1 0 1 101 5 1 3 3 4 95 0 4 4 92 3 78 
ELSE[ ]\011/* Else */
NPUSHB[ ]\011/* 35 values pushed */
0 4 5 1 3 6 4 3 105 0 6 0 7 0 6 7 103 2 1 0 1 1 0 89 2 1 0 0 1 97 0 1 0 1 81 
EIF[ ]\011/* EndIf */
EIF[ ]\011/* EndIf */
NPUSHB[ ]\011/* 11 values pushed */
63 38 75 99 23 35 37 19 8 12 30 
CALL[ ]\011/* CallFunction */";
};
width = 1036;
},
{
anchors = (
{
name = bottom;
position = "{501, 0}";
},
{
name = top;
position = "{741, 1363}";
}
);
background = {
paths = (
{
closed = 1;
nodes = (
"503 598 LINE",
"508 633 OFFCURVE",
"533 633 QCURVE SMOOTH",
"670 633 LINE SMOOTH",
"752 633 OFFCURVE",
"758 565 QCURVE SMOOTH",
"759 543 OFFCURVE",
"742 459 QCURVE SMOOTH",
"728 391 LINE",
"725 379 OFFCURVE",
"811 377 OFFCURVE",
"814 391 QCURVE",
"820 440 OFFCURVE",
"914 904 OFFCURVE",
"935 967 QCURVE",
"938 981 OFFCURVE",
"844 983 OFFCURVE",
"841 967 QCURVE SMOOTH",
"820 854 LINE SMOOTH",
"796 725 OFFCURVE",
"682 725 QCURVE SMOOTH",
"558 725 LINE SMOOTH",
"537 725 OFFCURVE",
"535 745 QCURVE SMOOTH",
"534 754 OFFCURVE",
"535 766 QCURVE",
"635 1231 LINE SMOOTH",
"642 1264 OFFCURVE",
"663 1264 QCURVE SMOOTH",
"756 1263 OFFCURVE",
"955 1257 QCURVE SMOOTH",
"1025 1255 OFFCURVE",
"1135 1143 OFFCURVE",
"1143 1049 OFFCURVE",
"1137 1012 QCURVE",
"1132 995 OFFCURVE",
"1220 996 OFFCURVE",
"1229 1012 QCURVE",
"1289 1298 LINE",
"1292 1317 OFFCURVE",
"1290 1333 QCURVE SMOOTH",
"1287 1358 OFFCURVE",
"1222 1358 QCURVE SMOOTH",
"1122 1358 OFFCURVE",
"627 1352 OFFCURVE",
"394 1352 OFFCURVE",
"250 1358 QCURVE",
"237 1358 OFFCURVE",
"227 1294 OFFCURVE",
"229 1264 OFFCURVE",
"237 1264 QCURVE SMOOTH",
"386 1264 OFFCURVE",
"391 1206 QCURVE",
"392 1182 OFFCURVE",
"386 1155 QCURVE SMOOTH",
"183 203 LINE SMOOTH",
"167 126 OFFCURVE",
"126 106 QCURVE SMOOTH",
"85 86 OFFCURVE",
"-1 86 QCURVE SMOOTH",
"-15 86 OFFCURVE",
"-27 18 OFFCURVE",
"-21 -8 OFFCURVE",
"-13 -8 QCURVE",
"61 0 OFFCURVE",
"477 0 OFFCURVE",
"554 -8 QCURVE",
"564 -8 OFFCURVE",
"577 57 OFFCURVE",
"574 86 OFFCURVE",
"566 86 QCURVE SMOOTH",
"420 86 OFFCURVE",
"413 147 QCURVE SMOOTH",
"410 174 OFFCURVE",
"416 203 QCURVE SMOOTH"
);
}
);
};
layerId = "2899D53B-47B8-4BF9-853D-5BC6961E25E7";
paths = (
{
closed = 1;
nodes = (
"567 0 LINE",
"567 86 LINE",
"422 86 OFFCURVE",
"407 123 OFFCURVE",
"419 194 CURVE SMOOTH",
"496 633 LINE",
"660 633 LINE SMOOTH",
"721 633 OFFCURVE",
"747 602 OFFCURVE",
"737 543 CURVE SMOOTH",
"709 389 LINE",
"811 389 LINE",
"913 962 LINE",
"811 962 LINE",
"785 815 LINE SMOOTH",
"774 755 OFFCURVE",
"738 725 OFFCURVE",
"677 725 CURVE SMOOTH",
"513 725 LINE",
"608 1266 LINE",
"930 1255 LINE SMOOTH",
"1036 1251 OFFCURVE",
"1133 1142 OFFCURVE",
"1107 991 CURVE",
"1207 991 LINE",
"1271 1358 LINE",
"184 1358 LINE",
"184 1272 LINE",
"319 1272 OFFCURVE",
"359 1238 OFFCURVE",
"347 1167 CURVE SMOOTH",
"176 194 LINE SMOOTH",
"164 123 OFFCURVE",
"132 86 OFFCURVE",
"-13 86 CURVE",
"-13 0 LINE"
);
}
);
userData = {
assembly = "NPUSHB[ ]\011/* 14 values pushed */
34 1 3 4 51 1 7 8 2 76 11 1 1 73 
MPPEM[ ]\011/* MeasurePixelPerEm */
PUSHB[ ]\011/* 1 value pushed */
37 
LT[ ]\011/* LessThan */
IF[ ]\011/* If */
NPUSHB[ ]\011/* 46 values pushed */
0 5 3 8 3 5 8 128 0 8 7 3 8 7 126 0 7 0 9 0 7 9 105 6 1 3 3 4 95 0 4 4 31 77 2 1 0 0 1 97 0 1 1 32 1 78 
ELSE[ ]\011/* Else */
MPPEM[ ]\011/* MeasurePixelPerEm */
PUSHB[ ]\011/* 1 value pushed */
59 
LT[ ]\011/* LessThan */
IF[ ]\011/* If */
NPUSHB[ ]\011/* 43 values pushed */
0 5 3 8 3 5 8 128 0 8 7 3 8 7 126 0 7 0 9 0 7 9 105 2 1 0 0 1 0 1 101 6 1 3 3 4 95 0 4 4 31 3 78 
ELSE[ ]\011/* Else */
MPPEM[ ]\011/* MeasurePixelPerEm */
PUSHB[ ]\011/* 1 value pushed */
114 
LT[ ]\011/* LessThan */
IF[ ]\011/* If */
NPUSHB[ ]\011/* 50 values pushed */
0 5 3 8 3 5 8 128 0 8 7 3 8 7 126 0 4 6 1 3 5 4 3 105 0 7 0 9 0 7 9 105 2 1 0 1 1 0 89 2 1 0 0 1 97 0 1 0 1 81 
ELSE[ ]\011/* Else */
NPUSHB[ ]\011/* 56 values pushed */
0 3 4 6 6 3 114 0 5 6 8 6 5 8 128 0 8 7 6 8 7 126 0 4 0 6 5 4 6 103 0 7 0 9 0 7 9 105 2 1 0 1 1 0 89 2 1 0 0 1 97 0 1 0 1 81 
EIF[ ]\011/* EndIf */
EIF[ ]\011/* EndIf */
EIF[ ]\011/* EndIf */
NPUSHB[ ]\011/* 14 values pushed */
73 70 19 53 68 21 99 23 36 21 19 10 8 31 
CALL[ ]\011/* CallFunction */";
};
width = 1152;
},
{
associatedMasterId = "98F9B6AB-A1D0-4874-9186-59FDE6DAF116";
background = {
paths = (
{
closed = 1;
nodes = (
"532 613 LINE SMOOTH",
"536 631 OFFCURVE",
"549 640 OFFCURVE",
"570 640 CURVE SMOOTH",
"731 640 LINE SMOOTH",
"789 640 OFFCURVE",
"820 613 OFFCURVE",
"825 559 CURVE SMOOTH",
"827 543 OFFCURVE",
"826 527 OFFCURVE",
"822 512 CURVE SMOOTH",
"798 395 LINE SMOOTH",
"796 385 OFFCURVE",
"807 380 OFFCURVE",
"830 380 CURVE SMOOTH",
"854 380 OFFCURVE",
"867 385 OFFCURVE",
"869 395 CURVE",
"880 491 OFFCURVE",
"952 866 OFFCURVE",
"981 963 CURVE",
"981 972 OFFCURVE",
"971 977 OFFCURVE",
"949 977 CURVE SMOOTH",
"927 977 OFFCURVE",
"915 972 OFFCURVE",
"913 963 CURVE SMOOTH",
"891 846 LINE SMOOTH",
"875 759 OFFCURVE",
"826 716 OFFCURVE",
"745 716 CURVE SMOOTH",
"590 716 LINE SMOOTH",
"571 716 OFFCURVE",
"561 722 OFFCURVE",
"560 734 CURVE SMOOTH",
"559 742 OFFCURVE",
"559 748 OFFCURVE",
"560 753 CURVE SMOOTH",
"664 1267 LINE SMOOTH",
"667 1282 OFFCURVE",
"678 1289 OFFCURVE",
"697 1289 CURVE SMOOTH",
"757 1289 OFFCURVE",
"859 1286 OFFCURVE",
"1001 1280 CURVE SMOOTH",
"1085 1276 OFFCURVE",
"1198 1211 OFFCURVE",
"1209 1088 CURVE SMOOTH",
"1210 1073 OFFCURVE",
"1209 1047 OFFCURVE",
"1205 1010 CURVE SMOOTH",
"1204 1001 OFFCURVE",
"1216 996 OFFCURVE",
"1242 996 CURVE SMOOTH",
"1269 996 OFFCURVE",
"1283 1001 OFFCURVE",
"1285 1010 CURVE SMOOTH",
"1346 1320 LINE SMOOTH",
"1347 1327 OFFCURVE",
"1348 1333 OFFCURVE",
"1347 1336 CURVE SMOOTH",
"1346 1351 OFFCURVE",
"1325 1358 OFFCURVE",
"1283 1358 CURVE SMOOTH",
"1066 1358 OFFCURVE",
"779 1354 OFFCURVE",
"575 1354 CURVE",
"755 1355 OFFCURVE",
"639 1354 OFFCURVE",
"575 1354 CURVE SMOOTH",
"511 1354 OFFCURVE",
"437 1355 OFFCURVE",
"352 1358 CURVE SMOOTH",
"335 1358 OFFCURVE",
"318 1282 OFFCURVE",
"339 1282 CURVE SMOOTH",
"444 1282 OFFCURVE",
"498 1256 OFFCURVE",
"503 1205 CURVE SMOOTH",
"504 1192 OFFCURVE",
"503 1181 OFFCURVE",
"502 1172 CURVE SMOOTH",
"305 186 LINE SMOOTH",
"295 136 OFFCURVE",
"271 103 OFFCURVE",
"235 87 CURVE SMOOTH",
"210 75 OFFCURVE",
"165 69 OFFCURVE",
"102 69 CURVE SMOOTH",
"85 69 OFFCURVE",
"68 -7 OFFCURVE",
"89 -7 CURVE",
"160 -2 OFFCURVE",
"250 0 OFFCURVE",
"357 0 CURVE SMOOTH",
"464 0 OFFCURVE",
"547 -2 OFFCURVE",
"605 -7 CURVE",
"623 -7 OFFCURVE",
"638 69 OFFCURVE",
"618 69 CURVE SMOOTH",
"509 69 OFFCURVE",
"452 95 OFFCURVE",
"447 148 CURVE SMOOTH",
"446 159 OFFCURVE",
"447 172 OFFCURVE",
"450 186 CURVE SMOOTH"
);
}
);
};
hints = (
{
origin = "{0, 22}";
scale = "{1, -1}";
type = Corner;
name = _corner.halfserif;
options = 1;
}
);
layerId = "79EFD3D7-E32D-40A0-8A31-DB7BC83C81D4";
name = "Aug 14 18, 13:02";
paths = (
{
closed = 1;
nodes = (
"284 186 LINE",
"364 640 LINE",
"556 640 LINE SMOOTH",
"645 640 OFFCURVE",
"667 605 OFFCURVE",
"650 512 CURVE SMOOTH",
"628 387 LINE",
"686 387 LINE",
"789 971 LINE",
"731 971 LINE",
"709 846 LINE SMOOTH",
"693 753 OFFCURVE",
"669 716 OFFCURVE",
"569 716 CURVE SMOOTH",
"377 716 LINE",
"480 1299 LINE",
"820 1289 LINE SMOOTH",
"992 1284 OFFCURVE",
"1060 1180 OFFCURVE",
"1026 990 CURVE",
"1087 990 LINE",
"1152 1358 LINE",
"368 1358 LINE",
"162 186 LINE"
);
}
);
userData = {
assembly = "NPUSHB[ ]\011/* 11 values pushed */
34 1 3 4 52 22 2 6 3 2 76 
MPPEM[ ]\011/* MeasurePixelPerEm */
PUSHB[ ]\011/* 1 value pushed */
45 
LT[ ]\011/* LessThan */
IF[ ]\011/* If */
NPUSHB[ ]\011/* 31 values pushed */
0 6 0 7 0 6 7 103 5 1 3 3 4 95 0 4 4 92 77 2 1 0 0 1 97 0 1 1 93 1 78 
ELSE[ ]\011/* Else */
MPPEM[ ]\011/* MeasurePixelPerEm */
PUSHB[ ]\011/* 1 value pushed */
57 
LT[ ]\011/* LessThan */
IF[ ]\011/* If */
NPUSHB[ ]\011/* 28 values pushed */
0 6 0 7 0 6 7 103 2 1 0 0 1 0 1 101 5 1 3 3 4 95 0 4 4 92 3 78 
ELSE[ ]\011/* Else */
NPUSHB[ ]\011/* 35 values pushed */
0 4 5 1 3 6 4 3 105 0 6 0 7 0 6 7 103 2 1 0 1 1 0 89 2 1 0 0 1 97 0 1 0 1 81 
EIF[ ]\011/* EndIf */
EIF[ ]\011/* EndIf */
NPUSHB[ ]\011/* 11 values pushed */
63 38 75 99 23 35 37 19 8 12 30 
CALL[ ]\011/* CallFunction */";
};
width = 1217;
}
);
leftMetricsKey = H;
note = F;
rightKerningGroup = F;
unicode = 0046;
},
{
glyphname = G;
lastChange = "2018-08-18 13:11:15 +0000";
layers = (
{
anchors = (
{
name = bottom;
position = "{551, 0}";
},
{
name = top;
position = "{851, 1363}";
}
);
background = {
paths = (
{
closed = 1;
nodes = (
"1322 363 LINE SMOOTH",
"1340 459 OFFCURVE",
"1360 478 OFFCURVE",
"1486 478 CURVE SMOOTH",
"1505 478 OFFCURVE",
"1524 554 OFFCURVE",
"1502 554 CURVE",
"1462 551 OFFCURVE",
"1380 549 OFFCURVE",
"1256 549 CURVE SMOOTH",
"1133 549 OFFCURVE",
"1046 551 OFFCURVE",
"996 554 CURVE",
"976 554 OFFCURVE",
"959 478 OFFCURVE",
"980 478 CURVE SMOOTH",
"1058 478 OFFCURVE",
"1112 474 OFFCURVE",
"1142 466 CURVE SMOOTH",
"1171 458 OFFCURVE",
"1187 440 OFFCURVE",
"1189 412 CURVE SMOOTH",
"1190 401 OFFCURVE",
"1189 384 OFFCURVE",
"1185 363 CURVE SMOOTH",
"1148 173 LINE SMOOTH",
"1133 90 OFFCURVE",
"1023 48 OFFCURVE",
"819 48 CURVE SMOOTH",
"691 48 OFFCURVE",
"589 90 OFFCURVE",
"512 175 CURVE SMOOTH",
"435 260 OFFCURVE",
"392 360 OFFCURVE",
"382 475 CURVE SMOOTH",
"346 880 OFFCURVE",
"633 1314 OFFCURVE",
"1031 1314 CURVE SMOOTH",
"1253 1314 OFFCURVE",
"1384 1241 OFFCURVE",
"1398 1076 CURVE SMOOTH",
"1400 1055 OFFCURVE",
"1400 1035 OFFCURVE",
"1399 1014 CURVE SMOOTH",
"1398 1005 OFFCURVE",
"1409 1001 OFFCURVE",
"1431 1001 CURVE SMOOTH",
"1454 1001 OFFCURVE",
"1466 1007 OFFCURVE",
"1468 1019 CURVE SMOOTH",
"1496 1154 OFFCURVE",
"1506 1257 OFFCURVE",
"1500 1327 CURVE",
"1489 1327 OFFCURVE",
"1440 1337 OFFCURVE",
"1353 1356 CURVE SMOOTH",
"1266 1375 OFFCURVE",
"1166 1385 OFFCURVE",
"1052 1385 CURVE SMOOTH",
"599 1385 OFFCURVE",
"181 910 OFFCURVE",
"221 454 CURVE SMOOTH",
"246 161 OFFCURVE",
"472 -27 OFFCURVE",
"767 -27 CURVE SMOOTH",
"879 -27 OFFCURVE",
"933 -16 OFFCURVE",
"1117 11 CURVE SMOOTH",
"1210 24 OFFCURVE",
"1268 31 OFFCURVE",
"1293 31 CURVE SMOOTH",
"1307 31 OFFCURVE",
"1314 42 OFFCURVE",
"1312 63 CURVE SMOOTH",
"1309 91 OFFCURVE",
"1269 92 OFFCURVE",
"1277 133 CURVE SMOOTH"
);
}
);
};
layerId = "98F9B6AB-A1D0-4874-9186-59FDE6DAF116";
paths = (
{
closed = 1;
nodes = (
"709 -27 OFFCURVE",
"746 -22 OFFCURVE",
"893 3 CURVE SMOOTH",
"985 19 OFFCURVE",
"1043 32 OFFCURVE",
"1079 41 CURVE",
"1085 77 LINE",
"1053 77 OFFCURVE",
"1054 112 OFFCURVE",
"1060 144 CURVE SMOOTH",
"1100 371 LINE SMOOTH",
"1113 448 OFFCURVE",
"1167 486 OFFCURVE",
"1261 486 CURVE",
"1271 544 LINE",
"780 544 LINE",
"770 486 LINE",
"910 486 OFFCURVE",
"980 454 OFFCURVE",
"980 389 CURVE SMOOTH",
"980 383 OFFCURVE",
"979 377 OFFCURVE",
"978 371 CURVE SMOOTH",
"920 43 LINE",
"989 124 LINE",
"862 52 OFFCURVE",
"754 40 OFFCURVE",
"624 40 CURVE SMOOTH",
"359 40 OFFCURVE",
"211 231 OFFCURVE",
"211 533 CURVE SMOOTH",
"211 859 OFFCURVE",
"423 1322 OFFCURVE",
"851 1322 CURVE SMOOTH",
"1103 1322 OFFCURVE",
"1217 1191 OFFCURVE",
"1217 1056 CURVE SMOOTH",
"1217 1042 OFFCURVE",
"1215 1028 OFFCURVE",
"1213 1014 CURVE",
"1274 1014 LINE",
"1297 1180 OFFCURVE",
"1300 1303 OFFCURVE",
"1300 1327 CURVE",
"1281 1330 OFFCURVE",
"1233 1340 OFFCURVE",
"1158 1356 CURVE SMOOTH",
"1067 1376 OFFCURVE",
"966 1385 OFFCURVE",
"857 1385 CURVE SMOOTH",
"329 1385 OFFCURVE",
"59 838 OFFCURVE",
"59 511 CURVE SMOOTH",
"59 330 OFFCURVE",
"120 148 OFFCURVE",
"293 59 CURVE SMOOTH",
"404 2 OFFCURVE",
"509 -27 OFFCURVE",
"606 -27 CURVE SMOOTH"
);
}
);
userData = {
assembly = "PUSHB[ ]\011/* 6 values pushed */
51 1 7 3 1 76 
MPPEM[ ]\011/* MeasurePixelPerEm */
PUSHB[ ]\011/* 1 value pushed */
57 
LT[ ]\011/* LessThan */
IF[ ]\011/* If */
NPUSHB[ ]\011/* 46 values pushed */
0 3 4 7 4 3 7 128 0 0 5 1 5 0 1 128 0 7 8 1 6 5 7 6 105 0 4 4 2 97 0 2 2 98 77 0 5 5 1 97 0 1 1 93 1 78 
ELSE[ ]\011/* Else */
NPUSHB[ ]\011/* 44 values pushed */
0 3 4 7 4 3 7 128 0 0 5 1 5 0 1 128 0 2 0 4 3 2 4 105 0 7 8 1 6 5 7 6 105 0 5 5 1 97 0 1 1 93 1 78 
EIF[ ]\011/* EndIf */
NPUSHB[ ]\011/* 12 values pushed */
36 51 22 37 37 21 36 34 37 9 12 31 
CALL[ ]\011/* CallFunction */";
};
width = 1252;
},
{
anchors = (
{
name = bottom;
position = "{615, 0}";
},
{
name = top;
position = "{938, 1363}";
}
);
background = {
paths = (
{
closed = 1;
nodes = (
"1392 369 LINE SMOOTH",
"1404 424 OFFCURVE",
"1450 459 OFFCURVE",
"1526 459 QCURVE SMOOTH",
"1536 459 OFFCURVE",
"1549 522 OFFCURVE",
"1546 555 OFFCURVE",
"1538 555 QCURVE",
"1481 549 OFFCURVE",
"1065 549 OFFCURVE",
"1008 555 QCURVE",
"994 555 OFFCURVE",
"983 489 OFFCURVE",
"985 459 OFFCURVE",
"993 459 QCURVE SMOOTH",
"1139 459 OFFCURVE",
"1171 436 OFFCURVE",
"1173 418 QCURVE SMOOTH",
"1174 403 OFFCURVE",
"1170 385 QCURVE",
"1137 219 LINE SMOOTH",
"1107 63 OFFCURVE",
"828 63 QCURVE SMOOTH",
"680 63 OFFCURVE",
"477 282 OFFCURVE",
"459 487 QCURVE SMOOTH",
"433 778 OFFCURVE",
"806 1298 OFFCURVE",
"1072 1298 QCURVE SMOOTH",
"1209 1298 OFFCURVE",
"1410 1184 OFFCURVE",
"1421 1059 QCURVE",
"1420 1056 OFFCURVE",
"1421 999 QCURVE",
"1421 981 OFFCURVE",
"1514 979 OFFCURVE",
"1516 993 QCURVE",
"1560 1169 OFFCURVE",
"1546 1329 QCURVE",
"1485 1329 OFFCURVE",
"1207 1384 OFFCURVE",
"1088 1384 QCURVE SMOOTH",
"730 1384 OFFCURVE",
"189 801 OFFCURVE",
"220 449 QCURVE SMOOTH",
"238 244 OFFCURVE",
"559 -27 OFFCURVE",
"805 -27 QCURVE SMOOTH",
"852 -27 OFFCURVE",
"1026 -8 OFFCURVE",
"1290 29 OFFCURVE",
"1353 29 QCURVE SMOOTH",
"1379 29 OFFCURVE",
"1375 72 QCURVE SMOOTH",
"1374 84 OFFCURVE",
"1343 90 OFFCURVE",
"1341 119 OFFCURVE",
"1344 133 QCURVE SMOOTH"
);
}
);
};
layerId = "2899D53B-47B8-4BF9-853D-5BC6961E25E7";
paths = (
{
closed = 1;
nodes = (
"757 -27 OFFCURVE",
"864 -17 OFFCURVE",
"993 4 CURVE SMOOTH",
"1121 25 OFFCURVE",
"1201 35 OFFCURVE",
"1234 35 CURVE",
"1248 115 LINE",
"1212 115 OFFCURVE",
"1208 136 OFFCURVE",
"1213 160 CURVE SMOOTH",
"1255 401 LINE SMOOTH",
"1264 452 OFFCURVE",
"1304 477 OFFCURVE",
"1387 477 CURVE",
"1403 566 LINE",
"838 566 LINE",
"822 477 LINE",
"962 477 OFFCURVE",
"1013 473 OFFCURVE",
"1013 421 CURVE SMOOTH",
"1013 415 OFFCURVE",
"1012 408 OFFCURVE",
"1011 401 CURVE SMOOTH",
"947 40 LINE",
"1023 158 LINE",
"886 70 OFFCURVE",
"772 68 OFFCURVE",
"698 68 CURVE SMOOTH",
"521 68 OFFCURVE",
"339 218 OFFCURVE",
"339 533 CURVE SMOOTH",
"339 854 OFFCURVE",
"531 1296 OFFCURVE",
"919 1296 CURVE SMOOTH",
"1129 1296 OFFCURVE",
"1266 1220 OFFCURVE",
"1266 1033 CURVE SMOOTH",
"1266 1021 OFFCURVE",
"1265 1008 OFFCURVE",
"1264 995 CURVE",
"1358 995 LINE",
"1376 1134 OFFCURVE",
"1376 1273 OFFCURVE",
"1376 1329 CURVE",
"1338 1330 OFFCURVE",
"1297 1338 OFFCURVE",
"1252 1348 CURVE SMOOTH",
"1133 1374 OFFCURVE",
"1028 1384 OFFCURVE",
"941 1384 CURVE SMOOTH",
"305 1384 OFFCURVE",
"60 810 OFFCURVE",
"60 520 CURVE SMOOTH",
"60 364 OFFCURVE",
"117 233 OFFCURVE",
"232 127 CURVE SMOOTH",
"345 22 OFFCURVE",
"493 -27 OFFCURVE",
"668 -27 CURVE SMOOTH"
);
}
);
userData = {
assembly = "PUSHB[ ]\011/* 7 values pushed */
50 24 2 7 4 1 76 
MPPEM[ ]\011/* MeasurePixelPerEm */
PUSHB[ ]\011/* 1 value pushed */
35 
LT[ ]\011/* LessThan */
IF[ ]\011/* If */
NPUSHB[ ]\011/* 43 values pushed */
0 0 5 1 5 0 1 128 0 7 8 1 6 5 7 6 105 0 3 3 31 77 0 4 4 2 97 0 2 2 37 77 0 5 5 1 97 0 1 1 32 1 78 
ELSE[ ]\011/* Else */
MPPEM[ ]\011/* MeasurePixelPerEm */
PUSHB[ ]\011/* 1 value pushed */
59 
LT[ ]\011/* LessThan */
IF[ ]\011/* If */
NPUSHB[ ]\011/* 46 values pushed */
0 3 2 4 2 3 4 128 0 0 5 1 5 0 1 128 0 7 8 1 6 5 7 6 105 0 4 4 2 97 0 2 2 37 77 0 5 5 1 97 0 1 1 32 1 78 
ELSE[ ]\011/* Else */
NPUSHB[ ]\011/* 44 values pushed */
0 3 2 4 2 3 4 128 0 0 5 1 5 0 1 128 0 2 0 4 7 2 4 105 0 7 8 1 6 5 7 6 105 0 5 5 1 97 0 1 1 32 1 78 
EIF[ ]\011/* EndIf */
EIF[ ]\011/* EndIf */
NPUSHB[ ]\011/* 12 values pushed */
36 21 22 36 41 17 36 34 37 9 8 31 
CALL[ ]\011/* CallFunction */";
};
width = 1380;
}
);
leftKerningGroup = C;
leftMetricsKey = O;
note = G;
rightKerningGroup = G;
unicode = 0047;
},
{
glyphname = H;
lastChange = "2018-08-18 13:18:28 +0000";
layers = (
{
anchors = (
{
name = bottom;
position = "{579, 0}";
},
{
name = center;
position = "{699, 682}";
},
{
name = top;
position = "{819, 1363}";
},
{
name = topleft;
position = "{185, 1363}";
}
);
background = {
paths = (
{
closed = 1;
nodes = (
"1079 666 LINE",
"1079 735 LINE",
"327 735 LINE",
"327 666 LINE"
);
},
{
closed = 1;
nodes = (
"1248 1263 OFFCURVE",
"1317 1300 OFFCURVE",
"1452 1300 CURVE",
"1452 1358 LINE",
"966 1358 LINE",
"966 1300 LINE",
"1101 1300 OFFCURVE",
"1126 1263 OFFCURVE",
"1113 1192 CURVE SMOOTH",
"923 166 LINE SMOOTH",
"910 95 OFFCURVE",
"871 58 OFFCURVE",
"716 58 CURVE",
"716 0 LINE",
"1202 0 LINE",
"1202 58 LINE",
"1067 58 OFFCURVE",
"1032 95 OFFCURVE",
"1045 166 CURVE SMOOTH",
"1235 1192 LINE SMOOTH"
);
},
{
closed = 1;
nodes = (
"487 1263 OFFCURVE",
"556 1300 OFFCURVE",
"691 1300 CURVE",
"691 1358 LINE",
"202 1358 LINE",
"202 1300 LINE",
"317 1300 OFFCURVE",
"365 1263 OFFCURVE",
"352 1192 CURVE SMOOTH",
"162 166 LINE SMOOTH",
"149 95 OFFCURVE",
"111 58 OFFCURVE",
"-44 58 CURVE",
"-44 0 LINE",
"451 0 LINE",
"451 58 LINE",
"316 58 OFFCURVE",
"271 95 OFFCURVE",
"284 166 CURVE SMOOTH",
"474 1192 LINE SMOOTH"
);
}
);
};
layerId = "98F9B6AB-A1D0-4874-9186-59FDE6DAF116";
paths = (
{
closed = 1;
nodes = (
"1079 666 LINE",
"1079 735 LINE",
"327 735 LINE",
"327 666 LINE"
);
},
{
closed = 1;
nodes = (
"1249 1266 OFFCURVE",
"1318 1300 OFFCURVE",
"1442 1300 CURVE",
"1442 1358 LINE",
"966 1358 LINE",
"966 1300 LINE",
"1101 1300 OFFCURVE",
"1126 1263 OFFCURVE",
"1113 1192 CURVE SMOOTH",
"923 166 LINE SMOOTH",
"910 95 OFFCURVE",
"871 58 OFFCURVE",
"716 58 CURVE",
"716 0 LINE",
"1202 0 LINE",
"1202 58 LINE",
"1067 58 OFFCURVE",
"1031 92 OFFCURVE",
"1044 163 CURVE SMOOTH",
"1236 1195 LINE SMOOTH"
);
},
{
closed = 1;
nodes = (
"487 1263 OFFCURVE",
"556 1300 OFFCURVE",
"691 1300 CURVE",
"691 1358 LINE",
"195 1358 LINE",
"195 1300 LINE",
"317 1300 OFFCURVE",
"365 1266 OFFCURVE",
"352 1195 CURVE SMOOTH",
"162 166 LINE SMOOTH",
"149 95 OFFCURVE",
"111 58 OFFCURVE",
"-44 58 CURVE",
"-44 0 LINE",
"451 0 LINE",
"451 58 LINE",
"316 58 OFFCURVE",
"271 95 OFFCURVE",
"284 166 CURVE SMOOTH",
"474 1192 LINE SMOOTH"
);
}
);
userData = {
assembly = "PUSHB[ ]\011/* 8 values pushed */
56 1 8 74 37 1 1 73 
MPPEM[ ]\011/* MeasurePixelPerEm */
PUSHB[ ]\011/* 1 value pushed */
45 
LT[ ]\011/* LessThan */
IF[ ]\011/* If */
NPUSHB[ ]\011/* 37 values pushed */
0 10 0 3 0 10 3 103 13 11 9 3 7 7 8 97 12 1 8 8 92 77 6 4 2 3 0 0 1 97 5 1 1 1 93 1 78 
ELSE[ ]\011/* Else */
MPPEM[ ]\011/* MeasurePixelPerEm */
PUSHB[ ]\011/* 1 value pushed */
57 
LT[ ]\011/* LessThan */
IF[ ]\011/* If */
NPUSHB[ ]\011/* 34 values pushed */
0 10 0 3 0 10 3 103 6 4 2 3 0 5 1 1 0 1 101 13 11 9 3 7 7 8 97 12 1 8 8 92 7 78 
ELSE[ ]\011/* Else */
MPPEM[ ]\011/* MeasurePixelPerEm */
PUSHB[ ]\011/* 1 value pushed */
114 
LT[ ]\011/* LessThan */
IF[ ]\011/* If */
NPUSHB[ ]\011/* 43 values pushed */
12 1 8 13 11 9 3 7 10 8 7 105 0 10 0 3 0 10 3 103 6 4 2 3 0 1 1 0 89 6 4 2 3 0 0 1 97 5 1 1 0 1 81 
ELSE[ ]\011/* Else */
NPUSHB[ ]\011/* 44 values pushed */
12 1 8 13 11 9 3 7 10 8 7 105 0 10 0 3 0 10 3 103 6 4 2 3 0 0 5 1 0 5 105 6 4 2 3 0 0 1 97 0 1 0 1 81 
EIF[ ]\011/* EndIf */
EIF[ ]\011/* EndIf */
EIF[ ]\011/* EndIf */
NPUSHB[ ]\011/* 22 values pushed */
87 85 82 78 75 74 69 66 61 59 21 22 36 21 21 53 35 37 19 14 12 31 
CALL[ ]\011/* CallFunction */";
};
width = 1308;
},
{
anchors = (
{
name = bottom;
position = "{629, 0}";
},
{
name = center;
position = "{749, 682}";
},
{
name = top;
position = "{869, 1363}";
},
{
name = topleft;
position = "{185, 1363}";
}
);
background = {
paths = (
{
closed = 1;
nodes = (
"1341 1153 LINE SMOOTH",
"1353 1212 OFFCURVE",
"1419 1270 OFFCURVE",
"1534 1270 QCURVE SMOOTH",
"1548 1270 OFFCURVE",
"1563 1339 OFFCURVE",
"1560 1364 OFFCURVE",
"1552 1364 QCURVE",
"1496 1358 OFFCURVE",
"1039 1358 OFFCURVE",
"981 1364 QCURVE",
"971 1364 OFFCURVE",
"954 1296 OFFCURVE",
"956 1270 OFFCURVE",
"962 1270 QCURVE SMOOTH",
"1103 1270 OFFCURVE",
"1110 1208 QCURVE SMOOTH",
"1111 1180 OFFCURVE",
"1106 1153 QCURVE SMOOTH",
"1032 784 LINE",
"1027 750 OFFCURVE",
"990 750 QCURVE SMOOTH",
"513 750 LINE SMOOTH",
"484 750 OFFCURVE",
"482 770 OFFCURVE",
"485 784 QCURVE SMOOTH",
"559 1153 LINE",
"570 1217 OFFCURVE",
"646 1270 OFFCURVE",
"752 1270 QCURVE SMOOTH",
"764 1270 OFFCURVE",
"780 1337 OFFCURVE",
"778 1364 OFFCURVE",
"770 1364 QCURVE",
"714 1358 OFFCURVE",
"257 1358 OFFCURVE",
"199 1364 QCURVE",
"186 1364 OFFCURVE",
"172 1296 OFFCURVE",
"174 1270 OFFCURVE",
"180 1270 QCURVE SMOOTH",
"318 1270 OFFCURVE",
"325 1208 QCURVE SMOOTH",
"326 1180 OFFCURVE",
"321 1153 QCURVE SMOOTH",
"135 203 LINE SMOOTH",
"121 133 OFFCURVE",
"34 86 OFFCURVE",
"-54 86 QCURVE SMOOTH",
"-70 86 OFFCURVE",
"-81 18 OFFCURVE",
"-78 -8 OFFCURVE",
"-70 -8 QCURVE",
"4 0 OFFCURVE",
"426 0 OFFCURVE",
"505 -8 QCURVE",
"517 -8 OFFCURVE",
"530 57 OFFCURVE",
"528 86 OFFCURVE",
"522 86 QCURVE SMOOTH",
"372 86 OFFCURVE",
"366 154 QCURVE SMOOTH",
"364 178 OFFCURVE",
"368 203 QCURVE",
"452 621 LINE",
"457 653 OFFCURVE",
"492 653 QCURVE SMOOTH",
"971 653 LINE SMOOTH",
"998 653 OFFCURVE",
"1001 628 OFFCURVE",
"998 614 QCURVE SMOOTH",
"917 203 LINE SMOOTH",
"903 133 OFFCURVE",
"817 86 OFFCURVE",
"729 86 QCURVE SMOOTH",
"714 86 OFFCURVE",
"704 20 OFFCURVE",
"706 -8 OFFCURVE",
"712 -8 QCURVE",
"787 0 OFFCURVE",
"1210 0 OFFCURVE",
"1289 -8 QCURVE",
"1300 -8 OFFCURVE",
"1312 57 OFFCURVE",
"1310 86 OFFCURVE",
"1304 86 QCURVE SMOOTH",
"1155 86 OFFCURVE",
"1149 154 QCURVE",
"1149 178 OFFCURVE",
"1153 203 QCURVE"
);
}
);
};
layerId = "2899D53B-47B8-4BF9-853D-5BC6961E25E7";
paths = (
{
closed = 1;
nodes = (
"1140 653 LINE",
"1140 748 LINE",
"363 748 LINE",
"363 653 LINE"
);
},
{
closed = 1;
nodes = (
"1362 1235 OFFCURVE",
"1412 1272 OFFCURVE",
"1547 1272 CURVE",
"1547 1358 LINE",
"979 1358 LINE",
"979 1272 LINE",
"1087 1272 OFFCURVE",
"1119 1235 OFFCURVE",
"1106 1164 CURVE SMOOTH",
"931 194 LINE SMOOTH",
"918 123 OFFCURVE",
"878 86 OFFCURVE",
"743 86 CURVE",
"743 0 LINE",
"1311 0 LINE",
"1311 86 LINE",
"1176 86 OFFCURVE",
"1161 123 OFFCURVE",
"1174 194 CURVE SMOOTH",
"1349 1164 LINE SMOOTH"
);
},
{
closed = 1;
nodes = (
"579 1235 OFFCURVE",
"619 1272 OFFCURVE",
"754 1272 CURVE",
"754 1358 LINE",
"195 1358 LINE",
"195 1272 LINE",
"313 1272 OFFCURVE",
"336 1235 OFFCURVE",
"323 1164 CURVE SMOOTH",
"148 194 LINE SMOOTH",
"135 123 OFFCURVE",
"95 86 OFFCURVE",
"-40 86 CURVE",
"-40 0 LINE",
"528 0 LINE",
"528 86 LINE",
"393 86 OFFCURVE",
"378 123 OFFCURVE",
"391 194 CURVE SMOOTH",
"566 1164 LINE SMOOTH"
);
}
);
userData = {
assembly = "NPUSHB[ ]\011/* 16 values pushed */
2 1 0 3 1 76 82 56 2 8 74 37 11 2 1 73 
MPPEM[ ]\011/* MeasurePixelPerEm */
PUSHB[ ]\011/* 1 value pushed */
37 
LT[ ]\011/* LessThan */
IF[ ]\011/* If */
NPUSHB[ ]\011/* 37 values pushed */
0 10 0 3 0 10 3 103 13 11 9 3 7 7 8 97 12 1 8 8 31 77 6 4 2 3 0 0 1 97 5 1 1 1 32 1 78 
ELSE[ ]\011/* Else */
MPPEM[ ]\011/* MeasurePixelPerEm */
PUSHB[ ]\011/* 1 value pushed */
59 
LT[ ]\011/* LessThan */
IF[ ]\011/* If */
NPUSHB[ ]\011/* 34 values pushed */
0 10 0 3 0 10 3 103 6 4 2 3 0 5 1 1 0 1 101 13 11 9 3 7 7 8 97 12 1 8 8 31 7 78 
ELSE[ ]\011/* Else */
NPUSHB[ ]\011/* 43 values pushed */
12 1 8 13 11 9 3 7 10 8 7 105 0 10 0 3 0 10 3 103 6 4 2 3 0 1 1 0 89 6 4 2 3 0 0 1 97 5 1 1 0 1 81 
EIF[ ]\011/* EndIf */
EIF[ ]\011/* EndIf */
NPUSHB[ ]\011/* 22 values pushed */
87 85 81 80 75 74 69 66 61 59 21 22 36 21 21 53 36 21 19 14 8 31 
CALL[ ]\011/* CallFunction */";
};
width = 1408;
}
);
note = H;
rightKerningGroup = H;
unicode = 0048;
},
{
glyphname = I;
lastChange = "2018-08-18 12:36:51 +0000";
layers = (
{
anchors = (
{
name = bottom;
position = "{198, 0}";
},
{
name = ogonek;
position = "{417, 10}";
},
{
name = top;
position = "{438, 1363}";
},
{
name = topleft;
position = "{185, 1363}";
}
);
background = {
paths = (
{
closed = 1;
nodes = (
"487 1263 OFFCURVE",
"556 1300 OFFCURVE",
"691 1300 CURVE",
"691 1358 LINE",
"185 1358 LINE",
"185 1300 LINE",
"320 1300 OFFCURVE",
"365 1263 OFFCURVE",
"352 1192 CURVE SMOOTH",
"162 166 LINE SMOOTH",
"149 95 OFFCURVE",
"111 58 OFFCURVE",
"-44 58 CURVE",
"-44 0 LINE",
"451 0 LINE",
"451 58 LINE",
"316 58 OFFCURVE",
"271 95 OFFCURVE",
"284 166 CURVE SMOOTH",
"474 1192 LINE SMOOTH"
);
}
);
};
layerId = "98F9B6AB-A1D0-4874-9186-59FDE6DAF116";
paths = (
{
closed = 1;
nodes = (
"487 1263 OFFCURVE",
"556 1300 OFFCURVE",
"680 1300 CURVE",
"680 1358 LINE",
"195 1358 LINE",
"195 1300 LINE",
"320 1300 OFFCURVE",
"365 1266 OFFCURVE",
"352 1195 CURVE SMOOTH",
"162 166 LINE SMOOTH",
"149 95 OFFCURVE",
"111 58 OFFCURVE",
"-44 58 CURVE",
"-44 0 LINE",
"441 0 LINE",
"441 58 LINE",
"316 58 OFFCURVE",
"271 95 OFFCURVE",
"284 166 CURVE SMOOTH",
"474 1192 LINE SMOOTH"
);
}
);
userData = {
assembly = "PUSHB[ ]\011/* 8 values pushed */
30 1 4 74 11 1 1 73 
MPPEM[ ]\011/* MeasurePixelPerEm */
PUSHB[ ]\011/* 1 value pushed */
37 
LT[ ]\011/* LessThan */
IF[ ]\011/* If */
NPUSHB[ ]\011/* 23 values pushed */
5 1 3 3 4 97 0 4 4 92 77 2 1 0 0 1 97 0 1 1 93 1 78 
ELSE[ ]\011/* Else */
MPPEM[ ]\011/* MeasurePixelPerEm */
PUSHB[ ]\011/* 1 value pushed */
57 
LT[ ]\011/* LessThan */
IF[ ]\011/* If */
NPUSHB[ ]\011/* 20 values pushed */
2 1 0 0 1 0 1 101 5 1 3 3 4 97 0 4 4 92 3 78 
ELSE[ ]\011/* Else */
NPUSHB[ ]\011/* 27 values pushed */
0 4 5 1 3 0 4 3 105 2 1 0 1 1 0 89 2 1 0 0 1 97 0 1 0 1 81 
EIF[ ]\011/* EndIf */
EIF[ ]\011/* EndIf */
NPUSHB[ ]\011/* 9 values pushed */
36 21 22 36 21 19 6 12 28 
CALL[ ]\011/* CallFunction */";
};
width = 546;
},
{
anchors = (
{
name = bottom;
position = "{243, 0}";
},
{
name = ogonek;
position = "{498, 10}";
},
{
name = top;
position = "{483, 1363}";
},
{
name = topleft;
position = "{185, 1363}";
}
);
background = {
paths = (
{
closed = 1;
nodes = (
"573 1153 LINE",
"582 1210 OFFCURVE",
"655 1270 OFFCURVE",
"766 1270 QCURVE SMOOTH",
"780 1270 OFFCURVE",
"794 1339 OFFCURVE",
"792 1364 OFFCURVE",
"784 1364 QCURVE",
"728 1358 OFFCURVE",
"271 1358 OFFCURVE",
"213 1364 QCURVE",
"200 1364 OFFCURVE",
"186 1296 OFFCURVE",
"188 1270 OFFCURVE",
"194 1270 QCURVE SMOOTH",
"334 1270 OFFCURVE",
"338 1217 QCURVE SMOOTH",
"340 1180 OFFCURVE",
"335 1153 QCURVE SMOOTH",
"149 203 LINE SMOOTH",
"135 133 OFFCURVE",
"48 86 OFFCURVE",
"-40 86 QCURVE SMOOTH",
"-56 86 OFFCURVE",
"-67 18 OFFCURVE",
"-64 -8 OFFCURVE",
"-56 -8 QCURVE",
"18 0 OFFCURVE",
"440 0 OFFCURVE",
"519 -8 QCURVE",
"531 -8 OFFCURVE",
"544 57 OFFCURVE",
"542 86 OFFCURVE",
"536 86 QCURVE SMOOTH",
"387 86 OFFCURVE",
"380 150 QCURVE SMOOTH",
"377 178 OFFCURVE",
"382 203 QCURVE"
);
}
);
};
layerId = "2899D53B-47B8-4BF9-853D-5BC6961E25E7";
paths = (
{
closed = 1;
nodes = (
"589 1235 OFFCURVE",
"639 1272 OFFCURVE",
"774 1272 CURVE",
"774 1358 LINE",
"196 1358 LINE",
"196 1272 LINE",
"314 1272 OFFCURVE",
"346 1235 OFFCURVE",
"333 1164 CURVE SMOOTH",
"158 194 LINE SMOOTH",
"145 123 OFFCURVE",
"95 86 OFFCURVE",
"-40 86 CURVE",
"-40 0 LINE",
"548 0 LINE",
"548 86 LINE",
"413 86 OFFCURVE",
"388 123 OFFCURVE",
"401 194 CURVE SMOOTH",
"576 1164 LINE SMOOTH"
);
}
);
userData = {
assembly = "PUSHB[ ]\011/* 8 values pushed */
30 1 4 74 11 1 1 73 
MPPEM[ ]\011/* MeasurePixelPerEm */
PUSHB[ ]\011/* 1 value pushed */
37 
LT[ ]\011/* LessThan */
IF[ ]\011/* If */
NPUSHB[ ]\011/* 23 values pushed */
5 1 3 3 4 97 0 4 4 31 77 2 1 0 0 1 97 0 1 1 32 1 78 
ELSE[ ]\011/* Else */
MPPEM[ ]\011/* MeasurePixelPerEm */
PUSHB[ ]\011/* 1 value pushed */
59 
LT[ ]\011/* LessThan */
IF[ ]\011/* If */
NPUSHB[ ]\011/* 20 values pushed */
2 1 0 0 1 0 1 101 5 1 3 3 4 97 0 4 4 31 3 78 
ELSE[ ]\011/* Else */
NPUSHB[ ]\011/* 27 values pushed */
0 4 5 1 3 0 4 3 105 2 1 0 1 1 0 89 2 1 0 0 1 97 0 1 0 1 81 
EIF[ ]\011/* EndIf */
EIF[ ]\011/* EndIf */
NPUSHB[ ]\011/* 9 values pushed */
36 21 22 36 21 19 6 8 28 
CALL[ ]\011/* CallFunction */";
};
width = 635;
}
);
leftMetricsKey = H;
note = I;
rightKerningGroup = I;
rightMetricsKey = H;
unicode = 0049;
},
{
glyphname = J;
lastChange = "2018-08-18 13:18:43 +0000";
layers = (
{
anchors = (
{
name = bottom;
position = "{205, 0}";
},
{
name = top;
position = "{445, 1363}";
}
);
background = {
paths = (
{
closed = 1;
nodes = (
"-91 -419 OFFCURVE",
"-43 -403 OFFCURVE",
"2 -376 CURVE SMOOTH",
"193 -260 OFFCURVE",
"263 -72 OFFCURVE",
"322 200 CURVE SMOOTH",
"345 308 OFFCURVE",
"373 449 OFFCURVE",
"406 634 CURVE SMOOTH",
"504 1192 LINE SMOOTH",
"516 1263 OFFCURVE",
"566 1300 OFFCURVE",
"701 1300 CURVE",
"701 1358 LINE",
"213 1358 LINE",
"213 1300 LINE",
"348 1300 OFFCURVE",
"395 1263 OFFCURVE",
"382 1192 CURVE SMOOTH",
"218 260 LINE SMOOTH",
"174 11 OFFCURVE",
"137 -143 OFFCURVE",
"105 -203 CURVE SMOOTH",
"73 -263 OFFCURVE",
"32 -313 OFFCURVE",
"-13 -328 CURVE",
"-17 -288 OFFCURVE",
"-61 -237 OFFCURVE",
"-132 -237 CURVE SMOOTH",
"-188 -237 OFFCURVE",
"-242 -272 OFFCURVE",
"-242 -333 CURVE SMOOTH",
"-242 -390 OFFCURVE",
"-200 -419 OFFCURVE",
"-143 -419 CURVE SMOOTH"
);
}
);
};
layerId = "98F9B6AB-A1D0-4874-9186-59FDE6DAF116";
paths = (
{
closed = 1;
nodes = (
"-91 -419 OFFCURVE",
"-43 -403 OFFCURVE",
"2 -376 CURVE SMOOTH",
"193 -260 OFFCURVE",
"263 -72 OFFCURVE",
"322 200 CURVE SMOOTH",
"345 308 OFFCURVE",
"373 449 OFFCURVE",
"406 634 CURVE SMOOTH",
"504 1192 LINE SMOOTH",
"516 1263 OFFCURVE",
"565 1300 OFFCURVE",
"710 1300 CURVE",
"710 1358 LINE",
"226 1358 LINE",
"226 1300 LINE",
"348 1300 OFFCURVE",
"396 1266 OFFCURVE",
"383 1195 CURVE SMOOTH",
"218 260 LINE SMOOTH",
"174 11 OFFCURVE",
"137 -143 OFFCURVE",
"105 -203 CURVE SMOOTH",
"73 -263 OFFCURVE",
"32 -313 OFFCURVE",
"-13 -328 CURVE",
"-17 -288 OFFCURVE",
"-61 -237 OFFCURVE",
"-132 -237 CURVE SMOOTH",
"-188 -237 OFFCURVE",
"-242 -272 OFFCURVE",
"-242 -333 CURVE SMOOTH",
"-242 -390 OFFCURVE",
"-200 -419 OFFCURVE",
"-143 -419 CURVE SMOOTH"
);
}
);
userData = {
assembly = "PUSHB[ ]\011/* 6 values pushed */
11 1 0 1 1 76 
MPPEM[ ]\011/* MeasurePixelPerEm */
PUSHB[ ]\011/* 1 value pushed */
57 
LT[ ]\011/* LessThan */
IF[ ]\011/* If */
NPUSHB[ ]\011/* 19 values pushed */
0 1 0 0 1 0 101 4 1 2 2 3 97 0 3 3 92 2 78 
ELSE[ ]\011/* Else */
NPUSHB[ ]\011/* 25 values pushed */
0 3 4 1 2 1 3 2 105 0 1 0 0 1 89 0 1 1 0 97 0 0 1 0 81 
EIF[ ]\011/* EndIf */
PUSHB[ ]\011/* 8 values pushed */
35 37 25 35 34 5 12 27 
CALL[ ]\011/* CallFunction */";
};
width = 560;
},
{
anchors = (
{
name = bottom;
position = "{278, 0}";
},
{
name = top;
position = "{518, 1363}";
}
);
background = {
paths = (
{
closed = 1;
nodes = (
"644 1153 LINE SMOOTH",
"659 1229 OFFCURVE",
"740 1270 OFFCURVE",
"822 1270 QCURVE SMOOTH",
"836 1270 OFFCURVE",
"847 1337 OFFCURVE",
"844 1364 OFFCURVE",
"836 1364 QCURVE",
"780 1358 OFFCURVE",
"356 1358 OFFCURVE",
"298 1364 QCURVE",
"283 1364 OFFCURVE",
"271 1300 OFFCURVE",
"273 1270 OFFCURVE",
"281 1270 QCURVE SMOOTH",
"405 1270 OFFCURVE",
"413 1194 QCURVE SMOOTH",
"416 1176 OFFCURVE",
"411 1153 QCURVE SMOOTH",
"305 639 LINE SMOOTH",
"168 -26 OFFCURVE",
"109 -248 OFFCURVE",
"30 -303 QCURVE",
"21 -252 OFFCURVE",
"-65 -180 OFFCURVE",
"-122 -180 QCURVE SMOOTH",
"-178 -180 OFFCURVE",
"-270 -246 OFFCURVE",
"-260 -360 OFFCURVE",
"-167 -418 OFFCURVE",
"-95 -418 QCURVE SMOOTH",
"67 -418 OFFCURVE",
"230 -248 QCURVE SMOOTH",
"394 -76 OFFCURVE",
"465 272 QCURVE SMOOTH"
);
}
);
};
layerId = "2899D53B-47B8-4BF9-853D-5BC6961E25E7";
paths = (
{
closed = 1;
nodes = (
"-37 -420 OFFCURVE",
"25 -403 OFFCURVE",
"86 -371 CURVE SMOOTH",
"272 -275 OFFCURVE",
"406 -109 OFFCURVE",
"470 195 CURVE SMOOTH",
"516 414 OFFCURVE",
"544 557 OFFCURVE",
"557 629 CURVE SMOOTH",
"651 1165 LINE SMOOTH",
"663 1236 OFFCURVE",
"711 1273 OFFCURVE",
"841 1273 CURVE",
"841 1359 LINE",
"279 1359 LINE",
"279 1273 LINE",
"384 1273 OFFCURVE",
"421 1236 OFFCURVE",
"408 1165 CURVE SMOOTH",
"247 254 LINE SMOOTH",
"204 13 OFFCURVE",
"171 -136 OFFCURVE",
"143 -195 CURVE SMOOTH",
"125 -234 OFFCURVE",
"97 -259 OFFCURVE",
"72 -276 CURVE",
"60 -209 OFFCURVE",
"4 -158 OFFCURVE",
"-73 -158 CURVE SMOOTH",
"-162 -158 OFFCURVE",
"-235 -213 OFFCURVE",
"-235 -297 CURVE SMOOTH",
"-235 -375 OFFCURVE",
"-157 -420 OFFCURVE",
"-94 -420 CURVE SMOOTH"
);
}
);
userData = {
assembly = "NPUSHB[ ]\011/* 10 values pushed */
12 1 0 1 1 76 27 1 3 74 
MPPEM[ ]\011/* MeasurePixelPerEm */
PUSHB[ ]\011/* 1 value pushed */
59 
LT[ ]\011/* LessThan */
IF[ ]\011/* If */
NPUSHB[ ]\011/* 19 values pushed */
0 1 0 0 1 0 101 4 1 2 2 3 97 0 3 3 31 2 78 
ELSE[ ]\011/* Else */
NPUSHB[ ]\011/* 25 values pushed */
0 3 4 1 2 1 3 2 105 0 1 0 0 1 89 0 1 1 0 97 0 0 1 0 81 
EIF[ ]\011/* EndIf */
PUSHB[ ]\011/* 8 values pushed */
36 21 25 35 35 5 8 27 
CALL[ ]\011/* CallFunction */";
};
width = 705;
}
);
leftKerningGroup = J;
note = J;
rightKerningGroup = J;
unicode = 004A;
},
{
glyphname = K;
lastChange = "2018-08-18 13:18:52 +0000";
layers = (
{
anchors = (
{
name = bottom;
position = "{544, 0}";
},
{
name = top;
position = "{784, 1363}";
}
);
background = {
paths = (
{
closed = 1;
nodes = (
"1133 0 LINE",
"1133 56 LINE",
"1015 56 OFFCURVE",
"962 103 OFFCURVE",
"918 173 CURVE SMOOTH",
"556 742 LINE",
"1019 1201 LINE SMOOTH",
"1065 1246 OFFCURVE",
"1127 1300 OFFCURVE",
"1250 1300 CURVE",
"1250 1358 LINE",
"887 1358 LINE",
"887 1300 LINE",
"934 1300 OFFCURVE",
"961 1296 OFFCURVE",
"961 1269 CURVE SMOOTH",
"961 1241 OFFCURVE",
"928 1203 OFFCURVE",
"900 1175 CURVE SMOOTH",
"543 810 LINE SMOOTH",
"522 789 OFFCURVE",
"440 706 OFFCURVE",
"406 706 CURVE SMOOTH",
"373 706 LINE",
"363 651 LINE",
"400 651 LINE SMOOTH",
"450 651 OFFCURVE",
"501 595 OFFCURVE",
"534 539 CURVE SMOOTH",
"741 186 LINE SMOOTH",
"752 167 OFFCURVE",
"761 145 OFFCURVE",
"761 129 CURVE SMOOTH",
"761 71 OFFCURVE",
"702 56 OFFCURVE",
"637 56 CURVE",
"637 0 LINE"
);
},
{
closed = 1;
nodes = (
"487 1263 OFFCURVE",
"556 1300 OFFCURVE",
"691 1300 CURVE",
"691 1358 LINE",
"185 1358 LINE",
"185 1300 LINE",
"320 1300 OFFCURVE",
"365 1263 OFFCURVE",
"352 1192 CURVE SMOOTH",
"162 166 LINE SMOOTH",
"149 95 OFFCURVE",
"100 58 OFFCURVE",
"-44 58 CURVE",
"-44 0 LINE",
"451 0 LINE",
"451 58 LINE",
"316 58 OFFCURVE",
"271 95 OFFCURVE",
"284 166 CURVE SMOOTH",
"474 1192 LINE SMOOTH"
);
}
);
};
layerId = "98F9B6AB-A1D0-4874-9186-59FDE6DAF116";
paths = (
{
closed = 1;
nodes = (
"1133 0 LINE",
"1133 56 LINE",
"1015 56 OFFCURVE",
"962 103 OFFCURVE",
"918 173 CURVE SMOOTH",
"556 742 LINE",
"1019 1201 LINE SMOOTH",
"1065 1246 OFFCURVE",
"1127 1300 OFFCURVE",
"1250 1300 CURVE",
"1250 1358 LINE",
"887 1358 LINE",
"887 1300 LINE",
"934 1300 OFFCURVE",
"961 1296 OFFCURVE",
"961 1269 CURVE SMOOTH",
"961 1241 OFFCURVE",
"928 1203 OFFCURVE",
"900 1175 CURVE SMOOTH",
"543 810 LINE SMOOTH",
"522 789 OFFCURVE",
"440 706 OFFCURVE",
"406 706 CURVE SMOOTH",
"373 706 LINE",
"363 651 LINE",
"400 651 LINE SMOOTH",
"450 651 OFFCURVE",
"501 595 OFFCURVE",
"534 539 CURVE SMOOTH",
"741 186 LINE SMOOTH",
"752 167 OFFCURVE",
"761 145 OFFCURVE",
"761 129 CURVE SMOOTH",
"761 71 OFFCURVE",
"702 56 OFFCURVE",
"637 56 CURVE",
"637 0 LINE"
);
},
{
closed = 1;
nodes = (
"487 1263 OFFCURVE",
"556 1300 OFFCURVE",
"691 1300 CURVE",
"691 1358 LINE",
"196 1358 LINE",
"196 1300 LINE",
"320 1300 OFFCURVE",
"366 1266 OFFCURVE",
"353 1195 CURVE SMOOTH",
"162 166 LINE SMOOTH",
"149 95 OFFCURVE",
"100 58 OFFCURVE",
"-44 58 CURVE",
"-44 0 LINE",
"451 0 LINE",
"451 58 LINE",
"316 58 OFFCURVE",
"271 95 OFFCURVE",
"284 166 CURVE SMOOTH",
"474 1192 LINE SMOOTH"
);
}
);
userData = {
assembly = "NPUSHB[ ]\011/* 16 values pushed */
89 1 10 7 1 76 79 54 2 8 74 35 10 2 1 73 
MPPEM[ ]\011/* MeasurePixelPerEm */
PUSHB[ ]\011/* 1 value pushed */
37 
LT[ ]\011/* LessThan */
IF[ ]\011/* If */
NPUSHB[ ]\011/* 37 values pushed */
0 10 0 3 0 10 3 105 13 11 9 3 7 7 8 97 12 1 8 8 92 77 6 4 2 3 0 0 1 97 5 1 1 1 93 1 78 
ELSE[ ]\011/* Else */
MPPEM[ ]\011/* MeasurePixelPerEm */
PUSHB[ ]\011/* 1 value pushed */
57 
LT[ ]\011/* LessThan */
IF[ ]\011/* If */
NPUSHB[ ]\011/* 34 values pushed */
0 10 0 3 0 10 3 105 6 4 2 3 0 5 1 1 0 1 101 13 11 9 3 7 7 8 97 12 1 8 8 92 7 78 
ELSE[ ]\011/* Else */
NPUSHB[ ]\011/* 43 values pushed */
12 1 8 13 11 9 3 7 10 8 7 105 0 10 0 3 0 10 3 105 6 4 2 3 0 1 1 0 89 6 4 2 3 0 0 1 97 5 1 1 0 1 81 
EIF[ ]\011/* EndIf */
EIF[ ]\011/* EndIf */
NPUSHB[ ]\011/* 22 values pushed */
84 82 78 77 72 71 66 65 59 57 21 22 36 21 21 22 36 21 18 14 12 31 
CALL[ ]\011/* CallFunction */";
};
width = 1238;
},
{
anchors = (
{
name = bottom;
position = "{629, 0}";
},
{
name = top;
position = "{869, 1363}";
}
);
background = {
paths = (
{
closed = 1;
nodes = (
"804 719 LINE SMOOTH",
"789 742 OFFCURVE",
"789 752 QCURVE",
"789 762 OFFCURVE",
"803 776 QCURVE SMOOTH",
"1166 1120 LINE SMOOTH",
"1260 1208 OFFCURVE",
"1318 1239 QCURVE SMOOTH",
"1374 1270 OFFCURVE",
"1468 1270 QCURVE SMOOTH",
"1483 1270 OFFCURVE",
"1497 1339 OFFCURVE",
"1493 1364 OFFCURVE",
"1485 1364 QCURVE",
"1431 1358 OFFCURVE",
"1142 1358 OFFCURVE",
"1071 1364 QCURVE",
"1059 1364 OFFCURVE",
"1040 1294 OFFCURVE",
"1043 1270 OFFCURVE",
"1051 1270 QCURVE SMOOTH",
"1102 1270 OFFCURVE",
"1105 1243 QCURVE SMOOTH",
"1106 1214 OFFCURVE",
"1048 1157 QCURVE SMOOTH",
"683 795 LINE SMOOTH",
"629 739 OFFCURVE",
"606 739 QCURVE SMOOTH",
"600 739 OFFCURVE",
"599 752 OFFCURVE",
"600 758 QCURVE",
"680 1153 LINE SMOOTH",
"694 1231 OFFCURVE",
"766 1270 OFFCURVE",
"850 1270 QCURVE SMOOTH",
"862 1270 OFFCURVE",
"879 1337 OFFCURVE",
"877 1364 OFFCURVE",
"869 1364 QCURVE",
"796 1358 OFFCURVE",
"393 1358 OFFCURVE",
"320 1364 QCURVE",
"307 1364 OFFCURVE",
"293 1298 OFFCURVE",
"295 1270 OFFCURVE",
"303 1270 QCURVE SMOOTH",
"442 1270 OFFCURVE",
"448 1204 QCURVE SMOOTH",
"450 1178 OFFCURVE",
"446 1153 QCURVE",
"254 203 LINE SMOOTH",
"239 133 OFFCURVE",
"159 86 OFFCURVE",
"67 86 QCURVE SMOOTH",
"51 86 OFFCURVE",
"40 14 OFFCURVE",
"45 -6 OFFCURVE",
"53 -6 QCURVE",
"170 0 OFFCURVE",
"492 0 OFFCURVE",
"606 -8 QCURVE",
"620 -8 OFFCURVE",
"631 55 OFFCURVE",
"628 86 OFFCURVE",
"622 86 QCURVE SMOOTH",
"491 87 OFFCURVE",
"485 150 QCURVE SMOOTH",
"483 178 OFFCURVE",
"487 203 QCURVE",
"569 602 LINE SMOOTH",
"574 627 OFFCURVE",
"599 627 OFFCURVE",
"635 600 OFFCURVE",
"654 563 QCURVE",
"859 205 LINE SMOOTH",
"889 155 OFFCURVE",
"891 135 QCURVE SMOOTH",
"895 86 OFFCURVE",
"811 86 QCURVE SMOOTH",
"798 86 OFFCURVE",
"785 25 OFFCURVE",
"786 -8 OFFCURVE",
"796 -8 QCURVE",
"887 0 OFFCURVE",
"1236 0 OFFCURVE",
"1329 -8 QCURVE",
"1341 -8 OFFCURVE",
"1348 45 OFFCURVE",
"1345 86 OFFCURVE",
"1335 86 QCURVE SMOOTH",
"1269 86 OFFCURVE",
"1171 124 OFFCURVE",
"1131 190 QCURVE SMOOTH"
);
}
);
};
layerId = "2899D53B-47B8-4BF9-853D-5BC6961E25E7";
paths = (
{
closed = 1;
nodes = (
"1303 0 LINE",
"1303 86 LINE",
"1193 86 OFFCURVE",
"1133 104 OFFCURVE",
"1075 190 CURVE SMOOTH",
"687 759 LINE",
"1129 1186 LINE SMOOTH",
"1190 1244 OFFCURVE",
"1240 1270 OFFCURVE",
"1367 1270 CURVE",
"1367 1358 LINE",
"952 1358 LINE",
"952 1270 LINE",
"999 1270 OFFCURVE",
"1019 1262 OFFCURVE",
"1019 1248 CURVE SMOOTH",
"1019 1226 OFFCURVE",
"980 1184 OFFCURVE",
"950 1155 CURVE SMOOTH",
"615 825 LINE SMOOTH",
"578 788 OFFCURVE",
"549 770 OFFCURVE",
"530 770 CURVE SMOOTH",
"493 770 LINE",
"463 598 LINE",
"506 598 LINE SMOOTH",
"521 598 OFFCURVE",
"547 575 OFFCURVE",
"579 524 CURVE SMOOTH",
"780 203 LINE SMOOTH",
"798 174 OFFCURVE",
"808 150 OFFCURVE",
"808 132 CURVE SMOOTH",
"808 93 OFFCURVE",
"757 86 OFFCURVE",
"706 86 CURVE",
"706 0 LINE"
);
},
{
closed = 1;
nodes = (
"589 1235 OFFCURVE",
"639 1272 OFFCURVE",
"774 1272 CURVE",
"774 1358 LINE",
"196 1358 LINE",
"196 1272 LINE",
"314 1272 OFFCURVE",
"346 1235 OFFCURVE",
"333 1164 CURVE SMOOTH",
"158 194 LINE SMOOTH",
"145 123 OFFCURVE",
"95 86 OFFCURVE",
"-40 86 CURVE",
"-40 0 LINE",
"548 0 LINE",
"548 86 LINE",
"413 86 OFFCURVE",
"388 123 OFFCURVE",
"401 194 CURVE SMOOTH",
"576 1164 LINE SMOOTH"
);
}
);
userData = {
assembly = "MPPEM[ ]\011/* MeasurePixelPerEm */
PUSHB[ ]\011/* 1 value pushed */
114 
LT[ ]\011/* LessThan */
IF[ ]\011/* If */
NPUSHB[ ]\011/* 9 values pushed */
79 54 2 8 74 10 1 1 73 
ELSE[ ]\011/* Else */
NPUSHB[ ]\011/* 9 values pushed */
79 54 2 8 74 10 1 5 73 
EIF[ ]\011/* EndIf */
MPPEM[ ]\011/* MeasurePixelPerEm */
PUSHB[ ]\011/* 1 value pushed */
37 
LT[ ]\011/* LessThan */
IF[ ]\011/* If */
NPUSHB[ ]\011/* 44 values pushed */
0 10 7 3 7 10 3 128 0 3 0 7 3 0 126 13 11 9 3 7 7 8 97 12 1 8 8 31 77 6 4 2 3 0 0 1 97 5 1 1 1 32 1 78 
ELSE[ ]\011/* Else */
MPPEM[ ]\011/* MeasurePixelPerEm */
PUSHB[ ]\011/* 1 value pushed */
59 
LT[ ]\011/* LessThan */
IF[ ]\011/* If */
NPUSHB[ ]\011/* 41 values pushed */
0 10 7 3 7 10 3 128 0 3 0 7 3 0 126 6 4 2 3 0 5 1 1 0 1 101 13 11 9 3 7 7 8 97 12 1 8 8 31 7 78 
ELSE[ ]\011/* Else */
MPPEM[ ]\011/* MeasurePixelPerEm */
PUSHB[ ]\011/* 1 value pushed */
114 
LT[ ]\011/* LessThan */
IF[ ]\011/* If */
NPUSHB[ ]\011/* 50 values pushed */
0 10 7 3 7 10 3 128 0 3 0 7 3 0 126 12 1 8 13 11 9 3 7 10 8 7 105 6 4 2 3 0 1 1 0 89 6 4 2 3 0 0 1 97 5 1 1 0 1 81 
ELSE[ ]\011/* Else */
MPPEM[ ]\011/* MeasurePixelPerEm */
PUSHB[ ]\011/* 1 value pushed */
146 
LT[ ]\011/* LessThan */
IF[ ]\011/* If */
NPUSHB[ ]\011/* 51 values pushed */
0 10 7 3 7 10 3 128 0 3 0 7 3 0 126 12 1 8 13 11 9 3 7 10 8 7 105 6 4 2 3 0 0 1 5 0 1 105 6 4 2 3 0 0 5 95 0 5 0 5 79 
ELSE[ ]\011/* Else */
NPUSHB[ ]\011/* 56 values pushed */
0 10 7 3 7 10 3 128 0 3 0 7 3 0 126 0 8 12 7 8 89 0 12 13 11 9 3 7 10 12 7 105 6 4 2 3 0 0 1 5 0 1 105 6 4 2 3 0 0 5 95 0 5 0 5 79 
EIF[ ]\011/* EndIf */
EIF[ ]\011/* EndIf */
EIF[ ]\011/* EndIf */
EIF[ ]\011/* EndIf */
NPUSHB[ ]\011/* 22 values pushed */
84 82 78 77 72 71 66 64 59 57 51 22 35 67 21 22 36 21 18 14 8 31 
CALL[ ]\011/* CallFunction */";
};
width = 1408;
}
);
leftMetricsKey = H;
note = K;
rightKerningGroup = K;
unicode = 004B;
},
{
glyphname = L;
lastChange = "2018-08-18 13:19:02 +0000";
layers = (
{
anchors = (
{
name = bottom;
position = "{504, 0}";
},
{
name = center;
position = "{624, 682}";
},
{
name = top;
position = "{744, 1363}";
},
{
name = topright;
position = "{1303, 1363}";
}
);
background = {
paths = (
{
closed = 1;
nodes = (
"1051 0 LINE",
"1118 381 LINE",
"1048 381 LINE",
"1017 202 OFFCURVE",
"897 75 OFFCURVE",
"729 67 CURVE SMOOTH",
"453 54 LINE",
"362 54 OFFCURVE",
"319 107 OFFCURVE",
"311 171 CURVE SMOOTH",
"308 202 OFFCURVE",
"307 235 OFFCURVE",
"313 269 CURVE SMOOTH",
"476 1192 LINE SMOOTH",
"489 1263 OFFCURVE",
"540 1300 OFFCURVE",
"707 1300 CURVE",
"707 1358 LINE",
"171 1358 LINE",
"171 1300 LINE",
"306 1300 OFFCURVE",
"366 1263 OFFCURVE",
"354 1192 CURVE SMOOTH",
"173 163 LINE SMOOTH",
"160 93 OFFCURVE",
"92 58 OFFCURVE",
"-33 58 CURVE",
"-33 0 LINE"
);
}
);
};
layerId = "98F9B6AB-A1D0-4874-9186-59FDE6DAF116";
paths = (
{
closed = 1;
nodes = (
"1051 0 LINE",
"1118 381 LINE",
"1048 381 LINE",
"1017 202 OFFCURVE",
"897 75 OFFCURVE",
"729 67 CURVE SMOOTH",
"453 54 LINE",
"362 54 OFFCURVE",
"319 107 OFFCURVE",
"311 171 CURVE SMOOTH",
"307 202 OFFCURVE",
"307 235 OFFCURVE",
"313 269 CURVE SMOOTH",
"476 1192 LINE SMOOTH",
"489 1263 OFFCURVE",
"540 1300 OFFCURVE",
"707 1300 CURVE",
"707 1358 LINE",
"185 1358 LINE",
"185 1300 LINE",
"306 1300 OFFCURVE",
"368 1266 OFFCURVE",
"355 1195 CURVE SMOOTH",
"173 163 LINE SMOOTH",
"161 93 OFFCURVE",
"92 58 OFFCURVE",
"-33 58 CURVE",
"-33 0 LINE"
);
}
);
userData = {
assembly = "PUSHB[ ]\011/* 4 values pushed */
26 1 3 74 
MPPEM[ ]\011/* MeasurePixelPerEm */
PUSHB[ ]\011/* 1 value pushed */
45 
LT[ ]\011/* LessThan */
IF[ ]\011/* If */
NPUSHB[ ]\011/* 23 values pushed */
4 1 2 2 3 97 0 3 3 92 77 5 1 1 1 0 95 0 0 0 93 0 78 
ELSE[ ]\011/* Else */
MPPEM[ ]\011/* MeasurePixelPerEm */
PUSHB[ ]\011/* 1 value pushed */
57 
LT[ ]\011/* LessThan */
IF[ ]\011/* If */
NPUSHB[ ]\011/* 20 values pushed */
5 1 1 0 0 1 0 99 4 1 2 2 3 97 0 3 3 92 2 78 
ELSE[ ]\011/* Else */
MPPEM[ ]\011/* MeasurePixelPerEm */
PUSHB[ ]\011/* 1 value pushed */
90 
LT[ ]\011/* LessThan */
IF[ ]\011/* If */
NPUSHB[ ]\011/* 27 values pushed */
0 3 4 1 2 1 3 2 105 5 1 1 0 0 1 89 5 1 1 1 0 95 0 0 1 0 79 
ELSE[ ]\011/* Else */
NPUSHB[ ]\011/* 29 values pushed */
0 1 2 0 2 1 0 128 0 0 0 132 0 3 2 2 3 89 0 3 3 2 97 4 1 2 3 2 81 
EIF[ ]\011/* EndIf */
EIF[ ]\011/* EndIf */
EIF[ ]\011/* EndIf */
NPUSHB[ ]\011/* 9 values pushed */
54 36 21 22 35 82 6 12 28 
CALL[ ]\011/* CallFunction */";
};
width = 1158;
},
{
anchors = (
{
name = bottom;
position = "{578, 0}";
},
{
name = center;
position = "{698, 682}";
},
{
name = top;
position = "{818, 1363}";
},
{
name = topright;
position = "{1451, 1363}";
}
);
background = {
paths = (
{
closed = 1;
nodes = (
"1251 383 LINE",
"1255 399 OFFCURVE",
"1154 399 OFFCURVE",
"1152 383 QCURVE",
"1094 103 OFFCURVE",
"839 92 QCURVE SMOOTH",
"525 78 LINE SMOOTH",
"414 73 OFFCURVE",
"407 160 QCURVE SMOOTH",
"405 195 OFFCURVE",
"415 242 QCURVE SMOOTH",
"601 1153 LINE SMOOTH",
"614 1217 OFFCURVE",
"677 1270 OFFCURVE",
"800 1270 QCURVE SMOOTH",
"812 1270 OFFCURVE",
"827 1337 OFFCURVE",
"824 1364 OFFCURVE",
"818 1364 QCURVE",
"762 1358 OFFCURVE",
"293 1358 OFFCURVE",
"235 1364 QCURVE",
"222 1364 OFFCURVE",
"208 1298 OFFCURVE",
"210 1270 OFFCURVE",
"216 1270 QCURVE SMOOTH",
"360 1270 OFFCURVE",
"365 1206 QCURVE SMOOTH",
"366 1180 OFFCURVE",
"361 1153 QCURVE SMOOTH",
"171 197 LINE SMOOTH",
"162 152 OFFCURVE",
"109 86 OFFCURVE",
"-16 86 QCURVE SMOOTH",
"-30 86 OFFCURVE",
"-47 16 OFFCURVE",
"-44 -8 OFFCURVE",
"-36 -8 QCURVE",
"153 0 OFFCURVE",
"395 0 OFFCURVE",
"982 -8 OFFCURVE",
"1082 -8 QCURVE SMOOTH",
"1156 -8 OFFCURVE",
"1177 4 OFFCURVE",
"1183 47 QCURVE"
);
}
);
};
layerId = "2899D53B-47B8-4BF9-853D-5BC6961E25E7";
paths = (
{
closed = 1;
nodes = (
"1199 0 LINE",
"1269 401 LINE",
"1169 401 LINE",
"1144 258 OFFCURVE",
"1015 95 OFFCURVE",
"888 90 CURVE SMOOTH",
"555 78 LINE",
"478 78 OFFCURVE",
"439 122 OFFCURVE",
"439 200 CURVE SMOOTH",
"439 216 OFFCURVE",
"441 232 OFFCURVE",
"444 250 CURVE SMOOTH",
"605 1164 LINE SMOOTH",
"617 1235 OFFCURVE",
"677 1272 OFFCURVE",
"812 1272 CURVE",
"812 1358 LINE",
"213 1358 LINE",
"213 1272 LINE",
"344 1272 OFFCURVE",
"374 1235 OFFCURVE",
"362 1164 CURVE SMOOTH",
"191 191 LINE SMOOTH",
"179 120 OFFCURVE",
"95 86 OFFCURVE",
"-40 86 CURVE",
"-40 0 LINE"
);
}
);
userData = {
assembly = "PUSHB[ ]\011/* 4 values pushed */
26 1 3 74 
MPPEM[ ]\011/* MeasurePixelPerEm */
PUSHB[ ]\011/* 1 value pushed */
45 
LT[ ]\011/* LessThan */
IF[ ]\011/* If */
NPUSHB[ ]\011/* 31 values pushed */
0 6 2 1 2 6 1 128 4 1 2 2 3 97 0 3 3 31 77 5 1 1 1 0 95 0 0 0 32 0 78 
ELSE[ ]\011/* Else */
MPPEM[ ]\011/* MeasurePixelPerEm */
PUSHB[ ]\011/* 1 value pushed */
59 
LT[ ]\011/* LessThan */
IF[ ]\011/* If */
NPUSHB[ ]\011/* 28 values pushed */
0 6 2 1 2 6 1 128 5 1 1 0 0 1 0 99 4 1 2 2 3 97 0 3 3 31 2 78 
ELSE[ ]\011/* Else */
MPPEM[ ]\011/* MeasurePixelPerEm */
PUSHB[ ]\011/* 1 value pushed */
76 
LT[ ]\011/* LessThan */
IF[ ]\011/* If */
NPUSHB[ ]\011/* 35 values pushed */
0 6 2 1 2 6 1 128 0 3 4 1 2 6 3 2 105 5 1 1 0 0 1 89 5 1 1 1 0 95 0 0 1 0 79 
ELSE[ ]\011/* Else */
NPUSHB[ ]\011/* 36 values pushed */
0 6 2 1 2 6 1 128 0 1 0 2 1 0 126 0 0 0 132 0 3 2 2 3 89 0 3 3 2 97 4 1 2 3 2 81 
EIF[ ]\011/* EndIf */
EIF[ ]\011/* EndIf */
EIF[ ]\011/* EndIf */
NPUSHB[ ]\011/* 10 values pushed */
18 54 36 21 22 35 82 7 8 29 
CALL[ ]\011/* CallFunction */";
};
width = 1306;
}
);
leftMetricsKey = H;
note = L;
rightKerningGroup = L;
unicode = 004C;
},
{
glyphname = Lslash;
lastChange = "2018-08-18 13:26:02 +0000";
layers = (
{
anchors = (
{
name = bottom;
position = "{573.532, 0}";
},
{
name = center;
position = "{693.787, 682}";
},
{
name = top;
position = "{813.866, 1363}";
},
{
name = topright;
position = "{1372.866, 1363}";
}
);
annotations = (
{
position = "{785, 690}";
text = "Decomposed L to keep slash from getting misaligned. Is there a better way?";
type = Text;
width = 139;
}
);
background = {
paths = (
{
closed = 1;
nodes = (
"893 916 LINE",
"848 986 LINE",
"109 536 LINE",
"155 468 LINE"
);
}
);
};
layerId = "98F9B6AB-A1D0-4874-9186-59FDE6DAF116";
paths = (
{
closed = 1;
nodes = (
"790 856 LINE",
"745 926 LINE",
"6 476 LINE",
"52 408 LINE"
);
},
{
closed = 1;
nodes = (
"1121 0 LINE",
"1188 381 LINE",
"1118 381 LINE",
"1087 202 OFFCURVE",
"967 75 OFFCURVE",
"799 67 CURVE SMOOTH",
"523 54 LINE",
"432 54 OFFCURVE",
"389 107 OFFCURVE",
"381 171 CURVE SMOOTH",
"377 202 OFFCURVE",
"377 235 OFFCURVE",
"383 269 CURVE SMOOTH",
"546 1192 LINE SMOOTH",
"559 1263 OFFCURVE",
"610 1300 OFFCURVE",
"777 1300 CURVE",
"777 1358 LINE",
"255 1358 LINE",
"255 1300 LINE",
"376 1300 OFFCURVE",
"438 1266 OFFCURVE",
"425 1195 CURVE SMOOTH",
"243 163 LINE SMOOTH",
"231 93 OFFCURVE",
"162 58 OFFCURVE",
"37 58 CURVE",
"37 0 LINE"
);
}
);
userData = {
assembly = "NPUSHB[ ]\011/* 11 values pushed */
39 14 2 1 2 1 76 31 1 3 74 
MPPEM[ ]\011/* MeasurePixelPerEm */
PUSHB[ ]\011/* 1 value pushed */
45 
LT[ ]\011/* LessThan */
IF[ ]\011/* If */
NPUSHB[ ]\011/* 23 values pushed */
4 1 2 2 3 97 0 3 3 92 77 5 1 1 1 0 95 0 0 0 93 0 78 
ELSE[ ]\011/* Else */
MPPEM[ ]\011/* MeasurePixelPerEm */
PUSHB[ ]\011/* 1 value pushed */
57 
LT[ ]\011/* LessThan */
IF[ ]\011/* If */
NPUSHB[ ]\011/* 20 values pushed */
5 1 1 0 0 1 0 99 4 1 2 2 3 97 0 3 3 92 2 78 
ELSE[ ]\011/* Else */
MPPEM[ ]\011/* MeasurePixelPerEm */
PUSHB[ ]\011/* 1 value pushed */
90 
LT[ ]\011/* LessThan */
IF[ ]\011/* If */
NPUSHB[ ]\011/* 27 values pushed */
0 3 4 1 2 1 3 2 105 5 1 1 0 0 1 89 5 1 1 1 0 95 0 0 1 0 79 
ELSE[ ]\011/* Else */
NPUSHB[ ]\011/* 29 values pushed */
0 1 2 0 2 1 0 128 0 0 0 132 0 3 2 2 3 89 0 3 3 2 97 4 1 2 3 2 81 
EIF[ ]\011/* EndIf */
EIF[ ]\011/* EndIf */
EIF[ ]\011/* EndIf */
NPUSHB[ ]\011/* 9 values pushed */
60 36 21 28 35 66 6 12 28 
CALL[ ]\011/* CallFunction */";
};
width = 1228;
},
{
anchors = (
{
name = bottom;
position = "{647.532, 0}";
},
{
name = center;
position = "{767.787, 682}";
},
{
name = top;
position = "{887.866, 1363}";
},
{
name = topright;
position = "{1520.866, 1363}";
}
);
background = {
paths = (
{
closed = 1;
nodes = (
"964 828 LINE",
"912 926 LINE",
"138 473 LINE",
"190 379 LINE"
);
}
);
};
layerId = "2899D53B-47B8-4BF9-853D-5BC6961E25E7";
paths = (
{
closed = 1;
nodes = (
"884 828 LINE",
"832 926 LINE",
"58 473 LINE",
"110 379 LINE"
);
},
{
closed = 1;
nodes = (
"1269 0 LINE",
"1339 401 LINE",
"1239 401 LINE",
"1214 258 OFFCURVE",
"1085 95 OFFCURVE",
"958 90 CURVE SMOOTH",
"625 78 LINE",
"548 78 OFFCURVE",
"509 122 OFFCURVE",
"509 200 CURVE SMOOTH",
"509 216 OFFCURVE",
"511 232 OFFCURVE",
"514 250 CURVE SMOOTH",
"675 1164 LINE SMOOTH",
"687 1235 OFFCURVE",
"747 1272 OFFCURVE",
"882 1272 CURVE",
"882 1358 LINE",
"283 1358 LINE",
"283 1272 LINE",
"414 1272 OFFCURVE",
"444 1235 OFFCURVE",
"432 1164 CURVE SMOOTH",
"261 191 LINE SMOOTH",
"249 120 OFFCURVE",
"165 86 OFFCURVE",
"30 86 CURVE",
"30 0 LINE"
);
}
);
userData = {
assembly = "MPPEM[ ]\011/* MeasurePixelPerEm */
PUSHB[ ]\011/* 1 value pushed */
90 
LT[ ]\011/* LessThan */
IF[ ]\011/* If */
NPUSHB[ ]\011/* 23 values pushed */
48 40 2 2 3 64 59 58 21 4 6 2 22 1 1 6 3 76 46 42 2 3 74 
ELSE[ ]\011/* Else */
NPUSHB[ ]\011/* 27 values pushed */
48 40 2 2 3 64 59 58 21 4 6 2 22 1 1 6 73 1 0 1 4 76 46 42 2 3 74 
EIF[ ]\011/* EndIf */
MPPEM[ ]\011/* MeasurePixelPerEm */
PUSHB[ ]\011/* 1 value pushed */
45 
LT[ ]\011/* LessThan */
IF[ ]\011/* If */
NPUSHB[ ]\011/* 31 values pushed */
0 6 2 1 2 6 1 128 4 1 2 2 3 97 0 3 3 31 77 5 1 1 1 0 95 0 0 0 32 0 78 
ELSE[ ]\011/* Else */
MPPEM[ ]\011/* MeasurePixelPerEm */
PUSHB[ ]\011/* 1 value pushed */
59 
LT[ ]\011/* LessThan */
IF[ ]\011/* If */
NPUSHB[ ]\011/* 28 values pushed */
0 6 2 1 2 6 1 128 5 1 1 0 0 1 0 99 4 1 2 2 3 97 0 3 3 31 2 78 
ELSE[ ]\011/* Else */
MPPEM[ ]\011/* MeasurePixelPerEm */
PUSHB[ ]\011/* 1 value pushed */
90 
LT[ ]\011/* LessThan */
IF[ ]\011/* If */
NPUSHB[ ]\011/* 35 values pushed */
0 6 2 1 2 6 1 128 0 3 4 1 2 6 3 2 105 5 1 1 0 0 1 89 5 1 1 1 0 95 0 0 1 0 79 
ELSE[ ]\011/* Else */
NPUSHB[ ]\011/* 36 values pushed */
0 6 2 1 2 6 1 128 0 1 0 2 1 0 126 0 0 0 132 0 3 2 2 3 89 0 3 3 2 97 4 1 2 3 2 81 
EIF[ ]\011/* EndIf */
EIF[ ]\011/* EndIf */
EIF[ ]\011/* EndIf */
NPUSHB[ ]\011/* 15 values pushed */
82 80 76 73 53 51 45 43 37 36 37 100 7 8 24 
CALL[ ]\011/* CallFunction */";
};
width = 1376;
}
);
note = Lslash;
rightMetricsKey = L;
unicode = 0141;
},
{
glyphname = M;
lastChange = "2018-08-18 13:19:13 +0000";
layers = (
{
anchors = (
{
name = bottom;
position = "{754, 0}";
},
{
name = top;
position = "{994, 1363}";
}
);
background = {
paths = (
{
closed = 1;
nodes = (
"1797 1106 LINE SMOOTH",
"1827 1250 OFFCURVE",
"1866 1287 OFFCURVE",
"1994 1287 CURVE",
"2012 1292 OFFCURVE",
"2028 1363 OFFCURVE",
"2008 1363 CURVE",
"1977 1360 OFFCURVE",
"1934 1358 OFFCURVE",
"1878 1358 CURVE SMOOTH",
"1823 1358 OFFCURVE",
"1789 1356 OFFCURVE",
"1776 1353 CURVE SMOOTH",
"1745 1346 OFFCURVE",
"1718 1325 OFFCURVE",
"1695 1291 CURVE SMOOTH",
"1004 275 LINE SMOOTH",
"994 259 OFFCURVE",
"984 251 OFFCURVE",
"974 251 CURVE SMOOTH",
"965 251 OFFCURVE",
"958 260 OFFCURVE",
"953 277 CURVE SMOOTH",
"673 1285 LINE SMOOTH",
"664 1322 OFFCURVE",
"644 1344 OFFCURVE",
"615 1352 CURVE",
"603 1356 OFFCURVE",
"566 1358 OFFCURVE",
"505 1358 CURVE SMOOTH",
"444 1358 OFFCURVE",
"398 1360 OFFCURVE",
"367 1363 CURVE",
"347 1363 OFFCURVE",
"331 1287 OFFCURVE",
"353 1287 CURVE SMOOTH",
"456 1287 OFFCURVE",
"510 1256 OFFCURVE",
"516 1193 CURVE SMOOTH",
"518 1169 OFFCURVE",
"515 1141 OFFCURVE",
"506 1110 CURVE SMOOTH",
"263 186 LINE SMOOTH",
"241 103 OFFCURVE",
"177 69 OFFCURVE",
"83 69 CURVE SMOOTH",
"64 69 OFFCURVE",
"48 -7 OFFCURVE",
"68 -7 CURVE",
"125 -2 OFFCURVE",
"192 0 OFFCURVE",
"266 0 CURVE SMOOTH",
"341 0 OFFCURVE",
"407 -2 OFFCURVE",
"466 -7 CURVE",
"484 -7 OFFCURVE",
"501 69 OFFCURVE",
"480 69 CURVE SMOOTH",
"387 69 OFFCURVE",
"338 95 OFFCURVE",
"333 147 CURVE SMOOTH",
"332 158 OFFCURVE",
"334 171 OFFCURVE",
"338 186 CURVE SMOOTH",
"559 1041 LINE SMOOTH",
"565 1061 OFFCURVE",
"573 1071 OFFCURVE",
"583 1071 CURVE SMOOTH",
"593 1071 OFFCURVE",
"601 1061 OFFCURVE",
"606 1041 CURVE SMOOTH",
"867 6 LINE",
"870 -3 OFFCURVE",
"875 -8 OFFCURVE",
"882 -8 CURVE SMOOTH",
"890 -8 OFFCURVE",
"897 -4 OFFCURVE",
"902 4 CURVE SMOOTH",
"1609 1045 LINE",
"1615 1054 OFFCURVE",
"1622 1058 OFFCURVE",
"1628 1058 CURVE SMOOTH",
"1635 1058 OFFCURVE",
"1638 1054 OFFCURVE",
"1639 1046 CURVE SMOOTH",
"1639 1043 OFFCURVE",
"1639 1041 OFFCURVE",
"1638 1039 CURVE",
"1471 186 LINE SMOOTH",
"1455 111 OFFCURVE",
"1404 69 OFFCURVE",
"1309 69 CURVE SMOOTH",
"1290 69 OFFCURVE",
"1274 -7 OFFCURVE",
"1295 -7 CURVE",
"1352 -2 OFFCURVE",
"1426 0 OFFCURVE",
"1517 0 CURVE SMOOTH",
"1609 0 OFFCURVE",
"1683 -2 OFFCURVE",
"1741 -7 CURVE",
"1759 -7 OFFCURVE",
"1777 69 OFFCURVE",
"1756 69 CURVE SMOOTH",
"1664 69 OFFCURVE",
"1616 96 OFFCURVE",
"1611 150 CURVE SMOOTH",
"1610 159 OFFCURVE",
"1611 171 OFFCURVE",
"1613 186 CURVE"
);
}
);
};
layerId = "98F9B6AB-A1D0-4874-9186-59FDE6DAF116";
paths = (
{
closed = 1;
nodes = (
"759 -23 LINE",
"1415 1052 LINE",
"1441 1052 LINE",
"1292 186 LINE SMOOTH",
"1278 108 OFFCURVE",
"1221 69 OFFCURVE",
"1112 69 CURVE",
"1112 0 LINE",
"1565 0 LINE",
"1565 69 LINE",
"1450 69 OFFCURVE",
"1404 108 OFFCURVE",
"1417 186 CURVE SMOOTH",
"1572 1106 LINE SMOOTH",
"1595 1245 OFFCURVE",
"1665 1287 OFFCURVE",
"1808 1287 CURVE",
"1808 1358 LINE",
"1617 1358 LINE SMOOTH",
"1555 1358 OFFCURVE",
"1513 1339 OFFCURVE",
"1484 1291 CURVE SMOOTH",
"827 219 LINE",
"796 219 LINE",
"517 1285 LINE SMOOTH",
"503 1340 OFFCURVE",
"470 1358 OFFCURVE",
"404 1358 CURVE SMOOTH",
"196 1358 LINE",
"196 1287 LINE",
"362 1287 OFFCURVE",
"369 1216 OFFCURVE",
"369 1175 CURVE SMOOTH",
"369 1156 OFFCURVE",
"366 1142 OFFCURVE",
"363 1130 CURVE SMOOTH",
"137 186 LINE SMOOTH",
"118 108 OFFCURVE",
"49 69 OFFCURVE",
"-51 69 CURVE",
"-51 0 LINE",
"366 0 LINE",
"366 69 LINE",
"273 69 OFFCURVE",
"216 133 OFFCURVE",
"216 164 CURVE SMOOTH",
"216 170 OFFCURVE",
"217 178 OFFCURVE",
"219 186 CURVE SMOOTH",
"425 1058 LINE",
"443 1058 LINE",
"732 -23 LINE"
);
}
);
userData = {
assembly = "MPPEM[ ]\011/* MeasurePixelPerEm */
PUSHB[ ]\011/* 1 value pushed */
61 
LT[ ]\011/* LessThan */
IF[ ]\011/* If */
NPUSHB[ ]\011/* 15 values pushed */
19 1 10 4 1 76 76 1 9 74 44 11 2 1 73 
ELSE[ ]\011/* Else */
NPUSHB[ ]\011/* 15 values pushed */
19 1 10 4 44 11 2 3 1 2 76 76 1 9 74 
EIF[ ]\011/* EndIf */
MPPEM[ ]\011/* MeasurePixelPerEm */
PUSHB[ ]\011/* 1 value pushed */
37 
LT[ ]\011/* LessThan */
IF[ ]\011/* If */
NPUSHB[ ]\011/* 43 values pushed */
0 4 8 10 8 4 10 128 0 10 0 8 10 0 126 12 1 8 8 9 97 11 1 9 9 92 77 7 5 2 3 0 0 1 97 6 3 2 1 1 93 1 78 
ELSE[ ]\011/* Else */
MPPEM[ ]\011/* MeasurePixelPerEm */
PUSHB[ ]\011/* 1 value pushed */
57 
LT[ ]\011/* LessThan */
IF[ ]\011/* If */
NPUSHB[ ]\011/* 40 values pushed */
0 4 8 10 8 4 10 128 0 10 0 8 10 0 126 7 5 2 3 0 6 3 2 1 0 1 101 12 1 8 8 9 97 11 1 9 9 92 8 78 
ELSE[ ]\011/* Else */
MPPEM[ ]\011/* MeasurePixelPerEm */
PUSHB[ ]\011/* 1 value pushed */
61 
LT[ ]\011/* LessThan */
IF[ ]\011/* If */
NPUSHB[ ]\011/* 49 values pushed */
0 4 8 10 8 4 10 128 0 10 0 8 10 0 126 11 1 9 12 1 8 4 9 8 105 7 5 2 3 0 1 1 0 89 7 5 2 3 0 0 1 97 6 3 2 1 0 1 81 
ELSE[ ]\011/* Else */
NPUSHB[ ]\011/* 53 values pushed */
0 4 8 10 8 4 10 128 0 10 0 8 10 0 126 0 3 1 3 134 11 1 9 12 1 8 4 9 8 105 7 5 2 3 0 1 1 0 89 7 5 2 3 0 0 1 97 6 1 1 0 1 81 
EIF[ ]\011/* EndIf */
EIF[ ]\011/* EndIf */
EIF[ ]\011/* EndIf */
NPUSHB[ ]\011/* 20 values pushed */
81 79 75 74 69 67 62 61 22 36 21 21 19 26 36 21 19 13 12 31 
CALL[ ]\011/* CallFunction */";
};
width = 1658;
},
{
anchors = (
{
name = bottom;
position = "{813, 0}";
},
{
name = top;
position = "{1053, 1363}";
}
);
background = {
paths = (
{
closed = 1;
nodes = (
"1863 1077 LINE SMOOTH",
"1891 1204 OFFCURVE",
"1946 1270 OFFCURVE",
"2057 1270 QCURVE SMOOTH",
"2069 1270 OFFCURVE",
"2084 1339 OFFCURVE",
"2081 1364 OFFCURVE",
"2075 1364 QCURVE",
"1969 1358 OFFCURVE",
"1803 1357 OFFCURVE",
"1770 1341 QCURVE SMOOTH",
"1739 1325 OFFCURVE",
"1708 1282 QCURVE SMOOTH",
"1039 354 LINE",
"1024 336 OFFCURVE",
"1012 336 QCURVE",
"998 333 OFFCURVE",
"991 360 QCURVE",
"732 1264 LINE",
"716 1314 OFFCURVE",
"691 1337 QCURVE",
"673 1358 OFFCURVE",
"502 1358 OFFCURVE",
"408 1364 QCURVE",
"398 1364 OFFCURVE",
"380 1296 OFFCURVE",
"382 1270 OFFCURVE",
"388 1270 QCURVE SMOOTH",
"523 1270 OFFCURVE",
"530 1184 QCURVE SMOOTH",
"533 1147 OFFCURVE",
"519 1100 QCURVE SMOOTH",
"273 219 LINE SMOOTH",
"247 135 OFFCURVE",
"165 86 OFFCURVE",
"79 86 QCURVE SMOOTH",
"65 86 OFFCURVE",
"53 16 OFFCURVE",
"58 -8 OFFCURVE",
"64 -8 QCURVE",
"138 0 OFFCURVE",
"400 0 OFFCURVE",
"477 -8 QCURVE",
"490 -8 OFFCURVE",
"504 55 OFFCURVE",
"501 86 OFFCURVE",
"493 86 QCURVE SMOOTH",
"374 86 OFFCURVE",
"369 147 QCURVE SMOOTH",
"367 172 OFFCURVE",
"375 199 QCURVE SMOOTH",
"569 899 LINE",
"575 926 OFFCURVE",
"598 926 OFFCURVE",
"604 897 QCURVE",
"849 25 LINE SMOOTH",
"860 -16 OFFCURVE",
"909 -16 OFFCURVE",
"937 23 QCURVE SMOOTH",
"1546 862 LINE SMOOTH",
"1568 891 OFFCURVE",
"1586 891 OFFCURVE",
"1587 879 QCURVE SMOOTH",
"1588 870 OFFCURVE",
"1587 860 QCURVE",
"1448 217 LINE SMOOTH",
"1434 147 OFFCURVE",
"1359 86 OFFCURVE",
"1281 86 QCURVE SMOOTH",
"1269 86 OFFCURVE",
"1252 18 OFFCURVE",
"1256 -8 OFFCURVE",
"1264 -8 QCURVE",
"1340 0 OFFCURVE",
"1734 0 OFFCURVE",
"1813 -8 QCURVE",
"1825 -8 OFFCURVE",
"1837 57 OFFCURVE",
"1834 86 OFFCURVE",
"1826 86 QCURVE SMOOTH",
"1679 87 OFFCURVE",
"1674 150 QCURVE SMOOTH",
"1672 174 OFFCURVE",
"1678 199 QCURVE SMOOTH"
);
}
);
};
layerId = "2899D53B-47B8-4BF9-853D-5BC6961E25E7";
paths = (
{
closed = 1;
nodes = (
"787 -18 LINE",
"1418 897 LINE",
"1432 897 LINE",
"1317 209 LINE SMOOTH",
"1303 127 OFFCURVE",
"1244 86 OFFCURVE",
"1132 86 CURVE",
"1132 0 LINE",
"1700 0 LINE",
"1700 86 LINE",
"1584 86 OFFCURVE",
"1537 127 OFFCURVE",
"1551 209 CURVE SMOOTH",
"1701 1124 LINE SMOOTH",
"1718 1234 OFFCURVE",
"1789 1270 OFFCURVE",
"1903 1270 CURVE",
"1903 1358 LINE",
"1683 1358 LINE SMOOTH",
"1638 1358 OFFCURVE",
"1596 1331 OFFCURVE",
"1558 1276 CURVE SMOOTH",
"912 336 LINE",
"882 336 LINE",
"599 1270 LINE SMOOTH",
"580 1332 OFFCURVE",
"539 1358 OFFCURVE",
"495 1358 CURVE SMOOTH",
"208 1358 LINE",
"208 1270 LINE",
"338 1270 OFFCURVE",
"366 1226 OFFCURVE",
"366 1183 CURVE SMOOTH",
"366 1164 OFFCURVE",
"361 1140 OFFCURVE",
"356 1116 CURVE SMOOTH",
"136 211 LINE SMOOTH",
"115 128 OFFCURVE",
"60 86 OFFCURVE",
"-48 86 CURVE",
"-48 0 LINE",
"400 0 LINE",
"400 86 LINE",
"287 86 OFFCURVE",
"235 110 OFFCURVE",
"235 160 CURVE SMOOTH",
"235 171 OFFCURVE",
"237 190 OFFCURVE",
"241 207 CURVE SMOOTH",
"429 989 LINE",
"445 989 LINE",
"747 -18 LINE"
);
}
);
userData = {
assembly = "MPPEM[ ]\011/* MeasurePixelPerEm */
PUSHB[ ]\011/* 1 value pushed */
30 
LT[ ]\011/* LessThan */
IF[ ]\011/* If */
PUSHB[ ]\011/* 5 values pushed */
44 11 2 1 73 
ELSE[ ]\011/* Else */
PUSHB[ ]\011/* 7 values pushed */
44 11 2 3 1 1 76 
EIF[ ]\011/* EndIf */
MPPEM[ ]\011/* MeasurePixelPerEm */
PUSHB[ ]\011/* 1 value pushed */
30 
LT[ ]\011/* LessThan */
IF[ ]\011/* If */
NPUSHB[ ]\011/* 36 values pushed */
0 4 8 0 8 4 0 128 11 1 8 8 9 97 10 1 9 9 31 77 7 5 2 3 0 0 1 97 6 3 2 1 1 32 1 78 
ELSE[ ]\011/* Else */
MPPEM[ ]\011/* MeasurePixelPerEm */
PUSHB[ ]\011/* 1 value pushed */
37 
LT[ ]\011/* LessThan */
IF[ ]\011/* If */
NPUSHB[ ]\011/* 40 values pushed */
0 4 8 0 8 4 0 128 11 1 8 8 9 97 10 1 9 9 31 77 7 5 2 3 0 0 1 97 6 1 1 1 32 77 0 3 3 32 3 78 
ELSE[ ]\011/* Else */
MPPEM[ ]\011/* MeasurePixelPerEm */
PUSHB[ ]\011/* 1 value pushed */
59 
LT[ ]\011/* LessThan */
IF[ ]\011/* If */
NPUSHB[ ]\011/* 38 values pushed */
0 4 8 0 8 4 0 128 7 5 2 3 0 6 1 1 3 0 1 105 11 1 8 8 9 97 10 1 9 9 31 77 0 3 3 32 3 78 
ELSE[ ]\011/* Else */
MPPEM[ ]\011/* MeasurePixelPerEm */
PUSHB[ ]\011/* 1 value pushed */
93 
LT[ ]\011/* LessThan */
IF[ ]\011/* If */
NPUSHB[ ]\011/* 36 values pushed */
0 4 8 0 8 4 0 128 10 1 9 11 1 8 4 9 8 105 7 5 2 3 0 6 1 1 3 0 1 105 0 3 3 32 3 78 
ELSE[ ]\011/* Else */
NPUSHB[ ]\011/* 46 values pushed */
0 4 8 0 8 4 0 128 0 3 1 3 134 10 1 9 11 1 8 4 9 8 105 7 5 2 3 0 1 1 0 89 7 5 2 3 0 0 1 97 6 1 1 0 1 81 
EIF[ ]\011/* EndIf */
EIF[ ]\011/* EndIf */
EIF[ ]\011/* EndIf */
EIF[ ]\011/* EndIf */
NPUSHB[ ]\011/* 18 values pushed */
81 79 76 74 62 59 22 36 21 21 19 26 36 21 19 12 8 31 
CALL[ ]\011/* CallFunction */";
};
width = 1776;
}
);
leftKerningGroup = M;
note = M;
rightKerningGroup = M;
unicode = 004D;
},
{
glyphname = N;
lastChange = "2018-08-18 12:36:00 +0000";
layers = (
{
anchors = (
{
name = bottom;
position = "{599, 0}";
},
{
name = top;
position = "{839, 1363}";
}
);
background = {
paths = (
{
closed = 1;
nodes = (
"1535 1172 LINE SMOOTH",
"1555 1273 OFFCURVE",
"1599 1287 OFFCURVE",
"1703 1287 CURVE SMOOTH",
"1721 1287 OFFCURVE",
"1737 1363 OFFCURVE",
"1717 1363 CURVE",
"1686 1360 OFFCURVE",
"1622 1358 OFFCURVE",
"1525 1358 CURVE SMOOTH",
"1427 1358 OFFCURVE",
"1363 1360 OFFCURVE",
"1331 1363 CURVE",
"1313 1363 OFFCURVE",
"1295 1287 OFFCURVE",
"1315 1287 CURVE SMOOTH",
"1414 1287 OFFCURVE",
"1466 1263 OFFCURVE",
"1470 1216 CURVE SMOOTH",
"1471 1203 OFFCURVE",
"1470 1188 OFFCURVE",
"1467 1172 CURVE SMOOTH",
"1287 290 LINE",
"1284 270 OFFCURVE",
"1277 260 OFFCURVE",
"1267 260 CURVE SMOOTH",
"1256 260 OFFCURVE",
"1245 269 OFFCURVE",
"1234 288 CURVE SMOOTH",
"655 1312 LINE SMOOTH",
"607 1395 OFFCURVE",
"471 1352 OFFCURVE",
"362 1363 CURVE",
"344 1363 OFFCURVE",
"328 1287 OFFCURVE",
"349 1287 CURVE SMOOTH",
"393 1287 OFFCURVE",
"425 1284 OFFCURVE",
"446 1277 CURVE SMOOTH",
"479 1266 OFFCURVE",
"497 1244 OFFCURVE",
"499 1212 CURVE SMOOTH",
"502 1180 OFFCURVE",
"500 1147 OFFCURVE",
"494 1114 CURVE SMOOTH",
"311 186 LINE SMOOTH",
"292 86 OFFCURVE",
"234 69 OFFCURVE",
"114 69 CURVE SMOOTH",
"96 69 OFFCURVE",
"80 -7 OFFCURVE",
"101 -7 CURVE",
"158 -2 OFFCURVE",
"225 0 OFFCURVE",
"301 0 CURVE SMOOTH",
"377 0 OFFCURVE",
"444 -2 OFFCURVE",
"502 -7 CURVE",
"520 -7 OFFCURVE",
"536 69 OFFCURVE",
"515 69 CURVE SMOOTH",
"427 69 OFFCURVE",
"380 93 OFFCURVE",
"376 141 CURVE SMOOTH",
"375 153 OFFCURVE",
"376 168 OFFCURVE",
"380 186 CURVE SMOOTH",
"562 1106 LINE",
"565 1127 OFFCURVE",
"571 1137 OFFCURVE",
"582 1137 CURVE SMOOTH",
"593 1137 OFFCURVE",
"603 1130 OFFCURVE",
"610 1117 CURVE SMOOTH",
"1246 0 LINE SMOOTH",
"1258 -19 OFFCURVE",
"1269 -29 OFFCURVE",
"1280 -29 CURVE SMOOTH",
"1291 -29 OFFCURVE",
"1299 -18 OFFCURVE",
"1303 4 CURVE SMOOTH"
);
}
);
};
layerId = "98F9B6AB-A1D0-4874-9186-59FDE6DAF116";
paths = (
{
closed = 1;
nodes = (
"1102 -21 LINE",
"1313 1171 LINE SMOOTH",
"1326 1248 OFFCURVE",
"1378 1287 OFFCURVE",
"1479 1287 CURVE",
"1479 1358 LINE",
"1089 1358 LINE",
"1089 1287 LINE",
"1213 1287 OFFCURVE",
"1264 1248 OFFCURVE",
"1250 1171 CURVE SMOOTH",
"1096 299 LINE",
"1071 299 LINE",
"489 1309 LINE SMOOTH",
"465 1351 OFFCURVE",
"418 1358 OFFCURVE",
"360 1358 CURVE SMOOTH",
"185 1358 LINE",
"185 1287 LINE",
"304 1287 OFFCURVE",
"369 1245 OFFCURVE",
"345 1110 CURVE SMOOTH",
"182 186 LINE SMOOTH",
"168 108 OFFCURVE",
"105 69 OFFCURVE",
"-16 69 CURVE",
"-16 0 LINE",
"393 0 LINE",
"393 69 LINE",
"277 69 OFFCURVE",
"231 108 OFFCURVE",
"245 186 CURVE SMOOTH",
"409 1117 LINE",
"432 1117 LINE",
"1082 -21 LINE"
);
}
);
userData = {
assembly = "NPUSHB[ ]\011/* 10 values pushed */
19 1 0 3 1 76 57 1 6 74 
MPPEM[ ]\011/* MeasurePixelPerEm */
PUSHB[ ]\011/* 1 value pushed */
37 
LT[ ]\011/* LessThan */
IF[ ]\011/* If */
NPUSHB[ ]\011/* 46 values pushed */
10 8 2 5 5 6 97 9 1 6 6 92 77 0 1 1 6 97 9 1 6 6 92 77 4 1 2 2 3 97 0 3 3 93 77 0 7 7 0 97 0 0 0 93 0 78 
ELSE[ ]\011/* Else */
MPPEM[ ]\011/* MeasurePixelPerEm */
PUSHB[ ]\011/* 1 value pushed */
57 
LT[ ]\011/* LessThan */
IF[ ]\011/* If */
NPUSHB[ ]\011/* 44 values pushed */
4 1 2 0 3 0 2 3 105 10 8 2 5 5 6 97 9 1 6 6 92 77 0 1 1 6 97 9 1 6 6 92 77 0 7 7 0 97 0 0 0 93 0 78 
ELSE[ ]\011/* Else */
NPUSHB[ ]\011/* 37 values pushed */
10 8 2 5 1 6 5 89 9 1 6 0 1 7 6 1 105 4 1 2 0 3 0 2 3 105 0 7 7 0 97 0 0 0 93 0 78 
EIF[ ]\011/* EndIf */
EIF[ ]\011/* EndIf */
NPUSHB[ ]\011/* 16 values pushed */
62 60 56 55 21 36 21 23 36 21 21 19 17 11 12 31 
CALL[ ]\011/* CallFunction */";
};
width = 1348;
},
{
anchors = (
{
name = bottom;
position = "{633, 0}";
},
{
name = top;
position = "{873, 1363}";
}
);
background = {
paths = (
{
closed = 1;
nodes = (
"1508 1169 LINE SMOOTH",
"1516 1214 OFFCURVE",
"1577 1270 OFFCURVE",
"1681 1270 QCURVE SMOOTH",
"1695 1270 OFFCURVE",
"1710 1339 OFFCURVE",
"1708 1364 OFFCURVE",
"1700 1364 QCURVE",
"1643 1358 OFFCURVE",
"1350 1358 OFFCURVE",
"1292 1364 QCURVE",
"1278 1364 OFFCURVE",
"1261 1296 OFFCURVE",
"1263 1270 OFFCURVE",
"1269 1270 QCURVE SMOOTH",
"1398 1270 OFFCURVE",
"1405 1198 QCURVE SMOOTH",
"1406 1180 OFFCURVE",
"1401 1153 QCURVE SMOOTH",
"1246 399 LINE SMOOTH",
"1239 365 OFFCURVE",
"1206 364 OFFCURVE",
"1189 395 QCURVE SMOOTH",
"665 1296 LINE SMOOTH",
"646 1329 OFFCURVE",
"593 1360 OFFCURVE",
"413 1360 OFFCURVE",
"336 1364 QCURVE",
"321 1364 OFFCURVE",
"307 1296 OFFCURVE",
"309 1270 OFFCURVE",
"315 1270 QCURVE SMOOTH",
"368 1270 OFFCURVE",
"402 1262 QCURVE",
"448 1247 OFFCURVE",
"457 1151 OFFCURVE",
"446 1096 QCURVE SMOOTH",
"270 203 LINE SMOOTH",
"257 137 OFFCURVE",
"181 86 OFFCURVE",
"85 86 QCURVE SMOOTH",
"71 86 OFFCURVE",
"58 16 OFFCURVE",
"63 -8 OFFCURVE",
"69 -8 QCURVE",
"144 0 OFFCURVE",
"406 0 OFFCURVE",
"482 -8 QCURVE",
"495 -8 OFFCURVE",
"510 57 OFFCURVE",
"507 86 OFFCURVE",
"499 86 QCURVE SMOOTH",
"376 86 OFFCURVE",
"371 145 QCURVE SMOOTH",
"369 170 OFFCURVE",
"374 203 QCURVE",
"532 1008 LINE",
"539 1030 OFFCURVE",
"559 1031 OFFCURVE",
"573 1008 QCURVE SMOOTH",
"1165 2 LINE SMOOTH",
"1183 -27 OFFCURVE",
"1267 -26 OFFCURVE",
"1278 27 QCURVE SMOOTH"
);
}
);
};
layerId = "2899D53B-47B8-4BF9-853D-5BC6961E25E7";
paths = (
{
closed = 1;
nodes = (
"1181 -20 LINE",
"1387 1151 LINE SMOOTH",
"1401 1230 OFFCURVE",
"1453 1270 OFFCURVE",
"1553 1270 CURVE",
"1553 1358 LINE",
"1142 1358 LINE",
"1142 1270 LINE",
"1255 1270 OFFCURVE",
"1299 1230 OFFCURVE",
"1285 1151 CURVE SMOOTH",
"1156 418 LINE",
"1134 418 LINE",
"567 1298 LINE SMOOTH",
"546 1331 OFFCURVE",
"518 1358 OFFCURVE",
"437 1358 CURVE",
"184 1358 LINE",
"184 1270 LINE",
"312 1270 OFFCURVE",
"352 1232 OFFCURVE",
"339 1155 CURVE SMOOTH",
"171 203 LINE SMOOTH",
"157 124 OFFCURVE",
"100 86 OFFCURVE",
"-17 86 CURVE",
"-17 0 LINE",
"416 0 LINE",
"416 86 LINE",
"305 86 OFFCURVE",
"262 125 OFFCURVE",
"276 203 CURVE SMOOTH",
"422 1030 LINE",
"441 1030 LINE",
"1141 -20 LINE"
);
}
);
userData = {
assembly = "NPUSHB[ ]\011/* 10 values pushed */
19 1 0 3 1 76 56 1 6 74 
MPPEM[ ]\011/* MeasurePixelPerEm */
PUSHB[ ]\011/* 1 value pushed */
37 
LT[ ]\011/* LessThan */
IF[ ]\011/* If */
NPUSHB[ ]\011/* 43 values pushed */
0 1 5 7 5 1 7 128 10 8 2 5 5 6 97 9 1 6 6 31 77 4 1 2 2 3 97 0 3 3 32 77 0 7 7 0 97 0 0 0 32 0 78 
ELSE[ ]\011/* Else */
MPPEM[ ]\011/* MeasurePixelPerEm */
PUSHB[ ]\011/* 1 value pushed */
59 
LT[ ]\011/* LessThan */
IF[ ]\011/* If */
NPUSHB[ ]\011/* 41 values pushed */
0 1 5 7 5 1 7 128 4 1 2 0 3 0 2 3 105 10 8 2 5 5 6 97 9 1 6 6 31 77 0 7 7 0 97 0 0 0 32 0 78 
ELSE[ ]\011/* Else */
MPPEM[ ]\011/* MeasurePixelPerEm */
PUSHB[ ]\011/* 1 value pushed */
114 
LT[ ]\011/* LessThan */
IF[ ]\011/* If */
NPUSHB[ ]\011/* 39 values pushed */
0 1 5 7 5 1 7 128 9 1 6 10 8 2 5 1 6 5 105 4 1 2 0 3 0 2 3 105 0 7 7 0 97 0 0 0 32 0 78 
ELSE[ ]\011/* Else */
NPUSHB[ ]\011/* 44 values pushed */
0 1 5 7 5 1 7 128 0 6 9 5 6 89 0 9 10 8 2 5 1 9 5 105 4 1 2 0 3 0 2 3 105 0 7 7 0 97 0 0 0 32 0 78 
EIF[ ]\011/* EndIf */
EIF[ ]\011/* EndIf */
EIF[ ]\011/* EndIf */
NPUSHB[ ]\011/* 16 values pushed */
61 59 55 54 21 20 51 23 36 21 21 19 17 11 8 31 
CALL[ ]\011/* CallFunction */";
};
width = 1415;
}
);
leftKerningGroup = Eng;
leftMetricsKey = H;
note = N;
rightKerningGroup = N;
rightMetricsKey = H;
unicode = 004E;
},
{
glyphname = O;
lastChange = "2018-08-18 12:41:39 +0000";
layers = (
{
anchors = (
{
name = bottom;
position = "{581, 0}";
},
{
name = center;
position = "{701, 682}";
},
{
name = ogonek;
position = "{1106, 10}";
},
{
name = top;
position = "{821, 1363}";
},
{
name = topleft;
position = "{185, 1363}";
},
{
name = topright;
position = "{1456, 1363}";
}
);
background = {
paths = (
{
closed = 1;
nodes = (
"1360 1166 OFFCURVE",
"1197 1385 OFFCURVE",
"905 1385 CURVE SMOOTH",
"493 1385 OFFCURVE",
"43 922 OFFCURVE",
"43 441 CURVE SMOOTH",
"43 116 OFFCURVE",
"262 -27 OFFCURVE",
"498 -27 CURVE SMOOTH",
"914 -27 OFFCURVE",
"1360 419 OFFCURVE",
"1360 886 CURVE SMOOTH"
);
},
{
closed = 1;
nodes = (
"1197 677 OFFCURVE",
"1095 391 OFFCURVE",
"895 194 CURVE SMOOTH",
"794 95 OFFCURVE",
"674 46 OFFCURVE",
"533 46 CURVE SMOOTH",
"365 46 OFFCURVE",
"206 216 OFFCURVE",
"206 456 CURVE SMOOTH",
"206 589 OFFCURVE",
"236 721 OFFCURVE",
"296 852 CURVE SMOOTH",
"415 1113 OFFCURVE",
"648 1314 OFFCURVE",
"857 1314 CURVE SMOOTH",
"1053 1314 OFFCURVE",
"1197 1135 OFFCURVE",
"1197 906 CURVE SMOOTH"
);
}
);
};
layerId = "98F9B6AB-A1D0-4874-9186-59FDE6DAF116";
paths = (
{
closed = 1;
nodes = (
"1078 -27 OFFCURVE",
"1334 479 OFFCURVE",
"1334 819 CURVE SMOOTH",
"1334 1148 OFFCURVE",
"1135 1385 OFFCURVE",
"827 1385 CURVE SMOOTH",
"329 1385 OFFCURVE",
"61 853 OFFCURVE",
"61 515 CURVE SMOOTH",
"61 207 OFFCURVE",
"240 -27 OFFCURVE",
"574 -27 CURVE SMOOTH"
);
},
{
closed = 1;
nodes = (
"398 38 OFFCURVE",
"217 242 OFFCURVE",
"217 562 CURVE SMOOTH",
"217 852 OFFCURVE",
"412 1324 OFFCURVE",
"804 1324 CURVE SMOOTH",
"1013 1324 OFFCURVE",
"1184 1096 OFFCURVE",
"1184 794 CURVE SMOOTH",
"1184 493 OFFCURVE",
"992 38 OFFCURVE",
"599 38 CURVE SMOOTH"
);
}
);
userData = {
assembly = "MPPEM[ ]\011/* MeasurePixelPerEm */
PUSHB[ ]\011/* 1 value pushed */
57 
LT[ ]\011/* LessThan */
IF[ ]\011/* If */
NPUSHB[ ]\011/* 21 values pushed */
0 2 2 1 97 0 1 1 98 77 0 3 3 0 97 0 0 0 93 0 78 
ELSE[ ]\011/* Else */
NPUSHB[ ]\011/* 19 values pushed */
0 1 0 2 3 1 2 105 0 3 3 0 97 0 0 0 93 0 78 
EIF[ ]\011/* EndIf */
PUSHB[ ]\011/* 7 values pushed */
38 36 36 34 4 12 26 
CALL[ ]\011/* CallFunction */";
};
width = 1311;
},
{
anchors = (
{
name = bottom;
position = "{645, 0}";
},
{
name = center;
position = "{765, 682}";
},
{
name = ogonek;
position = "{1222, 10}";
},
{
name = top;
position = "{885, 1363}";
},
{
name = topleft;
position = "{185, 1363}";
},
{
name = topright;
position = "{1585, 1363}";
}
);
background = {
paths = (
{
closed = 1;
nodes = (
"1591 1087 OFFCURVE",
"1343 1384 OFFCURVE",
"1101 1384 QCURVE SMOOTH",
"727 1384 OFFCURVE",
"200 795 OFFCURVE",
"200 451 QCURVE SMOOTH",
"200 240 OFFCURVE",
"487 -27 OFFCURVE",
"694 -27 QCURVE SMOOTH",
"1069 -27 OFFCURVE",
"1591 532 OFFCURVE",
"1591 874 QCURVE SMOOTH"
);
},
{
closed = 1;
nodes = (
"1353 679 OFFCURVE",
"1181 297 OFFCURVE",
"915 63 OFFCURVE",
"737 63 QCURVE SMOOTH",
"614 63 OFFCURVE",
"444 285 OFFCURVE",
"444 473 QCURVE SMOOTH",
"444 702 OFFCURVE",
"645 1087 OFFCURVE",
"917 1300 OFFCURVE",
"1064 1300 QCURVE SMOOTH",
"1183 1301 OFFCURVE",
"1267 1176 QCURVE SMOOTH",
"1353 1050 OFFCURVE",
"1353 874 QCURVE SMOOTH"
);
}
);
};
layerId = "2899D53B-47B8-4BF9-853D-5BC6961E25E7";
paths = (
{
closed = 1;
nodes = (
"1123 -27 OFFCURVE",
"1461 422 OFFCURVE",
"1461 801 CURVE SMOOTH",
"1461 1130 OFFCURVE",
"1239 1384 OFFCURVE",
"891 1384 CURVE SMOOTH",
"400 1384 OFFCURVE",
"62 911 OFFCURVE",
"62 528 CURVE SMOOTH",
"62 197 OFFCURVE",
"286 -27 OFFCURVE",
"639 -27 CURVE SMOOTH"
);
},
{
closed = 1;
nodes = (
"455 68 OFFCURVE",
"344 310 OFFCURVE",
"344 569 CURVE SMOOTH",
"344 831 OFFCURVE",
"514 1296 OFFCURVE",
"870 1296 CURVE SMOOTH",
"1071 1296 OFFCURVE",
"1185 1036 OFFCURVE",
"1185 784 CURVE SMOOTH",
"1185 538 OFFCURVE",
"1052 68 OFFCURVE",
"670 68 CURVE SMOOTH"
);
}
);
userData = {
assembly = "MPPEM[ ]\011/* MeasurePixelPerEm */
PUSHB[ ]\011/* 1 value pushed */
59 
LT[ ]\011/* LessThan */
IF[ ]\011/* If */
NPUSHB[ ]\011/* 21 values pushed */
0 2 2 1 97 0 1 1 37 77 0 3 3 0 97 0 0 0 32 0 78 
ELSE[ ]\011/* Else */
NPUSHB[ ]\011/* 19 values pushed */
0 1 0 2 3 1 2 105 0 3 3 0 97 0 0 0 32 0 78 
EIF[ ]\011/* EndIf */
PUSHB[ ]\011/* 7 values pushed */
37 37 36 34 4 8 26 
CALL[ ]\011/* CallFunction */";
};
width = 1440;
}
);
leftKerningGroup = C;
note = O;
rightKerningGroup = O;
unicode = 004F;
},
